<svg width="34" height="40" viewBox="0 0 34 40" fill="none" xmlns="http://www.w3.org/2000/svg">
<path d="M16.8001 17.4998H18.4668L16.6335 25.8332H14.9668L16.8001 17.4998ZM18.2001 14.1665C18.0353 14.1665 17.8742 14.2154 17.7372 14.3069C17.6001 14.3985 17.4933 14.5287 17.4302 14.6809C17.3672 14.8332 17.3507 15.0008 17.3828 15.1624C17.415 15.3241 17.4943 15.4725 17.6109 15.5891C17.7274 15.7056 17.8759 15.785 18.0376 15.8172C18.1992 15.8493 18.3668 15.8328 18.519 15.7697C18.6713 15.7067 18.8015 15.5999 18.893 15.4628C18.9846 15.3258 19.0335 15.1647 19.0335 14.9998C19.0335 14.7788 18.9457 14.5669 18.7894 14.4106C18.6331 14.2543 18.4211 14.1665 18.2001 14.1665Z" fill="#333333"/>
</svg>
