<svg width="34" height="40" viewBox="0 0 34 40" fill="none" xmlns="http://www.w3.org/2000/svg">
<path d="M19.7087 19.8332C20.1167 19.5847 20.461 19.2444 20.7142 18.8392C20.9674 18.4341 21.1225 17.9755 21.167 17.4998C21.1747 17.0697 21.0976 16.6423 20.9402 16.242C20.7827 15.8417 20.5479 15.4764 20.2492 15.1668C19.9505 14.8573 19.5937 14.6096 19.1993 14.438C18.8048 14.2663 18.3804 14.1741 17.9503 14.1665H12.542V25.8332H18.3753C18.7846 25.8288 19.189 25.7439 19.5655 25.5832C19.942 25.4226 20.2831 25.1893 20.5694 24.8968C20.8557 24.6043 21.0816 24.2582 21.2342 23.8784C21.3868 23.4986 21.4631 23.0925 21.4587 22.6832V22.5832C21.4589 22.0058 21.2944 21.4403 20.9844 20.9531C20.6744 20.466 20.2318 20.0775 19.7087 19.8332ZM14.2087 15.8332H17.7087C18.0638 15.8222 18.4138 15.9201 18.7117 16.1137C19.0096 16.3074 19.2412 16.5875 19.3753 16.9165C19.5111 17.3563 19.4672 17.832 19.2532 18.2395C19.0393 18.6471 18.6727 18.9534 18.2337 19.0915C18.0631 19.1415 17.8863 19.1667 17.7087 19.1665H14.2087V15.8332ZM18.042 24.1665H14.2087V20.8332H18.042C18.3971 20.8222 18.7471 20.9201 19.0451 21.1137C19.343 21.3074 19.5745 21.5875 19.7087 21.9165C19.8444 22.3563 19.8005 22.832 19.5866 23.2395C19.3726 23.6471 19.0061 23.9534 18.567 24.0915C18.3965 24.1415 18.2197 24.1667 18.042 24.1665Z" fill="#333333"/>
</svg>
