<svg width="34" height="40" viewBox="0 0 34 40" fill="none" xmlns="http://www.w3.org/2000/svg">
<path d="M20.7497 20.8332H15.7497V25.8332H14.083V20.8332H9.08301V19.1665H14.083V14.1665H15.7497V19.1665H20.7497V20.8332ZM24.9163 24.5832C24.9163 24.8304 24.843 25.0721 24.7057 25.2776C24.5683 25.4832 24.3731 25.6434 24.1447 25.738C23.9163 25.8326 23.665 25.8574 23.4225 25.8092C23.18 25.7609 22.9573 25.6419 22.7825 25.4671C22.6076 25.2922 22.4886 25.0695 22.4404 24.827C22.3921 24.5846 22.4169 24.3332 22.5115 24.1048C22.6061 23.8764 22.7663 23.6812 22.9719 23.5438C23.1774 23.4065 23.4191 23.3332 23.6663 23.3332C23.9979 23.3332 24.3158 23.4649 24.5502 23.6993C24.7846 23.9337 24.9163 24.2516 24.9163 24.5832ZM24.9163 21.2498C24.9163 21.4971 24.843 21.7387 24.7057 21.9443C24.5683 22.1499 24.3731 22.3101 24.1447 22.4047C23.9163 22.4993 23.665 22.5241 23.4225 22.4758C23.18 22.4276 22.9573 22.3085 22.7825 22.1337C22.6076 21.9589 22.4886 21.7362 22.4404 21.4937C22.3921 21.2512 22.4169 20.9999 22.5115 20.7715C22.6061 20.5431 22.7663 20.3479 22.9719 20.2105C23.1774 20.0731 23.4191 19.9998 23.6663 19.9998C23.9979 19.9998 24.3158 20.1315 24.5502 20.366C24.7846 20.6004 24.9163 20.9183 24.9163 21.2498ZM24.9163 17.9165C24.9163 18.1637 24.843 18.4054 24.7057 18.611C24.5683 18.8165 24.3731 18.9767 24.1447 19.0714C23.9163 19.166 23.665 19.1907 23.4225 19.1425C23.18 19.0943 22.9573 18.9752 22.7825 18.8004C22.6076 18.6256 22.4886 18.4028 22.4404 18.1604C22.3921 17.9179 22.4169 17.6666 22.5115 17.4381C22.6061 17.2097 22.7663 17.0145 22.9719 16.8772C23.1774 16.7398 23.4191 16.6665 23.6663 16.6665C23.9979 16.6665 24.3158 16.7982 24.5502 17.0326C24.7846 17.267 24.9163 17.585 24.9163 17.9165Z" fill="#333333"/>
</svg>
