<svg width="34" height="40" viewBox="0 0 34 40" fill="none" xmlns="http://www.w3.org/2000/svg">
<path d="M18.2913 25.8332H19.958L15.7913 14.1665H14.1247L9.95801 25.8332H11.6247L12.7913 22.4998H17.0413L18.2913 25.8332ZM13.3747 20.8332L14.958 16.4998L16.5413 20.8332H13.3747ZM24.0413 24.5832C24.0413 24.8304 23.968 25.0721 23.8307 25.2776C23.6933 25.4832 23.4981 25.6434 23.2697 25.738C23.0413 25.8326 22.79 25.8574 22.5475 25.8092C22.305 25.7609 22.0823 25.6419 21.9075 25.4671C21.7326 25.2922 21.6136 25.0695 21.5654 24.827C21.5171 24.5846 21.5419 24.3332 21.6365 24.1048C21.7311 23.8764 21.8913 23.6812 22.0969 23.5438C22.3024 23.4065 22.5441 23.3332 22.7913 23.3332C23.1229 23.3332 23.4408 23.4649 23.6752 23.6993C23.9096 23.9337 24.0413 24.2516 24.0413 24.5832ZM24.0413 21.2498C24.0413 21.4971 23.968 21.7387 23.8307 21.9443C23.6933 22.1499 23.4981 22.3101 23.2697 22.4047C23.0413 22.4993 22.79 22.5241 22.5475 22.4758C22.305 22.4276 22.0823 22.3085 21.9075 22.1337C21.7326 21.9589 21.6136 21.7362 21.5654 21.4937C21.5171 21.2512 21.5419 20.9999 21.6365 20.7715C21.7311 20.5431 21.8913 20.3479 22.0969 20.2105C22.3024 20.0731 22.5441 19.9998 22.7913 19.9998C23.1229 19.9998 23.4408 20.1315 23.6752 20.366C23.9096 20.6004 24.0413 20.9183 24.0413 21.2498ZM24.0413 17.9165C24.0413 18.1637 23.968 18.4054 23.8307 18.611C23.6933 18.8165 23.4981 18.9767 23.2697 19.0714C23.0413 19.166 22.79 19.1907 22.5475 19.1425C22.305 19.0943 22.0823 18.9752 21.9075 18.8004C21.7326 18.6256 21.6136 18.4028 21.5654 18.1604C21.5171 17.9179 21.5419 17.6666 21.6365 17.4381C21.7311 17.2097 21.8913 17.0145 22.0969 16.8772C22.3024 16.7398 22.5441 16.6665 22.7913 16.6665C23.1229 16.6665 23.4408 16.7982 23.6752 17.0326C23.9096 17.267 24.0413 17.585 24.0413 17.9165Z" fill="#333333"/>
</svg>
