<svg width="114" height="48" viewBox="0 0 114 48" fill="none" xmlns="http://www.w3.org/2000/svg">
<g opacity="0.3">
<path d="M17.6667 21.8335C16.25 22.0835 15 22.5835 13.8333 23.5002L11.5 21.0835V26.9168H17.3333L15.0833 24.6668C18.1667 22.5002 22.4167 23.1668 24.6667 26.2502C24.8333 26.5002 25 26.6668 25.0833 26.9168L26.5833 26.1668C24.75 23.0002 21.25 21.2502 17.6667 21.8335Z" fill="#333333"/>
</g>
<g opacity="0.3">
<path d="M58.3333 21.8335C59.75 22.0835 61 22.5835 62.1667 23.5002L64.5 21.0835V26.9168H58.6667L60.9167 24.6668C57.8333 22.4168 53.5833 23.1668 51.4167 26.2502C51.25 26.5002 51.0833 26.6668 51 26.9168L49.5 26.1668C51.25 23.0002 54.75 21.2502 58.3333 21.8335Z" fill="#333333"/>
</g>
<path d="M96.25 28.1668C96.25 28.8335 95.6667 29.4168 95 29.4168C94.3333 29.4168 93.75 28.8335 93.75 28.1668C93.75 27.5002 94.3333 26.9168 95 26.9168C95.6667 26.9168 96.25 27.5002 96.25 28.1668ZM96.25 24.0002C96.25 24.6668 95.6667 25.2502 95 25.2502C94.3333 25.2502 93.75 24.6668 93.75 24.0002C93.75 23.3335 94.3333 22.7502 95 22.7502C95.6667 22.7502 96.25 23.3335 96.25 24.0002ZM96.25 19.8335C96.25 20.5002 95.6667 21.0835 95 21.0835C94.3333 21.0835 93.75 20.5002 93.75 19.8335C93.75 19.1668 94.3333 18.5835 95 18.5835C95.6667 18.5835 96.25 19.1668 96.25 19.8335Z" fill="#333333"/>
</svg>
