<svg width="254" height="48" viewBox="0 0 254 48" fill="none" xmlns="http://www.w3.org/2000/svg">
<path d="M11.083 27.3332H12.7497V27.7498H11.9163V28.5832H12.7497V28.9998H11.083V29.8332H13.583V26.4998H11.083V27.3332ZM11.9163 21.4998H12.7497V18.1665H11.083V18.9998H11.9163V21.4998ZM11.083 23.1665H12.583L11.083 24.9165V25.6665H13.583V24.8332H12.083L13.583 23.0832V22.3332H11.083V23.1665ZM15.2497 18.9998V20.6665H26.9163V18.9998H15.2497ZM15.2497 28.9998H26.9163V27.3332H15.2497V28.9998ZM15.2497 24.8332H26.9163V23.1665H15.2497V24.8332Z" fill="#333333"/>
<mask id="path-4-inside-1_25_1818" fill="white">
<path d="M39 22H47V26H39V22Z"/>
</mask>
<path d="M39 22V18H35V22H39ZM47 22H51V18H47V22ZM39 26H47V18H39V26ZM43 22V26H51V22H43ZM43 26V22H35V26H43Z" fill="url(#paint0_diamond_25_1818)" mask="url(#path-4-inside-1_25_1818)"/>
<path d="M63.333 22.7502C62.6663 22.7502 62.083 23.3335 62.083 24.0002C62.083 24.6668 62.6663 25.2502 63.333 25.2502C63.9997 25.2502 64.583 24.6668 64.583 24.0002C64.583 23.3335 63.9997 22.7502 63.333 22.7502ZM63.333 18.5835C62.6663 18.5835 62.083 19.1668 62.083 19.8335C62.083 20.5002 62.6663 21.0835 63.333 21.0835C63.9997 21.0835 64.583 20.5002 64.583 19.8335C64.583 19.1668 63.9997 18.5835 63.333 18.5835ZM63.333 26.9168C62.6663 26.9168 62.083 27.5002 62.083 28.1668C62.083 28.8335 62.6663 29.4168 63.333 29.4168C63.9997 29.4168 64.583 28.8335 64.583 28.1668C64.583 27.5002 63.9997 26.9168 63.333 26.9168ZM66.2497 19.0002V20.6668H77.9163V19.0002H66.2497ZM66.2497 29.0002H77.9163V27.3335H66.2497V29.0002ZM66.2497 24.8335H77.9163V23.1668H66.2497V24.8335Z" fill="#333333"/>
<mask id="path-9-inside-2_25_1818" fill="white">
<path d="M90 22H98V26H90V22Z"/>
</mask>
<path d="M90 22V18H86V22H90ZM98 22H102V18H98V22ZM90 26H98V18H90V26ZM94 22V26H102V22H94ZM94 26V22H86V26H94Z" fill="url(#paint1_diamond_25_1818)" mask="url(#path-9-inside-2_25_1818)"/>
<path d="M111.5 29H116.5V27.3333H111.5V29ZM111.5 23.1667V24.8333H121.5V23.1667H111.5ZM111.5 19V20.6667H126.5V19H111.5Z" fill="#333333"/>
<path d="M152.5 29H157.5V27.3333H152.5V29ZM150 23.1667V24.8333H160V23.1667H150ZM147.5 19V20.6667H162.5V19H147.5Z" fill="#333333"/>
<path d="M195.5 29H200.5V27.3333H195.5V29ZM190.5 23.1667V24.8333H200.5V23.1667H190.5ZM185.5 19V20.6667H200.5V19H185.5Z" fill="#333333"/>
<path d="M227.402 18.1665C226.619 18.1538 225.855 18.4099 225.238 18.8921C224.62 19.3744 224.187 20.0535 224.01 20.8165C223.832 21.6823 224.004 22.5835 224.49 23.3219C224.976 24.0604 225.736 24.5755 226.602 24.754L226.624 24.7581C226.849 24.8081 227.078 24.8332 227.308 24.8331V29.8331H228.974V19.8331H230.641V29.8331H232.308V19.8331H233.974V18.1665H227.402ZM225.61 21.4998C225.61 21.0578 225.786 20.6338 226.098 20.3213C226.411 20.0087 226.835 19.8331 227.277 19.8331V23.1665C226.835 23.1665 226.411 22.9909 226.098 22.6783C225.786 22.3657 225.61 21.9418 225.61 21.4998ZM238.06 28.5756C238.06 28.8229 237.987 29.0645 237.849 29.2701C237.712 29.4757 237.517 29.6359 237.288 29.7305C237.06 29.8251 236.809 29.8498 236.566 29.8016C236.324 29.7534 236.101 29.6343 235.926 29.4595C235.751 29.2847 235.632 29.062 235.584 28.8195C235.536 28.577 235.561 28.3257 235.655 28.0973C235.75 27.8689 235.91 27.6736 236.116 27.5363C236.321 27.3989 236.563 27.3256 236.81 27.3256C237.142 27.3256 237.459 27.4573 237.694 27.6917C237.928 27.9262 238.06 28.2441 238.06 28.5756ZM238.06 25.2423C238.06 25.4895 237.987 25.7312 237.849 25.9368C237.712 26.1423 237.517 26.3025 237.288 26.3971C237.06 26.4918 236.809 26.5165 236.566 26.4683C236.324 26.42 236.101 26.301 235.926 26.1262C235.751 25.9514 235.632 25.7286 235.584 25.4862C235.536 25.2437 235.561 24.9924 235.655 24.7639C235.75 24.5355 235.91 24.3403 236.116 24.203C236.321 24.0656 236.563 23.9923 236.81 23.9923C237.142 23.9923 237.459 24.124 237.694 24.3584C237.928 24.5928 238.06 24.9108 238.06 25.2423ZM238.06 21.909C238.06 22.1562 237.987 22.3979 237.849 22.6034C237.712 22.809 237.517 22.9692 237.288 23.0638C237.06 23.1584 236.809 23.1832 236.566 23.1349C236.324 23.0867 236.101 22.9677 235.926 22.7928C235.751 22.618 235.632 22.3953 235.584 22.1528C235.536 21.9104 235.561 21.659 235.655 21.4306C235.75 21.2022 235.91 21.007 236.116 20.8696C236.321 20.7323 236.563 20.659 236.81 20.659C237.142 20.659 237.459 20.7907 237.694 21.0251C237.928 21.2595 238.06 21.5774 238.06 21.909Z" fill="#333333"/>
<defs>
<radialGradient id="paint0_diamond_25_1818" cx="0" cy="0" r="1" gradientUnits="userSpaceOnUse" gradientTransform="translate(43 22) scale(4)">
<stop offset="1" stop-color="#333333"/>
<stop offset="1" stop-opacity="0"/>
</radialGradient>
<radialGradient id="paint1_diamond_25_1818" cx="0" cy="0" r="1" gradientUnits="userSpaceOnUse" gradientTransform="translate(94 22) scale(4)">
<stop offset="1" stop-color="#333333"/>
<stop offset="1" stop-opacity="0"/>
</radialGradient>
</defs>
</svg>
