<svg width="200" height="200" viewBox="0 0 200 200" fill="none" xmlns="http://www.w3.org/2000/svg">
<path d="M133.334 83.3333C133.334 92.1739 129.822 100.652 123.571 106.904C117.319 113.155 108.841 116.667 100 116.667C91.1598 116.667 82.6813 113.155 76.4301 106.904C70.1789 100.652 66.667 92.1739 66.667 83.3333C66.667 74.4928 70.1789 66.0143 76.4301 59.7631C82.6813 53.5119 91.1598 50 100 50C108.841 50 117.319 53.5119 123.571 59.7631C129.822 66.0143 133.334 74.4928 133.334 83.3333Z" fill="#006C93"/>
<path fill-rule="evenodd" clip-rule="evenodd" d="M96.6003 183.267C52.1545 181.483 16.667 144.883 16.667 99.9998C16.667 53.9748 53.9753 16.6665 100 16.6665C146.025 16.6665 183.334 53.9748 183.334 99.9998C183.334 146.025 146.025 183.333 100 183.333C99.6198 183.336 99.2392 183.336 98.8587 183.333C98.1045 183.333 97.3503 183.308 96.6003 183.267ZM46.5253 152.583C45.9023 150.794 45.6902 148.887 45.9048 147.005C46.1195 145.122 46.7553 143.312 47.7652 141.709C48.7751 140.106 50.1331 138.751 51.7383 137.745C53.3436 136.738 55.1549 136.106 57.0378 135.896C89.5212 132.3 110.679 132.625 143.004 135.971C144.89 136.167 146.706 136.791 148.314 137.795C149.921 138.799 151.279 140.157 152.283 141.765C153.286 143.373 153.91 145.189 154.106 147.075C154.302 148.96 154.065 150.866 153.413 152.646C167.267 138.629 175.025 119.708 175 99.9998C175 58.579 141.421 24.9998 100 24.9998C58.5795 24.9998 25.0003 58.579 25.0003 99.9998C25.0003 120.483 33.2128 139.05 46.5253 152.583Z" fill="#006C93"/>
</svg>
