<svg width="13" height="13" viewBox="0 0 13 13" fill="none" xmlns="http://www.w3.org/2000/svg">
<g clip-path="url(#clip0_9_5280)">
<path d="M10.6941 3.93359L9.93238 4.69531L8.03395 2.78516L8.79567 2.03516C8.87379 1.95703 8.97145 1.91797 9.08863 1.91797C9.20582 1.91797 9.30348 1.95703 9.3816 2.03516L10.6941 3.34766C10.7722 3.43359 10.8113 3.5332 10.8113 3.64648C10.8113 3.75977 10.7722 3.85547 10.6941 3.93359ZM4.35426 10.2852L2.45582 8.38672L7.36598 3.46484L9.26442 5.36328L4.35426 10.2852ZM2.01051 9.30078L3.4402 10.7188L1.45973 11.2812L2.01051 9.30078ZM11.3738 2.67969L10.0496 1.35547C9.92457 1.22266 9.66481 1.0957 9.27028 0.974609C8.87574 0.853516 8.49488 0.980469 8.1277 1.35547L1.43629 8.04688C1.40504 8.07812 1.37965 8.10938 1.36012 8.14062C1.34059 8.17188 1.32692 8.21094 1.3191 8.25781L0.31129 11.8438C0.287853 11.9219 0.2859 12.0039 0.305431 12.0898C0.324962 12.1758 0.365978 12.25 0.428478 12.3125C0.490978 12.375 0.571056 12.4141 0.668712 12.4297C0.766369 12.4453 0.84254 12.4453 0.897228 12.4297L4.48317 11.4219C4.52223 11.4141 4.55934 11.3984 4.59449 11.375C4.62965 11.3516 4.66285 11.3281 4.6941 11.3047L11.3738 4.61328C11.6394 4.34766 11.7722 4.02539 11.7722 3.64648C11.7722 3.26758 11.6394 2.94531 11.3738 2.67969Z" fill="#E2E2E2"/>
</g>
<defs>
<clipPath id="clip0_9_5280">
<rect width="12" height="12" fill="white" transform="matrix(1 0 0 -1 0.0300293 12.6992)"/>
</clipPath>
</defs>
</svg>
