<svg width="15" height="15" viewBox="0 0 15 15" fill="none" xmlns="http://www.w3.org/2000/svg">
<g clip-path="url(#clip0_9_292)">
<path d="M10.8687 0.832031C10.6773 0.86849 10.5361 0.952799 10.4449 1.08496C10.3538 1.21712 10.3128 1.39714 10.3219 1.625C10.3219 1.67969 10.3242 1.76628 10.3287 1.88477C10.3333 2.00326 10.3355 2.11719 10.3355 2.22656C10.3538 2.5 10.3538 2.67318 10.3355 2.74609C10.3173 2.81901 10.2763 2.85547 10.2125 2.85547C10.1669 2.85547 10.1145 2.83724 10.0553 2.80078C9.99603 2.76432 9.85247 2.66862 9.62461 2.51367C9.50612 2.42253 9.39219 2.34277 9.28281 2.27441C9.17344 2.20605 9.10052 2.16276 9.06406 2.14453C9.00937 2.11719 8.96608 2.09896 8.93418 2.08984C8.90228 2.08073 8.8362 2.07617 8.73594 2.07617C8.65391 2.07617 8.59466 2.07845 8.5582 2.08301C8.52174 2.08756 8.48529 2.09896 8.44883 2.11719C8.27565 2.21745 8.14805 2.35872 8.06602 2.54102C7.98398 2.72331 7.97031 2.90104 8.025 3.07422C8.05234 3.14714 8.09108 3.22005 8.14121 3.29297C8.19134 3.36589 8.24375 3.42057 8.29844 3.45703C8.32578 3.47526 8.39186 3.51628 8.49668 3.58008C8.6015 3.64388 8.71771 3.70768 8.84531 3.77148C8.9638 3.83529 9.07318 3.89681 9.17344 3.95605C9.2737 4.0153 9.3375 4.05404 9.36484 4.07227C9.42865 4.11784 9.46283 4.17936 9.46738 4.25684C9.47194 4.33431 9.44232 4.40495 9.37852 4.46875C9.36029 4.48698 9.3056 4.52344 9.21445 4.57812C9.12331 4.63281 9.02305 4.69206 8.91367 4.75586C8.67669 4.87435 8.51491 4.96549 8.42832 5.0293C8.34173 5.0931 8.26654 5.16146 8.20273 5.23438C8.13893 5.32552 8.09564 5.40299 8.07285 5.4668C8.05007 5.5306 8.03867 5.60807 8.03867 5.69922C8.04779 5.77214 8.0569 5.82682 8.06602 5.86328C8.07513 5.89974 8.09792 5.94531 8.13437 6C8.17995 6.08203 8.23236 6.15723 8.2916 6.22559C8.35085 6.29395 8.41237 6.34635 8.47617 6.38281C8.50352 6.39193 8.53542 6.40104 8.57188 6.41016C8.60833 6.41927 8.65846 6.42383 8.72227 6.42383C8.85898 6.43294 8.97747 6.41927 9.07773 6.38281C9.17799 6.34635 9.31471 6.26432 9.48789 6.13672C9.53346 6.10026 9.59727 6.05241 9.6793 5.99316C9.76133 5.93392 9.82969 5.88607 9.88437 5.84961C10.0211 5.74935 10.1214 5.68783 10.1852 5.66504C10.249 5.64225 10.29 5.65365 10.3082 5.69922C10.3264 5.74479 10.3378 5.80859 10.3424 5.89062C10.3469 5.97266 10.3447 6.0957 10.3355 6.25977C10.3264 6.52409 10.3219 6.71549 10.3219 6.83398C10.3219 6.95247 10.331 7.04818 10.3492 7.12109C10.3857 7.2487 10.4426 7.35807 10.5201 7.44922C10.5976 7.54036 10.6865 7.60417 10.7867 7.64062C10.8596 7.66797 10.9531 7.68164 11.067 7.68164C11.1809 7.68164 11.2698 7.67253 11.3336 7.6543C11.4339 7.61784 11.5227 7.56087 11.6002 7.4834C11.6777 7.40592 11.7392 7.3125 11.7848 7.20312C11.8121 7.13021 11.8281 7.02767 11.8326 6.89551C11.8372 6.76335 11.8349 6.49219 11.8258 6.08203C11.8167 5.92708 11.8144 5.81771 11.8189 5.75391C11.8235 5.6901 11.8303 5.65365 11.8395 5.64453C11.8577 5.6263 11.9078 5.63997 11.9898 5.68555C12.0719 5.73112 12.2223 5.83138 12.441 5.98633C12.6871 6.17773 12.858 6.29622 12.9537 6.3418C13.0494 6.38737 13.1656 6.41471 13.3023 6.42383C13.3935 6.43294 13.455 6.43522 13.4869 6.43066C13.5188 6.42611 13.5621 6.41016 13.6168 6.38281C13.6806 6.34635 13.7353 6.3099 13.7809 6.27344C13.8264 6.23698 13.872 6.18229 13.9176 6.10938C13.9723 6.02734 14.011 5.95671 14.0338 5.89746C14.0566 5.83822 14.0725 5.77214 14.0816 5.69922C14.0816 5.6263 14.0794 5.57617 14.0748 5.54883C14.0702 5.52148 14.0497 5.47135 14.0133 5.39844C13.9586 5.29818 13.888 5.20703 13.8014 5.125C13.7148 5.04297 13.5986 4.96094 13.4527 4.87891C13.4163 4.86068 13.3616 4.83105 13.2887 4.79004C13.2158 4.74902 13.1474 4.71484 13.0836 4.6875C12.9378 4.60547 12.8398 4.5485 12.7896 4.5166C12.7395 4.4847 12.6962 4.44596 12.6598 4.40039C12.5777 4.30013 12.5891 4.20671 12.6939 4.12012C12.7988 4.03353 13.1018 3.85807 13.6031 3.59375C13.8128 3.48438 13.9609 3.34538 14.0475 3.17676C14.134 3.00814 14.1454 2.83268 14.0816 2.65039C14.0634 2.56836 14.0383 2.5 14.0064 2.44531C13.9745 2.39062 13.9267 2.33138 13.8629 2.26758C13.79 2.19466 13.7148 2.14453 13.6373 2.11719C13.5598 2.08984 13.471 2.07617 13.3707 2.07617C13.2613 2.07617 13.1588 2.09896 13.0631 2.14453C12.9674 2.1901 12.801 2.29492 12.5641 2.45898C12.3544 2.61393 12.2109 2.71647 12.1334 2.7666C12.0559 2.81673 11.999 2.84635 11.9625 2.85547C11.8896 2.8737 11.844 2.83724 11.8258 2.74609C11.8076 2.65495 11.8076 2.45443 11.8258 2.14453C11.8349 1.86198 11.8372 1.66374 11.8326 1.5498C11.8281 1.43587 11.8121 1.34701 11.7848 1.2832C11.721 1.13737 11.6344 1.02572 11.525 0.948242C11.4156 0.870768 11.2789 0.827474 11.1148 0.818359C11.0693 0.818359 11.0214 0.818359 10.9713 0.818359C10.9212 0.818359 10.887 0.822917 10.8687 0.832031Z" fill="#31CAAE"/>
</g>
<defs>
<clipPath id="clip0_9_292">
<rect width="14" height="14" fill="white" transform="matrix(1 0 0 -1 0.560059 14.75)"/>
</clipPath>
</defs>
</svg>
