<svg width="12" height="12" viewBox="0 0 12 12" fill="none" xmlns="http://www.w3.org/2000/svg">
<path d="M7.75977 5.39844C7.74544 5.38411 7.72933 5.368 7.71143 5.3501C7.69352 5.33219 7.67383 5.31966 7.65234 5.3125L5.00977 2.66992C4.88086 2.54102 4.7251 2.47656 4.54248 2.47656C4.35986 2.47656 4.2041 2.54102 4.0752 2.66992C3.94629 2.79883 3.88184 2.95459 3.88184 3.13721C3.88184 3.31982 3.94629 3.47559 4.0752 3.60449L6.35254 5.87109L4.06445 8.15918C3.93555 8.28809 3.87109 8.44385 3.87109 8.62646C3.87109 8.80908 3.93555 8.96484 4.06445 9.09375C4.12891 9.1582 4.20231 9.20654 4.28467 9.23877C4.36702 9.271 4.44759 9.28711 4.52637 9.28711C4.6123 9.28711 4.69645 9.271 4.77881 9.23877C4.86117 9.20654 4.93457 9.1582 4.99902 9.09375L7.65234 6.44043C7.67383 6.42611 7.69352 6.41178 7.71143 6.39746C7.72933 6.38314 7.74544 6.36882 7.75977 6.35449C7.82422 6.29004 7.87256 6.21663 7.90479 6.13428C7.93701 6.05192 7.95312 5.96419 7.95312 5.87109C7.95312 5.78516 7.93701 5.70101 7.90479 5.61865C7.87256 5.5363 7.82422 5.46289 7.75977 5.39844Z" fill="#333333"/>
</svg>
