<svg width="13" height="13" viewBox="0 0 13 13" fill="none" xmlns="http://www.w3.org/2000/svg">
<g clip-path="url(#clip0_9_11174)">
<path d="M6.5 0C5.60286 0 4.76074 0.169271 3.97363 0.507812C3.18652 0.854817 2.49886 1.32243 1.91064 1.91064C1.32243 2.49886 0.854818 3.18652 0.507812 3.97363C0.169271 4.76074 0 5.60286 0 6.5C0 7.39714 0.169271 8.23926 0.507812 9.02637C0.854818 9.81348 1.32243 10.5011 1.91064 11.0894C2.49886 11.6776 3.18652 12.1452 3.97363 12.4922C4.76074 12.8307 5.60286 13 6.5 13C7.39714 13 8.23926 12.8307 9.02637 12.4922C9.81348 12.1452 10.5011 11.6776 11.0894 11.0894C11.6776 10.5011 12.1452 9.81348 12.4922 9.02637C12.8307 8.23926 13 7.39714 13 6.5C13 5.60286 12.8307 4.76074 12.4922 3.97363C12.1452 3.18652 11.6776 2.49886 11.0894 1.91064C10.5011 1.32243 9.81348 0.854817 9.02637 0.507812C8.23926 0.169271 7.39714 0 6.5 0ZM6.5 11.9209C5.75521 11.9209 5.05273 11.777 4.39258 11.4893C3.73242 11.21 3.1569 10.8249 2.66602 10.334C2.17513 9.8431 1.79004 9.26758 1.51074 8.60742C1.22298 7.94727 1.0791 7.24479 1.0791 6.5C1.0791 5.75521 1.22298 5.05273 1.51074 4.39258C1.79004 3.73242 2.17513 3.1569 2.66602 2.66602C3.1569 2.17513 3.73242 1.79004 4.39258 1.51074C5.05273 1.22298 5.75521 1.0791 6.5 1.0791C7.24479 1.0791 7.94727 1.22298 8.60742 1.51074C9.26758 1.79004 9.8431 2.17513 10.334 2.66602C10.8249 3.1569 11.21 3.73242 11.4893 4.39258C11.777 5.05273 11.9209 5.75521 11.9209 6.5C11.9209 7.24479 11.777 7.94727 11.4893 8.60742C11.21 9.26758 10.8249 9.8431 10.334 10.334C9.8431 10.8249 9.26758 11.21 8.60742 11.4893C7.94727 11.777 7.24479 11.9209 6.5 11.9209ZM6.5 4.3291C6.72005 4.3291 6.91048 4.4095 7.07129 4.57031C7.2321 4.73112 7.3125 4.92155 7.3125 5.1416C7.3125 5.29395 7.3654 5.42301 7.47119 5.52881C7.57699 5.6346 7.70605 5.6875 7.8584 5.6875C8.00228 5.6875 8.12712 5.6346 8.23291 5.52881C8.3387 5.42301 8.3916 5.29395 8.3916 5.1416C8.3916 4.71842 8.26465 4.33968 8.01074 4.00537C7.75684 3.67106 7.43522 3.44466 7.0459 3.32617V2.7041C7.0459 2.56022 6.993 2.43538 6.88721 2.32959C6.78141 2.2238 6.65234 2.1709 6.5 2.1709C6.34766 2.1709 6.21859 2.2238 6.11279 2.32959C6.007 2.43538 5.9541 2.56022 5.9541 2.7041V3.32617C5.56478 3.44466 5.24316 3.67106 4.98926 4.00537C4.73535 4.33968 4.6084 4.71842 4.6084 5.1416C4.6084 5.66634 4.79248 6.11491 5.16064 6.4873C5.52881 6.8597 5.97526 7.0459 6.5 7.0459C6.72005 7.0459 6.91048 7.12419 7.07129 7.28076C7.2321 7.43734 7.3125 7.62988 7.3125 7.8584C7.3125 8.07845 7.2321 8.26888 7.07129 8.42969C6.91048 8.59049 6.72005 8.6709 6.5 8.6709C6.27995 8.6709 6.08952 8.59049 5.92871 8.42969C5.7679 8.26888 5.6875 8.07845 5.6875 7.8584C5.6875 7.70605 5.6346 7.57699 5.52881 7.47119C5.42301 7.3654 5.29395 7.3125 5.1416 7.3125C4.99772 7.3125 4.87288 7.3654 4.76709 7.47119C4.6613 7.57699 4.6084 7.70605 4.6084 7.8584C4.6084 8.28158 4.73535 8.66032 4.98926 8.99463C5.24316 9.32894 5.56478 9.55534 5.9541 9.67383V10.2959C5.9541 10.4398 6.007 10.5646 6.11279 10.6704C6.21859 10.7762 6.34766 10.8291 6.5 10.8291C6.65234 10.8291 6.78141 10.7762 6.88721 10.6704C6.993 10.5646 7.0459 10.4398 7.0459 10.2959V9.67383C7.43522 9.55534 7.75684 9.32894 8.01074 8.99463C8.26465 8.66032 8.3916 8.28158 8.3916 7.8584C8.3916 7.33366 8.20752 6.88509 7.83936 6.5127C7.47119 6.1403 7.02474 5.9541 6.5 5.9541C6.27995 5.9541 6.08952 5.87581 5.92871 5.71924C5.7679 5.56266 5.6875 5.37012 5.6875 5.1416C5.6875 4.92155 5.7679 4.73112 5.92871 4.57031C6.08952 4.4095 6.27995 4.3291 6.5 4.3291Z" fill="#999999"/>
</g>
<defs>
<clipPath id="clip0_9_11174">
<rect width="13" height="13" fill="white" transform="matrix(1 0 0 -1 0 13)"/>
</clipPath>
</defs>
</svg>
