<svg width="11" height="12" viewBox="0 0 11 12" fill="none" xmlns="http://www.w3.org/2000/svg">
<path d="M7.36914 5.33789C7.35482 5.32357 7.3387 5.30745 7.3208 5.28955C7.3029 5.27165 7.2832 5.25911 7.26172 5.25195L4.61914 2.60938C4.49023 2.48047 4.33447 2.41602 4.15186 2.41602C3.96924 2.41602 3.81348 2.48047 3.68457 2.60938C3.55566 2.73828 3.49121 2.89404 3.49121 3.07666C3.49121 3.25928 3.55566 3.41504 3.68457 3.54395L5.96191 5.81055L3.67383 8.09863C3.54492 8.22754 3.48047 8.3833 3.48047 8.56592C3.48047 8.74854 3.54492 8.9043 3.67383 9.0332C3.73828 9.09766 3.81169 9.146 3.89404 9.17822C3.9764 9.21045 4.05697 9.22656 4.13574 9.22656C4.22168 9.22656 4.30583 9.21045 4.38818 9.17822C4.47054 9.146 4.54395 9.09766 4.6084 9.0332L7.26172 6.37988C7.2832 6.36556 7.3029 6.35124 7.3208 6.33691C7.3387 6.32259 7.35482 6.30827 7.36914 6.29395C7.43359 6.22949 7.48193 6.15609 7.51416 6.07373C7.54639 5.99137 7.5625 5.90365 7.5625 5.81055C7.5625 5.72461 7.54639 5.64046 7.51416 5.55811C7.48193 5.47575 7.43359 5.40234 7.36914 5.33789Z" fill="#333333"/>
</svg>
