<svg width="14" height="14" viewBox="0 0 14 14" fill="none" xmlns="http://www.w3.org/2000/svg">
<path d="M4.79102 6.23389C4.80794 6.21696 4.82699 6.19792 4.84814 6.17676C4.8693 6.1556 4.89258 6.14079 4.91797 6.13232L8.04102 3.00928C8.19336 2.85693 8.37744 2.78076 8.59326 2.78076C8.80908 2.78076 8.99316 2.85693 9.14551 3.00928C9.29785 3.16162 9.37402 3.3457 9.37402 3.56152C9.37402 3.77734 9.29785 3.96143 9.14551 4.11377L6.4541 6.79248L9.1582 9.49658C9.31055 9.64893 9.38672 9.83301 9.38672 10.0488C9.38672 10.2646 9.31055 10.4487 9.1582 10.6011C9.08203 10.6772 8.99528 10.7344 8.89795 10.7725C8.80062 10.8105 8.7054 10.8296 8.6123 10.8296C8.51074 10.8296 8.4113 10.8105 8.31396 10.7725C8.21663 10.7344 8.12988 10.6772 8.05371 10.6011L4.91797 7.46533C4.89258 7.44841 4.8693 7.43148 4.84814 7.41455C4.82699 7.39762 4.80794 7.3807 4.79102 7.36377C4.71484 7.2876 4.65771 7.20085 4.61963 7.10352C4.58154 7.00618 4.5625 6.90251 4.5625 6.79248C4.5625 6.69092 4.58154 6.59147 4.61963 6.49414C4.65771 6.39681 4.71484 6.31006 4.79102 6.23389Z" fill="#444444"/>
</svg>
