<svg width="12" height="12" viewBox="0 0 12 12" fill="none" xmlns="http://www.w3.org/2000/svg">
<g clip-path="url(#clip0_9_1059)">
<path d="M6.13721 6.47998L11.3364 1.28076C11.3722 1.24495 11.3901 1.20378 11.3901 1.15723C11.3901 1.11068 11.3722 1.0695 11.3364 1.03369C11.3006 0.997884 11.2594 0.97998 11.2129 0.97998C11.1663 0.97998 11.1252 0.997884 11.0894 1.03369L5.89014 6.23291L0.690918 1.03369C0.655111 0.997884 0.613932 0.97998 0.567383 0.97998C0.520833 0.97998 0.479655 0.997884 0.443848 1.03369C0.40804 1.0695 0.390137 1.11068 0.390137 1.15723C0.390137 1.20378 0.40804 1.24495 0.443848 1.28076L5.64307 6.47998L0.443848 11.6792C0.40804 11.7078 0.390137 11.7472 0.390137 11.7974C0.390137 11.8475 0.40804 11.8905 0.443848 11.9263C0.472493 11.9621 0.511882 11.98 0.562012 11.98C0.612142 11.98 0.655111 11.9621 0.690918 11.9263L5.89014 6.72705L11.0894 11.9263C11.1252 11.9621 11.1663 11.9782 11.2129 11.9746C11.2594 11.971 11.3006 11.9549 11.3364 11.9263C11.3722 11.8905 11.3901 11.8475 11.3901 11.7974C11.3901 11.7472 11.3722 11.7078 11.3364 11.6792L6.13721 6.47998Z" fill="#333333"/>
</g>
<defs>
<clipPath id="clip0_9_1059">
<rect width="11" height="11" fill="white" transform="matrix(1 0 0 -1 0.390137 11.98)"/>
</clipPath>
</defs>
</svg>
