<svg width="36" height="36" viewBox="0 0 36 36" fill="none" xmlns="http://www.w3.org/2000/svg">
<g clip-path="url(#clip0_9_12266)">
<path d="M30.3047 3.14746H25.5195V1.91699C25.5195 1.52962 25.3885 1.20491 25.1265 0.942871C24.8644 0.680828 24.5397 0.549805 24.1523 0.549805C23.765 0.549805 23.4403 0.680828 23.1782 0.942871C22.9162 1.20491 22.7852 1.52962 22.7852 1.91699V3.14746H19.3672V1.91699C19.3672 1.52962 19.2362 1.20491 18.9741 0.942871C18.7121 0.680828 18.3874 0.549805 18 0.549805C17.6126 0.549805 17.2879 0.680828 17.0259 0.942871C16.7638 1.20491 16.6328 1.52962 16.6328 1.91699V3.14746H13.0098V1.91699C13.0098 1.52962 12.8787 1.20491 12.6167 0.942871C12.3547 0.680828 12.0299 0.549805 11.6426 0.549805C11.2552 0.549805 10.9305 0.680828 10.6685 0.942871C10.4064 1.20491 10.2754 1.52962 10.2754 1.91699V3.14746H5.69531C5.30794 3.14746 4.98324 3.27848 4.72119 3.54053C4.45915 3.80257 4.32812 4.12728 4.32812 4.51465V34.1826C4.32812 34.57 4.45915 34.8947 4.72119 35.1567C4.98324 35.4188 5.30794 35.5498 5.69531 35.5498H30.3047C30.6921 35.5498 31.0168 35.4188 31.2788 35.1567C31.5409 34.8947 31.6719 34.57 31.6719 34.1826V4.51465C31.6719 4.12728 31.5409 3.80257 31.2788 3.54053C31.0168 3.27848 30.6921 3.14746 30.3047 3.14746ZM28.9375 32.8154H7.0625V5.88184H10.2754V8.75293C10.2754 9.1403 10.4064 9.46501 10.6685 9.72705C10.9305 9.9891 11.2552 10.1201 11.6426 10.1201C12.0299 10.1201 12.3547 9.9891 12.6167 9.72705C12.8787 9.46501 13.0098 9.1403 13.0098 8.75293V5.88184H16.6328V8.75293C16.6328 9.1403 16.7638 9.46501 17.0259 9.72705C17.2879 9.9891 17.6126 10.1201 18 10.1201C18.3874 10.1201 18.7121 9.9891 18.9741 9.72705C19.2362 9.46501 19.3672 9.1403 19.3672 8.75293V5.88184H22.7852V8.75293C22.7852 9.1403 22.9162 9.46501 23.1782 9.72705C23.4403 9.9891 23.765 10.1201 24.1523 10.1201C24.5397 10.1201 24.8644 9.9891 25.1265 9.72705C25.3885 9.46501 25.5195 9.1403 25.5195 8.75293V5.88184H28.9375V32.8154ZM25.5195 15.3154C25.5195 15.7028 25.3885 16.0275 25.1265 16.2896C24.8644 16.5516 24.5397 16.6826 24.1523 16.6826H11.8477C11.4603 16.6826 11.1356 16.5516 10.8735 16.2896C10.6115 16.0275 10.4805 15.7028 10.4805 15.3154C10.4805 14.9281 10.6115 14.6034 10.8735 14.3413C11.1356 14.0793 11.4603 13.9482 11.8477 13.9482H24.1523C24.5397 13.9482 24.8644 14.0793 25.1265 14.3413C25.3885 14.6034 25.5195 14.9281 25.5195 15.3154ZM25.5195 20.7842C25.5195 21.1715 25.3885 21.4963 25.1265 21.7583C24.8644 22.0203 24.5397 22.1514 24.1523 22.1514H11.8477C11.4603 22.1514 11.1356 22.0203 10.8735 21.7583C10.6115 21.4963 10.4805 21.1715 10.4805 20.7842C10.4805 20.3968 10.6115 20.0721 10.8735 19.8101C11.1356 19.548 11.4603 19.417 11.8477 19.417H24.1523C24.5397 19.417 24.8644 19.548 25.1265 19.8101C25.3885 20.0721 25.5195 20.3968 25.5195 20.7842ZM25.5195 26.2529C25.5195 26.6403 25.3885 26.965 25.1265 27.2271C24.8644 27.4891 24.5397 27.6201 24.1523 27.6201H11.8477C11.4603 27.6201 11.1356 27.4891 10.8735 27.2271C10.6115 26.965 10.4805 26.6403 10.4805 26.2529C10.4805 25.8656 10.6115 25.5409 10.8735 25.2788C11.1356 25.0168 11.4603 24.8857 11.8477 24.8857H24.1523C24.5397 24.8857 24.8644 25.0168 25.1265 25.2788C25.3885 25.5409 25.5195 25.8656 25.5195 26.2529Z" fill="black"/>
</g>
<defs>
<clipPath id="clip0_9_12266">
<rect width="35" height="35" fill="white" transform="matrix(1 0 0 -1 0.5 35.5498)"/>
</clipPath>
</defs>
</svg>
