<svg width="17" height="17" viewBox="0 0 17 17" fill="none" xmlns="http://www.w3.org/2000/svg">
<g clip-path="url(#clip0_9_5248)">
<path d="M8.71997 0.299805C7.64705 0.299805 6.64185 0.50293 5.70435 0.90918C4.76685 1.31543 3.94653 1.87012 3.24341 2.57324C2.54028 3.27637 1.9856 4.09668 1.57935 5.03418C1.1731 5.97168 0.969971 6.97689 0.969971 8.0498C0.969971 9.12272 1.1731 10.1279 1.57935 11.0654C1.9856 12.0029 2.54028 12.8232 3.24341 13.5264C3.94653 14.2295 4.76685 14.7842 5.70435 15.1904C6.64185 15.5967 7.64705 15.7998 8.71997 15.7998C9.79289 15.7998 10.7981 15.5967 11.7356 15.1904C12.6731 14.7842 13.4934 14.2295 14.1965 13.5264C14.8997 12.8232 15.4543 12.0029 15.8606 11.0654C16.2668 10.1279 16.47 9.12272 16.47 8.0498C16.47 6.97689 16.2668 5.97168 15.8606 5.03418C15.4543 4.09668 14.8997 3.27637 14.1965 2.57324C13.4934 1.87012 12.6731 1.31543 11.7356 0.90918C10.7981 0.50293 9.79289 0.299805 8.71997 0.299805ZM8.71997 14.2998C7.85539 14.2998 7.04289 14.1383 6.28247 13.8154C5.52205 13.4821 4.8606 13.0342 4.2981 12.4717C3.7356 11.9092 3.28768 11.2477 2.95435 10.4873C2.63143 9.72689 2.46997 8.91439 2.46997 8.0498C2.46997 7.18522 2.63143 6.37272 2.95435 5.6123C3.28768 4.85189 3.7356 4.19043 4.2981 3.62793C4.8606 3.06543 5.52205 2.61751 6.28247 2.28418C7.04289 1.96126 7.85539 1.7998 8.71997 1.7998C9.58455 1.7998 10.3971 1.96126 11.1575 2.28418C11.9179 2.61751 12.5793 3.06543 13.1418 3.62793C13.7043 4.19043 14.1523 4.85189 14.4856 5.6123C14.8085 6.37272 14.97 7.18522 14.97 8.0498C14.97 8.91439 14.8085 9.72689 14.4856 10.4873C14.1523 11.2477 13.7043 11.9092 13.1418 12.4717C12.5793 13.0342 11.9179 13.4821 11.1575 13.8154C10.3971 14.1383 9.58455 14.2998 8.71997 14.2998ZM10.6575 11.0342L8.00122 9.1123C7.94914 9.07064 7.91007 9.02376 7.88403 8.97168C7.85799 8.9196 7.84497 8.8623 7.84497 8.7998V3.6748C7.84497 3.57064 7.88143 3.4821 7.95435 3.40918C8.02726 3.33626 8.1158 3.2998 8.21997 3.2998H9.21997C9.32414 3.2998 9.41268 3.33626 9.4856 3.40918C9.55851 3.4821 9.59497 3.57064 9.59497 3.6748V8.09668L11.6887 9.62793C11.7721 9.68001 11.8215 9.75814 11.8372 9.8623C11.8528 9.96647 11.8293 10.0602 11.7668 10.1436L11.1731 10.9561C11.1106 11.0394 11.0299 11.0889 10.9309 11.1045C10.832 11.1201 10.7408 11.0967 10.6575 11.0342Z" fill="#444444"/>
</g>
<defs>
<clipPath id="clip0_9_5248">
<rect width="16" height="16" fill="white" transform="matrix(1 0 0 -1 0.719971 16.0498)"/>
</clipPath>
</defs>
</svg>
