<svg width="14" height="14" viewBox="0 0 14 14" fill="none" xmlns="http://www.w3.org/2000/svg">
<g clip-path="url(#clip0_9_5132)">
<path d="M7.03003 13.1787C7.92716 13.1787 8.76929 13.0094 9.5564 12.6709C10.3435 12.3239 11.0312 11.8563 11.6194 11.2681C12.2076 10.6799 12.6752 9.99219 13.0222 9.20508C13.3608 8.41797 13.53 7.57585 13.53 6.67871C13.53 5.78158 13.3608 4.93945 13.0222 4.15234C12.6752 3.36523 12.2076 2.67757 11.6194 2.08936C11.0312 1.50114 10.3435 1.03353 9.5564 0.686523C8.76929 0.347982 7.92716 0.178711 7.03003 0.178711C6.13289 0.178711 5.29077 0.347982 4.50366 0.686523C3.71655 1.03353 3.02889 1.50114 2.44067 2.08936C1.85246 2.67757 1.38485 3.36523 1.03784 4.15234C0.6993 4.93945 0.530029 5.78158 0.530029 6.67871C0.530029 7.57585 0.6993 8.41797 1.03784 9.20508C1.38485 9.99219 1.85246 10.6799 2.44067 11.2681C3.02889 11.8563 3.71655 12.3239 4.50366 12.6709C5.29077 13.0094 6.13289 13.1787 7.03003 13.1787ZM7.03003 1.25781C7.77482 1.25781 8.47729 1.40169 9.13745 1.68945C9.79761 1.96875 10.3731 2.35384 10.864 2.84473C11.3549 3.33561 11.74 3.91113 12.0193 4.57129C12.307 5.23145 12.4509 5.93392 12.4509 6.67871C12.4509 7.4235 12.307 8.12598 12.0193 8.78613C11.74 9.44629 11.3549 10.0218 10.864 10.5127C10.3731 11.0036 9.79761 11.3887 9.13745 11.668C8.47729 11.9557 7.77482 12.0996 7.03003 12.0996C6.28524 12.0996 5.58276 11.9557 4.92261 11.668C4.26245 11.3887 3.68693 11.0036 3.19604 10.5127C2.70516 10.0218 2.32007 9.44629 2.04077 8.78613C1.75301 8.12598 1.60913 7.4235 1.60913 6.67871C1.60913 5.93392 1.75301 5.23145 2.04077 4.57129C2.32007 3.91113 2.70516 3.33561 3.19604 2.84473C3.68693 2.35384 4.26245 1.96875 4.92261 1.68945C5.58276 1.40169 6.28524 1.25781 7.03003 1.25781ZM7.03003 8.84961C6.80998 8.84961 6.61955 8.76921 6.45874 8.6084C6.29793 8.44759 6.21753 8.25716 6.21753 8.03711C6.21753 7.88477 6.16463 7.7557 6.05884 7.6499C5.95304 7.54411 5.82397 7.49121 5.67163 7.49121C5.52775 7.49121 5.40291 7.54411 5.29712 7.6499C5.19133 7.7557 5.13843 7.88477 5.13843 8.03711C5.13843 8.46029 5.26538 8.83903 5.51929 9.17334C5.77319 9.50765 6.09481 9.73405 6.48413 9.85254V10.4746C6.48413 10.6185 6.53703 10.7433 6.64282 10.8491C6.74862 10.9549 6.87769 11.0078 7.03003 11.0078C7.18237 11.0078 7.31144 10.9549 7.41724 10.8491C7.52303 10.7433 7.57593 10.6185 7.57593 10.4746V9.85254C7.96525 9.73405 8.28687 9.50765 8.54077 9.17334C8.79468 8.83903 8.92163 8.46029 8.92163 8.03711C8.92163 7.51237 8.73755 7.0638 8.36938 6.69141C8.00122 6.31901 7.55477 6.13281 7.03003 6.13281C6.80998 6.13281 6.61955 6.05452 6.45874 5.89795C6.29793 5.74137 6.21753 5.54883 6.21753 5.32031C6.21753 5.10026 6.29793 4.90983 6.45874 4.74902C6.61955 4.58822 6.80998 4.50781 7.03003 4.50781C7.25008 4.50781 7.44051 4.58822 7.60132 4.74902C7.76213 4.90983 7.84253 5.10026 7.84253 5.32031C7.84253 5.47266 7.89543 5.60173 8.00122 5.70752C8.10702 5.81331 8.23608 5.86621 8.38843 5.86621C8.53231 5.86621 8.65715 5.81331 8.76294 5.70752C8.86873 5.60173 8.92163 5.47266 8.92163 5.32031C8.92163 4.89714 8.79468 4.51839 8.54077 4.18408C8.28687 3.84977 7.96525 3.62337 7.57593 3.50488V2.88281C7.57593 2.73893 7.52303 2.61409 7.41724 2.5083C7.31144 2.40251 7.18237 2.34961 7.03003 2.34961C6.87769 2.34961 6.74862 2.40251 6.64282 2.5083C6.53703 2.61409 6.48413 2.73893 6.48413 2.88281V3.50488C6.09481 3.62337 5.77319 3.84977 5.51929 4.18408C5.26538 4.51839 5.13843 4.89714 5.13843 5.32031C5.13843 5.84505 5.32251 6.29362 5.69067 6.66602C6.05884 7.03841 6.50529 7.22461 7.03003 7.22461C7.25008 7.22461 7.44051 7.3029 7.60132 7.45947C7.76213 7.61605 7.84253 7.80859 7.84253 8.03711C7.84253 8.25716 7.76213 8.44759 7.60132 8.6084C7.44051 8.76921 7.25008 8.84961 7.03003 8.84961Z" fill="#999999"/>
</g>
<defs>
<clipPath id="clip0_9_5132">
<rect width="13" height="13" fill="white" transform="matrix(-1 0 0 1 13.53 0.178711)"/>
</clipPath>
</defs>
</svg>
