<svg width="14" height="14" viewBox="0 0 14 14" fill="none" xmlns="http://www.w3.org/2000/svg">
<g clip-path="url(#clip0_3_1960)">
<path d="M3.36572 0.255371C3.31494 0.263835 3.27051 0.278646 3.23242 0.299805C3.19434 0.320964 3.15837 0.34847 3.12451 0.382324C3.09912 0.407715 2.9891 0.551595 2.79443 0.813965C2.59131 1.07633 2.37337 1.36198 2.14062 1.6709C1.90788 1.97982 1.69417 2.26546 1.49951 2.52783C1.31331 2.7902 1.21175 2.93408 1.19482 2.95947L1.15674 3.04834V7.26318C1.15674 8.82894 1.15674 9.93555 1.15674 10.583C1.15674 11.2305 1.16097 11.5838 1.16943 11.6431C1.18636 11.8462 1.23926 12.0387 1.32812 12.2207C1.41699 12.4027 1.53337 12.5656 1.67725 12.7095C1.8042 12.8364 1.93962 12.938 2.0835 13.0142C2.22738 13.0903 2.39665 13.1496 2.59131 13.1919C2.64209 13.2088 2.88753 13.2194 3.32764 13.2236C3.76774 13.2279 4.98226 13.23 6.97119 13.23C7.72445 13.23 8.37614 13.23 8.92627 13.23C9.46794 13.23 9.91862 13.23 10.2783 13.23C10.638 13.23 10.9067 13.2257 11.0845 13.2173C11.2622 13.2173 11.368 13.2173 11.4019 13.2173C11.4357 13.2088 11.4823 13.1982 11.5415 13.1855C11.6007 13.1729 11.6515 13.1623 11.6938 13.1538C12.0493 13.0438 12.3392 12.8534 12.5635 12.5825C12.7878 12.3117 12.9168 11.9901 12.9507 11.6177C12.9591 11.5923 12.9634 11.4865 12.9634 11.3003C12.9634 11.1226 12.9634 10.856 12.9634 10.5005C12.9634 10.145 12.9634 9.69645 12.9634 9.15479C12.9634 8.62158 12.9634 7.98682 12.9634 7.25049V3.04834L12.9126 2.94678C12.8957 2.92139 12.7983 2.78597 12.6206 2.54053C12.4429 2.29508 12.2186 1.9904 11.9478 1.62646C11.4653 0.991699 11.1755 0.615071 11.0781 0.496582C10.9808 0.378093 10.894 0.301921 10.8179 0.268066C10.784 0.25114 10.6042 0.242676 10.2783 0.242676C9.95247 0.242676 8.88818 0.238444 7.08545 0.22998C5.64665 0.22998 4.67334 0.232097 4.16553 0.236328C3.65771 0.24056 3.39111 0.246907 3.36572 0.255371ZM10.7544 2.00732L11.1987 2.59131H2.92139L2.95947 2.54053C2.9764 2.5236 3.02718 2.45801 3.11182 2.34375C3.19645 2.22949 3.29378 2.09619 3.40381 1.94385L3.79736 1.41064H10.3101L10.7544 2.00732ZM11.7827 7.65674C11.7827 9.59489 11.7827 10.7311 11.7827 11.0654C11.7827 11.3997 11.7743 11.5923 11.7573 11.6431C11.7404 11.7023 11.7108 11.7573 11.6685 11.8081C11.6261 11.8589 11.5754 11.9054 11.5161 11.9478C11.4399 11.9985 11.2622 12.0282 10.9829 12.0366C10.7036 12.0451 9.396 12.0493 7.06006 12.0493C4.74105 12.0493 3.43978 12.0451 3.15625 12.0366C2.87272 12.0282 2.68864 11.9985 2.604 11.9478C2.54476 11.9054 2.49398 11.8589 2.45166 11.8081C2.40934 11.7573 2.37549 11.6938 2.3501 11.6177C2.34163 11.5838 2.3374 11.3553 2.3374 10.9321C2.3374 10.509 2.3374 9.41716 2.3374 7.65674V3.77197H11.7827V7.65674ZM4.58447 4.97803C4.52523 4.98649 4.47021 5.00553 4.41943 5.03516C4.36865 5.06478 4.3221 5.10075 4.27979 5.14307C4.20361 5.21924 4.15495 5.30387 4.13379 5.39697C4.11263 5.49007 4.10628 5.61702 4.11475 5.77783C4.1486 6.12484 4.23112 6.44857 4.3623 6.74902C4.49349 7.04948 4.67757 7.32243 4.91455 7.56787C5.31234 7.99105 5.79264 8.27246 6.35547 8.41211C6.91829 8.55176 7.47054 8.52848 8.01221 8.34229C8.48617 8.17301 8.89242 7.90641 9.23096 7.54248C9.5695 7.17855 9.79801 6.75537 9.9165 6.27295C9.95036 6.13753 9.97575 5.9873 9.99268 5.82227C10.0096 5.65723 10.0138 5.53662 10.0054 5.46045C9.97998 5.3335 9.92497 5.22559 9.84033 5.13672C9.7557 5.04785 9.64567 4.99072 9.51025 4.96533C9.42562 4.94841 9.33675 4.95687 9.24365 4.99072C9.15055 5.02458 9.07015 5.07536 9.00244 5.14307C8.95166 5.19385 8.91569 5.24674 8.89453 5.30176C8.87337 5.35677 8.85856 5.42236 8.8501 5.49854C8.82471 5.71859 8.79932 5.88363 8.77393 5.99365C8.74854 6.10368 8.71045 6.2137 8.65967 6.32373C8.60889 6.41683 8.55811 6.49935 8.50732 6.57129C8.45654 6.64323 8.38883 6.71729 8.3042 6.79346C8.18571 6.91195 8.06299 7.00928 7.93604 7.08545C7.80908 7.16162 7.66097 7.22087 7.4917 7.26318C7.41553 7.28857 7.35417 7.30339 7.30762 7.30762C7.26107 7.31185 7.18278 7.31396 7.07275 7.31396C6.96273 7.31396 6.88444 7.31185 6.83789 7.30762C6.79134 7.30339 6.73844 7.29281 6.6792 7.27588C6.5861 7.25895 6.50781 7.23779 6.44434 7.2124C6.38086 7.18701 6.31104 7.15316 6.23486 7.11084C5.99788 6.98389 5.80111 6.81673 5.64453 6.60938C5.48796 6.40202 5.38005 6.16715 5.3208 5.90479C5.31234 5.87093 5.30599 5.8265 5.30176 5.77148C5.29753 5.71647 5.29118 5.65934 5.28271 5.6001C5.27425 5.49007 5.26156 5.40544 5.24463 5.34619C5.2277 5.28695 5.19808 5.23193 5.15576 5.18115C5.12191 5.13883 5.08382 5.10286 5.0415 5.07324C4.99919 5.04362 4.95264 5.02034 4.90186 5.00342C4.85954 4.98649 4.80664 4.9738 4.74316 4.96533C4.67969 4.95687 4.62679 4.9611 4.58447 4.97803Z" fill="#444444"/>
</g>
<defs>
<clipPath id="clip0_3_1960">
<rect width="13" height="13" fill="white" transform="matrix(1 0 0 -1 0.560059 13.23)"/>
</clipPath>
</defs>
</svg>
