<svg width="9" height="8" viewBox="0 0 9 8" fill="none" xmlns="http://www.w3.org/2000/svg">
<g clip-path="url(#clip0_25_1729)">
<path d="M7.9293 3.2584H5.10195V0.438574C5.10195 0.323275 5.0606 0.223014 4.97788 0.137793C4.89517 0.0525718 4.79616 0.00996113 4.68086 0.00996113H4.31992C4.20462 0.00996113 4.10562 0.0525718 4.0229 0.137793C3.94019 0.223014 3.89883 0.323275 3.89883 0.438574V3.2584H1.07148C0.956185 3.2584 0.857178 3.29976 0.774463 3.38247C0.691748 3.46519 0.650391 3.56419 0.650391 3.67949V4.04043C0.650391 4.15573 0.691748 4.25474 0.774463 4.33745C0.857178 4.42017 0.956185 4.46152 1.07148 4.46152H3.89883V7.29639C3.89883 7.41169 3.94019 7.50944 4.0229 7.58965C4.10562 7.66986 4.20462 7.70996 4.31992 7.70996H4.68086C4.79616 7.70996 4.89517 7.66986 4.97788 7.58965C5.0606 7.50944 5.10195 7.41169 5.10195 7.29639V4.46152H7.9293C8.0446 4.46152 8.1436 4.42017 8.22632 4.33745C8.30903 4.25474 8.35039 4.15573 8.35039 4.04043V3.67949C8.35039 3.56419 8.30903 3.46519 8.22632 3.38247C8.1436 3.29976 8.0446 3.2584 7.9293 3.2584Z" fill="#E2E2E2"/>
</g>
<defs>
<clipPath id="clip0_25_1729">
<rect width="7.7" height="7.7" fill="white" transform="matrix(1 0 0 -1 0.650391 7.70996)"/>
</clipPath>
</defs>
</svg>
