<svg width="15" height="15" viewBox="0 0 15 15" fill="none" xmlns="http://www.w3.org/2000/svg">
<path d="M5.12109 7.03174C5.13932 7.01351 5.15983 6.993 5.18262 6.97021C5.2054 6.94743 5.23047 6.93148 5.25781 6.92236L8.62109 3.55908C8.78516 3.39502 8.9834 3.31299 9.21582 3.31299C9.44824 3.31299 9.64648 3.39502 9.81055 3.55908C9.97461 3.72314 10.0566 3.92139 10.0566 4.15381C10.0566 4.38623 9.97461 4.58447 9.81055 4.74854L6.91211 7.6333L9.82422 10.5454C9.98828 10.7095 10.0703 10.9077 10.0703 11.1401C10.0703 11.3726 9.98828 11.5708 9.82422 11.7349C9.74219 11.8169 9.64876 11.8784 9.54395 11.9194C9.43913 11.9604 9.33659 11.981 9.23633 11.981C9.12695 11.981 9.01986 11.9604 8.91504 11.9194C8.81022 11.8784 8.7168 11.8169 8.63477 11.7349L5.25781 8.35791C5.23047 8.33968 5.2054 8.32145 5.18262 8.30322C5.15983 8.28499 5.13932 8.26676 5.12109 8.24854C5.03906 8.1665 4.97754 8.07308 4.93652 7.96826C4.89551 7.86344 4.875 7.75179 4.875 7.6333C4.875 7.52393 4.89551 7.41683 4.93652 7.31201C4.97754 7.20719 5.03906 7.11377 5.12109 7.03174Z" fill="#444444"/>
</svg>
