<svg width="13" height="14" viewBox="0 0 13 14" fill="none" xmlns="http://www.w3.org/2000/svg">
<g clip-path="url(#clip0_38_94)">
<path d="M6.08126 0.255486C5.52267 0.297804 4.981 0.405714 4.45626 0.579216C3.93152 0.752719 3.43217 0.991814 2.95821 1.2965C2.79741 1.40653 2.65353 1.51232 2.52657 1.61388C2.39962 1.71545 2.25574 1.83817 2.09493 1.98205C1.66329 2.37137 1.29301 2.81782 0.984092 3.3214C0.675173 3.82498 0.436078 4.36877 0.266807 4.95275C0.156781 5.33361 0.0827251 5.73563 0.0446392 6.15881C0.00655325 6.58198 0.00866913 6.9967 0.0509868 7.40295C0.101768 7.88537 0.203331 8.35086 0.355674 8.79943C0.508018 9.248 0.704795 9.67329 0.946006 10.0753C1.18722 10.4773 1.47286 10.8518 1.80294 11.1988C2.13302 11.5459 2.49695 11.8505 2.89474 12.1129C3.0894 12.2483 3.27983 12.3647 3.46603 12.462C3.65222 12.5594 3.85112 12.6503 4.06271 12.735C4.44357 12.8873 4.83289 13.0058 5.23067 13.0904C5.62846 13.1666 6.02836 13.2068 6.43038 13.2111C6.8324 13.2153 7.2323 13.1835 7.63009 13.1158C8.03634 13.0481 8.42566 12.9423 8.79806 12.7985C9.2297 12.6292 9.63595 12.4218 10.0168 12.1764C10.3977 11.9225 10.7489 11.6389 11.0705 11.3258C11.3921 11.0126 11.6757 10.6656 11.9211 10.2848C12.1665 9.90392 12.3739 9.50191 12.5432 9.07873C12.6278 8.85021 12.6997 8.6217 12.759 8.39318C12.8182 8.16467 12.869 7.91922 12.9113 7.65685C12.9537 7.42834 12.9769 7.14904 12.9812 6.81896C12.9854 6.48888 12.9706 6.19266 12.9367 5.93029C12.8606 5.32938 12.704 4.75174 12.467 4.19738C12.23 3.64302 11.9296 3.13732 11.5656 2.68029C11.3033 2.35868 11.0155 2.06245 10.7024 1.79162C10.3892 1.52925 10.057 1.29862 9.70577 1.09972C9.35454 0.900831 8.98849 0.733676 8.60763 0.598259C8.2183 0.462843 7.82052 0.369743 7.41427 0.318962C7.19422 0.285109 6.97205 0.263949 6.74776 0.255486C6.52348 0.247023 6.30131 0.247023 6.08126 0.255486ZM6.91915 1.43615C7.25769 1.46154 7.58989 1.52079 7.91573 1.61388C8.24158 1.70698 8.56108 1.8297 8.87423 1.98205C9.28894 2.19364 9.66769 2.45177 10.0105 2.75646C10.3532 3.06115 10.66 3.41239 10.9309 3.81017C11.1171 4.08947 11.2779 4.39204 11.4133 4.71789C11.5487 5.04373 11.646 5.37593 11.7053 5.71447C11.7476 5.90067 11.773 6.05936 11.7815 6.19054C11.7899 6.32173 11.7942 6.50158 11.7942 6.7301C11.7942 6.95861 11.7899 7.13423 11.7815 7.25695C11.773 7.37967 11.7518 7.53413 11.718 7.72033C11.6418 8.13504 11.5106 8.54341 11.3244 8.94543C11.1382 9.34745 10.9139 9.71349 10.6516 10.0436L10.55 10.1578L10.3088 9.91662C10.1395 9.74735 9.97661 9.60347 9.82003 9.48498C9.66345 9.36649 9.49207 9.25646 9.30587 9.1549C9.23816 9.11258 9.14718 9.06392 9.03292 9.0089C8.91866 8.95389 8.83614 8.91792 8.78536 8.90099L8.73458 8.8883L8.82345 8.81213C8.88269 8.76135 8.95463 8.69152 9.03927 8.60265C9.1239 8.51379 9.19584 8.43127 9.25509 8.3551C9.509 8.03348 9.70366 7.68648 9.83907 7.31408C9.96603 6.93322 10.0316 6.55024 10.0359 6.16515C10.0401 5.78006 9.97872 5.39709 9.85177 5.01623C9.72482 4.63537 9.53439 4.28413 9.28048 3.96252C9.00118 3.60705 8.66264 3.31294 8.26485 3.08019C7.86707 2.84745 7.43966 2.70145 6.98263 2.6422C6.84721 2.61681 6.68006 2.60623 6.48116 2.61047C6.28227 2.6147 6.11511 2.62528 5.9797 2.6422C5.78504 2.67606 5.59672 2.72261 5.41476 2.78185C5.23279 2.8411 5.05294 2.91727 4.87521 3.01037C4.36739 3.27274 3.94845 3.63455 3.61837 4.09582C3.28829 4.55708 3.08093 5.07547 2.9963 5.65099C2.97937 5.76948 2.97091 5.93241 2.97091 6.13976C2.97091 6.34712 2.97937 6.51004 2.9963 6.62853C3.03015 6.82319 3.07459 7.00939 3.1296 7.18713C3.18461 7.36486 3.25444 7.53836 3.33907 7.70763C3.44064 7.91076 3.55489 8.09907 3.68185 8.27258C3.8088 8.44608 3.94845 8.60054 4.10079 8.73595C4.14311 8.76981 4.17696 8.80155 4.20235 8.83117C4.22775 8.86079 4.24044 8.8756 4.24044 8.8756C4.24044 8.8756 4.22563 8.88407 4.19601 8.90099C4.16638 8.91792 4.13041 8.93485 4.0881 8.95178C3.81726 9.07026 3.57182 9.20568 3.35177 9.35803C3.13172 9.51037 2.91166 9.69657 2.69161 9.91662L2.4504 10.1578L2.34884 10.0309C2.04415 9.65002 1.79871 9.2353 1.61251 8.78674C1.42631 8.33817 1.29936 7.86421 1.23165 7.36486C1.21472 7.22098 1.20626 7.00728 1.20626 6.72375C1.20626 6.44022 1.21472 6.23075 1.23165 6.09533C1.26551 5.83296 1.31205 5.59175 1.3713 5.3717C1.43054 5.15164 1.50672 4.93159 1.59981 4.71154C1.75216 4.33068 1.94682 3.97521 2.1838 3.64513C2.42078 3.31506 2.6895 3.01672 2.98995 2.75011C3.29041 2.48351 3.61837 2.25288 3.97384 2.05822C4.33777 1.86356 4.7144 1.71545 5.10372 1.61388C5.25607 1.57157 5.42957 1.53348 5.62423 1.49963C5.81889 1.46577 5.98816 1.44461 6.13204 1.43615C6.2336 1.42769 6.36691 1.42345 6.53194 1.42345C6.69698 1.42345 6.82605 1.42769 6.91915 1.43615ZM6.81759 3.81017C7.0715 3.84403 7.31059 3.91597 7.53487 4.02599C7.75916 4.13602 7.9644 4.2799 8.1506 4.45763C8.39604 4.69461 8.578 4.96545 8.6965 5.27013C8.81498 5.57482 8.86577 5.89644 8.84884 6.23498C8.84037 6.5312 8.77901 6.8105 8.66476 7.07287C8.5505 7.33524 8.38758 7.57645 8.17599 7.7965C7.97286 7.99963 7.74858 8.16043 7.50314 8.27892C7.25769 8.39741 6.98686 8.46512 6.69064 8.48205C6.06433 8.54129 5.50786 8.37414 5.0212 7.98058C4.53455 7.58703 4.2489 7.0771 4.16427 6.4508C4.11349 6.0784 4.14734 5.72082 4.26583 5.37804C4.38432 5.03527 4.57898 4.72847 4.84982 4.45763C5.11219 4.20373 5.41476 4.01965 5.75753 3.90539C6.1003 3.79113 6.45366 3.75939 6.81759 3.81017ZM6.95724 9.6881C7.50737 9.73042 7.99191 9.84256 8.41085 10.0245C8.8298 10.2065 9.20008 10.4625 9.52169 10.7926C9.5894 10.8688 9.63172 10.9174 9.64864 10.9386C9.66557 10.9598 9.6698 10.9746 9.66134 10.983C9.64441 11.0084 9.54708 11.0761 9.36935 11.1862C9.19161 11.2962 9.0435 11.3808 8.92501 11.4401C8.51876 11.6516 8.10405 11.8061 7.68087 11.9034C7.25769 12.0008 6.82182 12.0452 6.37325 12.0367C6.02625 12.0198 5.69829 11.9796 5.38937 11.9161C5.08045 11.8527 4.76941 11.7574 4.45626 11.6305C4.30392 11.5628 4.11983 11.4697 3.90401 11.3512C3.68819 11.2327 3.51681 11.1269 3.38985 11.0338L3.31368 10.9703L3.42794 10.8561C3.72416 10.5175 4.09233 10.2509 4.53243 10.0563C4.97254 9.86161 5.46342 9.74312 6.00509 9.7008C6.12358 9.68387 6.28227 9.67541 6.48116 9.67541C6.68006 9.67541 6.83875 9.67964 6.95724 9.6881Z" fill="#444444"/>
</g>
<defs>
<clipPath id="clip0_38_94">
<rect width="13" height="13" fill="white" transform="matrix(1 0 0 -1 0 13.23)"/>
</clipPath>
</defs>
</svg>
