<svg width="14" height="15" viewBox="0 0 14 15" fill="none" xmlns="http://www.w3.org/2000/svg">
<g clip-path="url(#clip0_9_12317)">
<path d="M7 0.540039C6.03385 0.540039 5.12695 0.722331 4.2793 1.08691C3.43164 1.46061 2.69108 1.96419 2.05762 2.59766C1.42415 3.23112 0.920573 3.97168 0.546875 4.81934C0.182292 5.66699 0 6.57389 0 7.54004C0 8.50619 0.182292 9.41309 0.546875 10.2607C0.920573 11.1084 1.42415 11.849 2.05762 12.4824C2.69108 13.1159 3.43164 13.6195 4.2793 13.9932C5.12695 14.3577 6.03385 14.54 7 14.54C7.96615 14.54 8.87305 14.3577 9.7207 13.9932C10.5684 13.6195 11.3089 13.1159 11.9424 12.4824C12.5758 11.849 13.0794 11.1084 13.4531 10.2607C13.8177 9.41309 14 8.50619 14 7.54004C14 6.57389 13.8177 5.66699 13.4531 4.81934C13.0794 3.97168 12.5758 3.23112 11.9424 2.59766C11.3089 1.96419 10.5684 1.46061 9.7207 1.08691C8.87305 0.722331 7.96615 0.540039 7 0.540039ZM7 13.2686C6.20703 13.2686 5.46419 13.1182 4.77148 12.8174C4.07878 12.5166 3.47266 12.1064 2.95312 11.5869C2.43359 11.0674 2.02344 10.4613 1.72266 9.76855C1.42188 9.07585 1.27148 8.33301 1.27148 7.54004C1.27148 6.74707 1.42188 6.00423 1.72266 5.31152C2.02344 4.61882 2.43359 4.0127 2.95312 3.49316C3.47266 2.97363 4.07878 2.56348 4.77148 2.2627C5.46419 1.96191 6.20703 1.81152 7 1.81152C7.79297 1.81152 8.53581 1.96191 9.22852 2.2627C9.92122 2.56348 10.5273 2.97363 11.0469 3.49316C11.5664 4.0127 11.9766 4.61882 12.2773 5.31152C12.5781 6.00423 12.7285 6.74707 12.7285 7.54004C12.7285 8.33301 12.5781 9.07585 12.2773 9.76855C11.9766 10.4613 11.5664 11.0674 11.0469 11.5869C10.5273 12.1064 9.92122 12.5166 9.22852 12.8174C8.53581 13.1182 7.79297 13.2686 7 13.2686ZM7 3.50684C6.76302 3.50684 6.5625 3.59115 6.39844 3.75977C6.23438 3.92839 6.15234 4.12663 6.15234 4.35449C6.15234 4.59147 6.23438 4.79199 6.39844 4.95605C6.5625 5.12012 6.76302 5.20215 7 5.20215C7.23698 5.20215 7.4375 5.12012 7.60156 4.95605C7.76562 4.79199 7.84766 4.59147 7.84766 4.35449C7.84766 4.12663 7.76562 3.92839 7.60156 3.75977C7.4375 3.59115 7.23698 3.50684 7 3.50684ZM7 6.47363C6.82682 6.47363 6.67643 6.53743 6.54883 6.66504C6.42122 6.79264 6.35742 6.94303 6.35742 7.11621V10.9307C6.35742 11.113 6.42122 11.2656 6.54883 11.3887C6.67643 11.5117 6.82682 11.5732 7 11.5732C7.17318 11.5732 7.32357 11.5117 7.45117 11.3887C7.57878 11.2656 7.64258 11.113 7.64258 10.9307V7.11621C7.64258 6.94303 7.57878 6.79264 7.45117 6.66504C7.32357 6.53743 7.17318 6.47363 7 6.47363Z" fill="#444444"/>
</g>
<defs>
<clipPath id="clip0_9_12317">
<rect width="14" height="14" fill="white" transform="matrix(1 0 0 -1 0 14.54)"/>
</clipPath>
</defs>
</svg>
