<svg width="45" height="45" viewBox="0 0 45 45" fill="none" xmlns="http://www.w3.org/2000/svg">
<g clip-path="url(#clip0_25_1738)">
<path d="M17.3438 37.2358H14.7656C14.4219 37.2358 14.1211 37.3647 13.8633 37.6226C13.6055 37.8804 13.4766 38.1812 13.4766 38.5249C13.4766 38.8687 13.6055 39.1694 13.8633 39.4272C14.1211 39.6851 14.4219 39.814 14.7656 39.814H17.3438C17.6875 39.814 17.9883 39.6851 18.2461 39.4272C18.5039 39.1694 18.6328 38.8687 18.6328 38.5249C18.6328 38.1812 18.5039 37.8804 18.2461 37.6226C17.9883 37.3647 17.6875 37.2358 17.3438 37.2358ZM25.1211 19.103H27.6992C28.043 19.103 28.3438 18.9741 28.6016 18.7163C28.8594 18.4585 28.9883 18.1577 28.9883 17.814C28.9883 17.4702 28.8594 17.1694 28.6016 16.9116C28.3438 16.6538 28.043 16.5249 27.6992 16.5249H25.1211C24.7773 16.5249 24.4766 16.6538 24.2188 16.9116C23.9609 17.1694 23.832 17.4702 23.832 17.814C23.832 18.1577 23.9609 18.4585 24.2188 18.7163C24.4766 18.9741 24.7773 19.103 25.1211 19.103ZM43.2109 21.6812H34.1445V2.25928C34.1445 1.91553 34.0156 1.61475 33.7578 1.35693C33.5 1.09912 33.1992 0.970215 32.8555 0.970215H12.1445C11.8008 0.970215 11.5 1.09912 11.2422 1.35693C10.9844 1.61475 10.8555 1.91553 10.8555 2.25928V21.6812H1.78906C1.44531 21.6812 1.14453 21.8101 0.886719 22.0679C0.628906 22.3257 0.5 22.6265 0.5 22.9702V43.6812C0.5 44.0249 0.628906 44.3257 0.886719 44.5835C1.14453 44.8413 1.44531 44.9702 1.78906 44.9702H43.2109C43.5547 44.9702 43.8555 44.8413 44.1133 44.5835C44.3711 44.3257 44.5 44.0249 44.5 43.6812V22.9702C44.5 22.6265 44.3711 22.3257 44.1133 22.0679C43.8555 21.8101 43.5547 21.6812 43.2109 21.6812ZM31.3516 24.2593H34.3594V29.4155H31.3516V24.2593ZM20.9961 3.54834H24.0039V8.70459H20.9961V3.54834ZM13.4336 3.54834H18.418V9.99365C18.418 10.3374 18.5469 10.6382 18.8047 10.896C19.0625 11.1538 19.3633 11.2827 19.707 11.2827H25.293C25.6367 11.2827 25.9375 11.1538 26.1953 10.896C26.4531 10.6382 26.582 10.3374 26.582 9.99365V3.54834H31.5664V21.6812H13.4336V3.54834ZM10.6406 24.2593H13.6484V29.4155H10.6406V24.2593ZM3.07812 24.2593H8.0625V30.7046C8.0625 31.0483 8.19141 31.3491 8.44922 31.6069C8.70703 31.8647 9.00781 31.9937 9.35156 31.9937H14.9375C15.2812 31.9937 15.582 31.8647 15.8398 31.6069C16.0977 31.3491 16.2266 31.0483 16.2266 30.7046V24.2593H21.2109V42.3921H3.07812V24.2593ZM41.9219 42.3921H23.7891V24.2593H28.7734V30.7046C28.7734 31.0483 28.9023 31.3491 29.1602 31.6069C29.418 31.8647 29.7188 31.9937 30.0625 31.9937H35.6484C35.9922 31.9937 36.293 31.8647 36.5508 31.6069C36.8086 31.3491 36.9375 31.0483 36.9375 30.7046V24.2593H41.9219V42.3921ZM35.4766 37.2358C35.1328 37.2358 34.832 37.3647 34.5742 37.6226C34.3164 37.8804 34.1875 38.1812 34.1875 38.5249C34.1875 38.8687 34.3164 39.1694 34.5742 39.4272C34.832 39.6851 35.1328 39.814 35.4766 39.814H38.0547C38.3984 39.814 38.6992 39.6851 38.957 39.4272C39.2148 39.1694 39.3438 38.8687 39.3438 38.5249C39.3438 38.1812 39.2148 37.8804 38.957 37.6226C38.6992 37.3647 38.3984 37.2358 38.0547 37.2358H35.4766Z" fill="black"/>
</g>
<defs>
<clipPath id="clip0_25_1738">
<rect width="44" height="44" fill="white" transform="matrix(1 0 0 -1 0.5 44.9702)"/>
</clipPath>
</defs>
</svg>
