<svg width="12" height="12" viewBox="0 0 12 12" fill="none" xmlns="http://www.w3.org/2000/svg">
<path d="M7.89917 5.14746C7.88485 5.13314 7.86873 5.11702 7.85083 5.09912C7.83293 5.08122 7.81323 5.06868 7.79175 5.06152L5.14917 2.41895C5.02026 2.29004 4.8645 2.22559 4.68188 2.22559C4.49927 2.22559 4.34351 2.29004 4.2146 2.41895C4.08569 2.54785 4.02124 2.70361 4.02124 2.88623C4.02124 3.06885 4.08569 3.22461 4.2146 3.35352L6.49194 5.62012L4.20386 7.9082C4.07495 8.03711 4.0105 8.19287 4.0105 8.37549C4.0105 8.55811 4.07495 8.71387 4.20386 8.84277C4.26831 8.90723 4.34172 8.95557 4.42407 8.98779C4.50643 9.02002 4.587 9.03613 4.66577 9.03613C4.75171 9.03613 4.83586 9.02002 4.91821 8.98779C5.00057 8.95557 5.07397 8.90723 5.13843 8.84277L7.79175 6.18945C7.81323 6.17513 7.83293 6.16081 7.85083 6.14648C7.86873 6.13216 7.88485 6.11784 7.89917 6.10352C7.96362 6.03906 8.01196 5.96566 8.04419 5.8833C8.07642 5.80094 8.09253 5.71322 8.09253 5.62012C8.09253 5.53418 8.07642 5.45003 8.04419 5.36768C8.01196 5.28532 7.96362 5.21191 7.89917 5.14746Z" fill="#444444"/>
</svg>
