<svg width="10" height="10" viewBox="0 0 10 10" fill="none" xmlns="http://www.w3.org/2000/svg">
<g clip-path="url(#clip0_25_1886)">
<path d="M8.94727 4.38672H5.64258V1.09082C5.64258 0.956055 5.59424 0.838867 5.49756 0.739258C5.40088 0.639648 5.28516 0.589844 5.15039 0.589844H4.72852C4.59375 0.589844 4.47803 0.639648 4.38135 0.739258C4.28467 0.838867 4.23633 0.956055 4.23633 1.09082V4.38672H0.931641C0.796875 4.38672 0.681152 4.43506 0.584473 4.53174C0.487793 4.62842 0.439453 4.74414 0.439453 4.87891V5.30078C0.439453 5.43555 0.487793 5.55127 0.584473 5.64795C0.681152 5.74463 0.796875 5.79297 0.931641 5.79297H4.23633V9.10645C4.23633 9.24121 4.28467 9.35547 4.38135 9.44922C4.47803 9.54297 4.59375 9.58984 4.72852 9.58984H5.15039C5.28516 9.58984 5.40088 9.54297 5.49756 9.44922C5.59424 9.35547 5.64258 9.24121 5.64258 9.10645V5.79297H8.94727C9.08203 5.79297 9.19775 5.74463 9.29443 5.64795C9.39111 5.55127 9.43945 5.43555 9.43945 5.30078V4.87891C9.43945 4.74414 9.39111 4.62842 9.29443 4.53174C9.19775 4.43506 9.08203 4.38672 8.94727 4.38672Z" fill="#E2E2E2"/>
</g>
<defs>
<clipPath id="clip0_25_1886">
<rect width="9" height="9" fill="white" transform="matrix(1 0 0 -1 0.439453 9.58984)"/>
</clipPath>
</defs>
</svg>
