<svg width="14" height="15" viewBox="0 0 14 15" fill="none" xmlns="http://www.w3.org/2000/svg">
<g clip-path="url(#clip0_9_12306)">
<path d="M7 0.159668C6.03385 0.159668 5.12695 0.34196 4.2793 0.706543C3.43164 1.08024 2.69108 1.58382 2.05762 2.21729C1.42415 2.85075 0.920573 3.59131 0.546875 4.43896C0.182292 5.28662 0 6.19352 0 7.15967C0 8.12581 0.182292 9.03271 0.546875 9.88037C0.920573 10.728 1.42415 11.4686 2.05762 12.1021C2.69108 12.7355 3.43164 13.2391 4.2793 13.6128C5.12695 13.9774 6.03385 14.1597 7 14.1597C7.96615 14.1597 8.87305 13.9774 9.7207 13.6128C10.5684 13.2391 11.3089 12.7355 11.9424 12.1021C12.5758 11.4686 13.0794 10.728 13.4531 9.88037C13.8177 9.03271 14 8.12581 14 7.15967C14 6.19352 13.8177 5.28662 13.4531 4.43896C13.0794 3.59131 12.5758 2.85075 11.9424 2.21729C11.3089 1.58382 10.5684 1.08024 9.7207 0.706543C8.87305 0.34196 7.96615 0.159668 7 0.159668ZM7 12.8882C6.20703 12.8882 5.46419 12.7378 4.77148 12.437C4.07878 12.1362 3.47266 11.7261 2.95312 11.2065C2.43359 10.687 2.02344 10.0809 1.72266 9.38818C1.42188 8.69548 1.27148 7.95264 1.27148 7.15967C1.27148 6.3667 1.42188 5.62386 1.72266 4.93115C2.02344 4.23844 2.43359 3.63232 2.95312 3.11279C3.47266 2.59326 4.07878 2.18311 4.77148 1.88232C5.46419 1.58154 6.20703 1.43115 7 1.43115C7.79297 1.43115 8.53581 1.58154 9.22852 1.88232C9.92122 2.18311 10.5273 2.59326 11.0469 3.11279C11.5664 3.63232 11.9766 4.23844 12.2773 4.93115C12.5781 5.62386 12.7285 6.3667 12.7285 7.15967C12.7285 7.95264 12.5781 8.69548 12.2773 9.38818C11.9766 10.0809 11.5664 10.687 11.0469 11.2065C10.5273 11.7261 9.92122 12.1362 9.22852 12.437C8.53581 12.7378 7.79297 12.8882 7 12.8882ZM7 3.12646C6.76302 3.12646 6.5625 3.21077 6.39844 3.37939C6.23438 3.54801 6.15234 3.74626 6.15234 3.97412C6.15234 4.2111 6.23438 4.41162 6.39844 4.57568C6.5625 4.73975 6.76302 4.82178 7 4.82178C7.23698 4.82178 7.4375 4.73975 7.60156 4.57568C7.76562 4.41162 7.84766 4.2111 7.84766 3.97412C7.84766 3.74626 7.76562 3.54801 7.60156 3.37939C7.4375 3.21077 7.23698 3.12646 7 3.12646ZM7 6.09326C6.82682 6.09326 6.67643 6.15706 6.54883 6.28467C6.42122 6.41227 6.35742 6.56266 6.35742 6.73584V10.5503C6.35742 10.7326 6.42122 10.8853 6.54883 11.0083C6.67643 11.1313 6.82682 11.1929 7 11.1929C7.17318 11.1929 7.32357 11.1313 7.45117 11.0083C7.57878 10.8853 7.64258 10.7326 7.64258 10.5503V6.73584C7.64258 6.56266 7.57878 6.41227 7.45117 6.28467C7.32357 6.15706 7.17318 6.09326 7 6.09326Z" fill="#444444"/>
</g>
<defs>
<clipPath id="clip0_9_12306">
<rect width="14" height="14" fill="white" transform="matrix(1 0 0 -1 0 14.1597)"/>
</clipPath>
</defs>
</svg>
