<svg width="9" height="10" viewBox="0 0 9 10" fill="none" xmlns="http://www.w3.org/2000/svg">
<g clip-path="url(#clip0_9_5255)">
<path d="M1.01953 0.528181C0.955078 0.53404 0.88623 0.548689 0.812988 0.572126C0.739746 0.595564 0.679688 0.621931 0.632812 0.651228C0.568359 0.686384 0.498047 0.736189 0.421875 0.800642C0.345703 0.865095 0.28125 0.929548 0.228516 0.994001C0.210938 1.01744 0.181641 1.07164 0.140625 1.1566C0.0996094 1.24156 0.0791016 1.29283 0.0791016 1.31041C0.0791016 1.31627 0.0761719 1.32799 0.0703125 1.34556C0.0644531 1.36314 0.0585938 1.37779 0.0527344 1.38951C0.0410156 1.43052 0.0351562 1.51695 0.0351562 1.64879C0.0351562 1.78062 0.0410156 1.86705 0.0527344 1.90806C0.0585938 1.92564 0.0644531 1.94176 0.0703125 1.9564C0.0761719 1.97105 0.0791016 1.98131 0.0791016 1.98717C0.0791016 2.0106 0.104004 2.06773 0.153809 2.15855C0.203613 2.24937 0.246094 2.31822 0.28125 2.3651C0.357422 2.45299 0.446777 2.53062 0.549316 2.59801C0.651855 2.66539 0.761719 2.71373 0.878906 2.74302C0.955078 2.76646 1.04736 2.77818 1.15576 2.77818C1.26416 2.77818 1.35645 2.76646 1.43262 2.74302C1.53809 2.71373 1.63184 2.67564 1.71387 2.62877C1.7959 2.58189 1.875 2.52037 1.95117 2.4442C2.0625 2.33873 2.146 2.21861 2.20166 2.08385C2.25732 1.94908 2.28516 1.80552 2.28516 1.65318C2.28516 1.4774 2.24854 1.31334 2.17529 1.16099C2.10205 1.00865 1.99805 0.879744 1.86328 0.774275C1.81055 0.7274 1.74316 0.683455 1.66113 0.642439C1.5791 0.601423 1.50293 0.572126 1.43262 0.554548C1.3916 0.54283 1.32275 0.53404 1.22607 0.528181C1.12939 0.522322 1.06055 0.522322 1.01953 0.528181ZM7.70801 0.528181C7.57324 0.545759 7.44727 0.586775 7.33008 0.651228C7.21289 0.715681 7.11035 0.794783 7.02246 0.888533C6.99902 0.91197 6.9624 0.95738 6.9126 1.02476C6.86279 1.09215 6.83789 1.1317 6.83789 1.14342C6.83789 1.14342 6.83496 1.15074 6.8291 1.16539C6.82324 1.18004 6.81738 1.19615 6.81152 1.21373C6.78223 1.27232 6.76025 1.34263 6.74561 1.42467C6.73096 1.5067 6.72363 1.58287 6.72363 1.65318C6.72363 1.71763 6.73096 1.79088 6.74561 1.87291C6.76025 1.95494 6.78223 2.02525 6.81152 2.08385C6.81738 2.10142 6.82324 2.11754 6.8291 2.13218C6.83496 2.14683 6.83789 2.15416 6.83789 2.15416C6.83789 2.16002 6.84082 2.16734 6.84668 2.17613C6.85254 2.18492 6.8584 2.19224 6.86426 2.1981C6.87012 2.20982 6.88037 2.22593 6.89502 2.24644C6.90967 2.26695 6.92285 2.28599 6.93457 2.30357C6.97559 2.36217 7.03418 2.42515 7.11035 2.49254C7.18652 2.55992 7.25977 2.61119 7.33008 2.64635C7.35938 2.66392 7.40039 2.68297 7.45312 2.70347C7.50586 2.72398 7.55566 2.7401 7.60254 2.75181C7.66699 2.76939 7.75195 2.77672 7.85742 2.77379C7.96289 2.77086 8.05371 2.7606 8.12988 2.74302C8.25293 2.70787 8.36279 2.65953 8.45947 2.59801C8.55615 2.53648 8.65137 2.45006 8.74512 2.33873C8.76855 2.31529 8.79932 2.26988 8.8374 2.2025C8.87549 2.13511 8.89746 2.08677 8.90332 2.05748C8.90332 2.05162 8.90625 2.04136 8.91211 2.02672C8.91797 2.01207 8.92383 1.99888 8.92969 1.98717C8.95898 1.92271 8.97363 1.80992 8.97363 1.64879C8.97363 1.48765 8.95898 1.37486 8.92969 1.31041C8.92383 1.29869 8.91797 1.28551 8.91211 1.27086C8.90625 1.25621 8.90332 1.24595 8.90332 1.2401C8.89746 1.22252 8.88428 1.19176 8.86377 1.14781C8.84326 1.10386 8.81836 1.06138 8.78906 1.02037C8.76562 0.979353 8.72021 0.925154 8.65283 0.857771C8.58545 0.790388 8.53125 0.742048 8.49023 0.712751C8.44336 0.683455 8.3877 0.654158 8.32324 0.624861C8.25879 0.595564 8.19727 0.572126 8.13867 0.554548C8.0918 0.54283 8.01855 0.53404 7.91895 0.528181C7.81934 0.522322 7.74902 0.522322 7.70801 0.528181ZM1.01953 5.87193C0.960938 5.88365 0.906738 5.90416 0.856934 5.93345C0.807129 5.96275 0.761719 6.00084 0.720703 6.04771C0.65625 6.10631 0.609375 6.16929 0.580078 6.23668C0.550781 6.30406 0.533203 6.37877 0.527344 6.4608C0.527344 6.55455 0.537598 6.63365 0.558105 6.6981C0.578613 6.76256 0.624023 6.85045 0.694336 6.96177C0.729492 7.01451 0.757324 7.05845 0.777832 7.09361C0.79834 7.12877 0.814453 7.1522 0.826172 7.16392C0.837891 7.17564 0.848145 7.18883 0.856934 7.20347C0.865723 7.21812 0.873047 7.22838 0.878906 7.23424C0.884766 7.24595 0.903809 7.27232 0.936035 7.31334C0.968262 7.35435 1.00488 7.3983 1.0459 7.44517C1.2041 7.63853 1.37842 7.81724 1.56885 7.98131C1.75928 8.14537 1.96289 8.29185 2.17969 8.42076C2.45508 8.59068 2.73779 8.72691 3.02783 8.82945C3.31787 8.93199 3.63574 9.0067 3.98145 9.05357C4.10449 9.07115 4.28613 9.07847 4.52637 9.07554C4.7666 9.07261 4.9541 9.06236 5.08887 9.04478C5.34668 9.00963 5.58105 8.95982 5.79199 8.89537C6.00293 8.83092 6.22266 8.74302 6.45117 8.6317C6.78516 8.47935 7.09131 8.28746 7.36963 8.05601C7.64795 7.82457 7.90723 7.55064 8.14746 7.23424C8.16504 7.2108 8.20459 7.15367 8.26611 7.06285C8.32764 6.97203 8.36426 6.9149 8.37598 6.89146C8.38184 6.87974 8.3877 6.86802 8.39355 6.85631C8.39941 6.84459 8.40527 6.8358 8.41113 6.82994C8.42285 6.8065 8.4375 6.77281 8.45508 6.72886C8.47266 6.68492 8.48438 6.64537 8.49023 6.61021C8.50781 6.49302 8.4917 6.37584 8.44189 6.25865C8.39209 6.14146 8.31738 6.04771 8.21777 5.9774C8.05957 5.86607 7.88965 5.83091 7.70801 5.87193C7.52637 5.91295 7.38281 6.01841 7.27734 6.18834C7.22461 6.27623 7.18213 6.34215 7.1499 6.38609C7.11768 6.43004 7.07227 6.49009 7.01367 6.56627C6.9668 6.63072 6.88916 6.71715 6.78076 6.82554C6.67236 6.93394 6.58594 7.01451 6.52148 7.06724C6.41016 7.16099 6.27539 7.25328 6.11719 7.3441C5.95898 7.43492 5.81543 7.5067 5.68652 7.55943C5.45215 7.64732 5.21484 7.70884 4.97461 7.744C4.73438 7.77916 4.49414 7.78648 4.25391 7.76597C4.01367 7.74547 3.77637 7.70006 3.54199 7.62974C3.31348 7.55357 3.09375 7.45396 2.88281 7.33092C2.74219 7.24302 2.61182 7.15074 2.4917 7.05406C2.37158 6.95738 2.25879 6.85338 2.15332 6.74205C2.05957 6.63658 1.99072 6.55308 1.94678 6.49156C1.90283 6.43004 1.8457 6.34361 1.77539 6.23228C1.75195 6.19713 1.72705 6.1605 1.70068 6.12242C1.67432 6.08433 1.65234 6.0565 1.63477 6.03892C1.55859 5.96275 1.46484 5.91002 1.35352 5.88072C1.24219 5.85142 1.13086 5.84849 1.01953 5.87193Z" fill="#333333"/>
</g>
<defs>
<clipPath id="clip0_9_5255">
<rect width="9" height="9" fill="white" transform="matrix(1 0 0 -1 0 9.2998)"/>
</clipPath>
</defs>
</svg>
