<svg width="13" height="13" viewBox="0 0 13 13" fill="none" xmlns="http://www.w3.org/2000/svg">
<g clip-path="url(#clip0_9_7031)">
<path d="M12.1074 11.1729L9.77539 8.84082C10.1035 8.40332 10.3613 7.91895 10.5488 7.3877C10.7363 6.85645 10.8301 6.29395 10.8301 5.7002C10.8301 4.97363 10.6934 4.29395 10.4199 3.66113C10.1465 3.02051 9.77148 2.46191 9.29492 1.98535C8.81836 1.50879 8.25977 1.13379 7.61914 0.860352C6.98633 0.586914 6.30664 0.450195 5.58008 0.450195C4.85352 0.450195 4.17383 0.586914 3.54102 0.860352C2.90039 1.13379 2.3418 1.50879 1.86523 1.98535C1.38867 2.46191 1.01367 3.02051 0.740234 3.66113C0.466797 4.29395 0.330078 4.97363 0.330078 5.7002C0.330078 6.42676 0.466797 7.10645 0.740234 7.73926C1.01367 8.37988 1.38867 8.93848 1.86523 9.41504C2.3418 9.8916 2.90039 10.2666 3.54102 10.54C4.17383 10.8135 4.85352 10.9502 5.58008 10.9502C6.17383 10.9502 6.73633 10.8564 7.26758 10.6689C7.79883 10.4814 8.2832 10.2236 8.7207 9.89551L11.0527 12.2275C11.123 12.2979 11.1992 12.3525 11.2812 12.3916C11.3633 12.4307 11.4629 12.4502 11.5801 12.4502C11.791 12.4502 11.9688 12.3779 12.1133 12.2334C12.2578 12.0889 12.3301 11.9111 12.3301 11.7002C12.3301 11.6143 12.3164 11.5283 12.2891 11.4424C12.2617 11.3564 12.2012 11.2666 12.1074 11.1729ZM1.83008 5.7002C1.83008 5.18457 1.92773 4.69629 2.12305 4.23535C2.31836 3.78223 2.58594 3.38574 2.92578 3.0459C3.26562 2.70605 3.66211 2.43848 4.11523 2.24316C4.57617 2.04785 5.06445 1.9502 5.58008 1.9502C6.0957 1.9502 6.58398 2.04785 7.04492 2.24316C7.49805 2.43848 7.89453 2.70605 8.23438 3.0459C8.57422 3.38574 8.8418 3.78223 9.03711 4.23535C9.23242 4.69629 9.33008 5.18457 9.33008 5.7002C9.33008 6.21582 9.23242 6.7041 9.03711 7.16504C8.8418 7.61816 8.57422 8.01465 8.23438 8.35449C7.89453 8.69434 7.49805 8.96191 7.04492 9.15723C6.58398 9.35254 6.0957 9.4502 5.58008 9.4502C5.06445 9.4502 4.57617 9.35254 4.11523 9.15723C3.66211 8.96191 3.26562 8.69434 2.92578 8.35449C2.58594 8.01465 2.31836 7.61816 2.12305 7.16504C1.92773 6.7041 1.83008 6.21582 1.83008 5.7002Z" fill="#E2E2E2"/>
</g>
<defs>
<clipPath id="clip0_9_7031">
<rect width="12" height="12" fill="white" transform="matrix(1 0 0 -1 0.330078 12.4502)"/>
</clipPath>
</defs>
</svg>
