<svg width="15" height="15" viewBox="0 0 15 15" fill="none" xmlns="http://www.w3.org/2000/svg">
<g clip-path="url(#clip0_9_308)">
<path d="M11.0587 0.651855C10.8673 0.688314 10.726 0.772624 10.6349 0.904785C10.5437 1.03695 10.5027 1.21696 10.5118 1.44482C10.5118 1.49951 10.5141 1.5861 10.5187 1.70459C10.5232 1.82308 10.5255 1.93701 10.5255 2.04639C10.5437 2.31982 10.5437 2.493 10.5255 2.56592C10.5073 2.63883 10.4662 2.67529 10.4024 2.67529C10.3569 2.67529 10.3045 2.65706 10.2452 2.62061C10.186 2.58415 10.0424 2.48844 9.81455 2.3335C9.69606 2.24235 9.58213 2.1626 9.47275 2.09424C9.36338 2.02588 9.29046 1.98258 9.254 1.96436C9.19932 1.93701 9.15602 1.91878 9.12412 1.90967C9.09222 1.90055 9.02614 1.896 8.92588 1.896C8.84385 1.896 8.7846 1.89827 8.74814 1.90283C8.71169 1.90739 8.67523 1.91878 8.63877 1.93701C8.46559 2.03727 8.33799 2.17855 8.25596 2.36084C8.17393 2.54313 8.16025 2.72087 8.21494 2.89404C8.24229 2.96696 8.28102 3.03988 8.33115 3.11279C8.38128 3.18571 8.43369 3.2404 8.48838 3.27686C8.51572 3.29508 8.5818 3.3361 8.68662 3.3999C8.79144 3.4637 8.90765 3.52751 9.03525 3.59131C9.15374 3.65511 9.26312 3.71663 9.36338 3.77588C9.46364 3.83512 9.52744 3.87386 9.55479 3.89209C9.61859 3.93766 9.65277 3.99919 9.65732 4.07666C9.66188 4.15413 9.63226 4.22477 9.56846 4.28857C9.55023 4.3068 9.49554 4.34326 9.40439 4.39795C9.31325 4.45264 9.21299 4.51188 9.10361 4.57568C8.86663 4.69417 8.70485 4.78532 8.61826 4.84912C8.53167 4.91292 8.45648 4.98128 8.39268 5.0542C8.32887 5.14534 8.28558 5.22282 8.26279 5.28662C8.24001 5.35042 8.22861 5.4279 8.22861 5.51904C8.23773 5.59196 8.24684 5.64665 8.25596 5.68311C8.26507 5.71956 8.28786 5.76514 8.32432 5.81982C8.36989 5.90186 8.4223 5.97705 8.48154 6.04541C8.54079 6.11377 8.60231 6.16618 8.66611 6.20264C8.69346 6.21175 8.72536 6.22087 8.76182 6.22998C8.79827 6.2391 8.8484 6.24365 8.91221 6.24365C9.04893 6.25277 9.16742 6.2391 9.26768 6.20264C9.36794 6.16618 9.50466 6.08415 9.67783 5.95654C9.72341 5.92008 9.78721 5.87223 9.86924 5.81299C9.95127 5.75374 10.0196 5.70589 10.0743 5.66943C10.211 5.56917 10.3113 5.50765 10.3751 5.48486C10.4389 5.46208 10.4799 5.47347 10.4981 5.51904C10.5164 5.56462 10.5278 5.62842 10.5323 5.71045C10.5369 5.79248 10.5346 5.91553 10.5255 6.07959C10.5164 6.34391 10.5118 6.53532 10.5118 6.65381C10.5118 6.7723 10.5209 6.868 10.5392 6.94092C10.5756 7.06852 10.6326 7.1779 10.7101 7.26904C10.7875 7.36019 10.8764 7.42399 10.9767 7.46045C11.0496 7.48779 11.143 7.50146 11.2569 7.50146C11.3709 7.50146 11.4597 7.49235 11.5235 7.47412C11.6238 7.43766 11.7127 7.3807 11.7901 7.30322C11.8676 7.22575 11.9291 7.13232 11.9747 7.02295C12.0021 6.95003 12.018 6.84749 12.0226 6.71533C12.0271 6.58317 12.0248 6.31201 12.0157 5.90186C12.0066 5.74691 12.0043 5.63753 12.0089 5.57373C12.0134 5.50993 12.0203 5.47347 12.0294 5.46436C12.0476 5.44613 12.0978 5.4598 12.1798 5.50537C12.2618 5.55094 12.4122 5.6512 12.631 5.80615C12.8771 5.99756 13.0479 6.11605 13.1437 6.16162C13.2394 6.20719 13.3556 6.23454 13.4923 6.24365C13.5834 6.25277 13.645 6.25505 13.6769 6.25049C13.7088 6.24593 13.7521 6.22998 13.8067 6.20264C13.8705 6.16618 13.9252 6.12972 13.9708 6.09326C14.0164 6.0568 14.0619 6.00212 14.1075 5.9292C14.1622 5.84717 14.2009 5.77653 14.2237 5.71729C14.2465 5.65804 14.2625 5.59196 14.2716 5.51904C14.2716 5.44613 14.2693 5.396 14.2647 5.36865C14.2602 5.34131 14.2397 5.29118 14.2032 5.21826C14.1485 5.118 14.0779 5.02686 13.9913 4.94482C13.9047 4.86279 13.7885 4.78076 13.6427 4.69873C13.6062 4.6805 13.5515 4.65088 13.4786 4.60986C13.4057 4.56885 13.3373 4.53467 13.2735 4.50732C13.1277 4.42529 13.0297 4.36833 12.9796 4.33643C12.9295 4.30452 12.8862 4.26579 12.8497 4.22021C12.7677 4.11995 12.7791 4.02653 12.8839 3.93994C12.9887 3.85335 13.2918 3.6779 13.7931 3.41357C14.0027 3.3042 14.1508 3.1652 14.2374 2.99658C14.324 2.82796 14.3354 2.65251 14.2716 2.47021C14.2534 2.38818 14.2283 2.31982 14.1964 2.26514C14.1645 2.21045 14.1166 2.1512 14.0528 2.0874C13.9799 2.01449 13.9047 1.96436 13.8272 1.93701C13.7498 1.90967 13.6609 1.896 13.5606 1.896C13.4513 1.896 13.3487 1.91878 13.253 1.96436C13.1573 2.00993 12.991 2.11475 12.754 2.27881C12.5444 2.43376 12.4008 2.5363 12.3233 2.58643C12.2459 2.63656 12.1889 2.66618 12.1524 2.67529C12.0795 2.69352 12.034 2.65706 12.0157 2.56592C11.9975 2.47477 11.9975 2.27425 12.0157 1.96436C12.0248 1.6818 12.0271 1.48356 12.0226 1.36963C12.018 1.2557 12.0021 1.16683 11.9747 1.10303C11.9109 0.957194 11.8243 0.845541 11.7149 0.768066C11.6056 0.690592 11.4688 0.647298 11.3048 0.638184C11.2592 0.638184 11.2114 0.638184 11.1612 0.638184C11.1111 0.638184 11.0769 0.642741 11.0587 0.651855Z" fill="#31CAAE"/>
</g>
<defs>
<clipPath id="clip0_9_308">
<rect width="14" height="14" fill="white" transform="matrix(1 0 0 -1 0.75 14.5698)"/>
</clipPath>
</defs>
</svg>
