<svg width="14" height="14" viewBox="0 0 14 14" fill="none" xmlns="http://www.w3.org/2000/svg">
<g clip-path="url(#clip0_9_5154)">
<path d="M11.0743 13.1543C11.1251 13.1458 11.1696 13.131 11.2076 13.1099C11.2457 13.0887 11.2817 13.0612 11.3156 13.0273C11.3409 13.002 11.451 12.8581 11.6456 12.5957C11.8488 12.3333 12.0667 12.0477 12.2994 11.7388C12.5322 11.4299 12.7459 11.1442 12.9406 10.8818C13.1267 10.6195 13.2283 10.4756 13.2452 10.4502L13.2833 10.3613V6.14648C13.2833 4.58073 13.2833 3.47412 13.2833 2.82666C13.2833 2.1792 13.2791 1.82585 13.2706 1.7666C13.2537 1.56348 13.2008 1.37093 13.1119 1.18896C13.0231 1.007 12.9067 0.844076 12.7628 0.700195C12.6359 0.573242 12.5004 0.47168 12.3566 0.395508C12.2127 0.319336 12.0434 0.260091 11.8488 0.217773C11.798 0.200846 11.5525 0.190267 11.1124 0.186035C10.6723 0.181803 9.4578 0.179688 7.46887 0.179688C6.71562 0.179688 6.06392 0.179688 5.51379 0.179688C4.97213 0.179688 4.52144 0.179688 4.16174 0.179688C3.80204 0.179688 3.53333 0.183919 3.35559 0.192383C3.17786 0.192383 3.07206 0.192383 3.03821 0.192383C3.00435 0.200846 2.9578 0.211426 2.89856 0.224121C2.83931 0.236816 2.78853 0.247396 2.74622 0.255859C2.39075 0.365885 2.10087 0.556315 1.87659 0.827148C1.6523 1.09798 1.52323 1.4196 1.48938 1.79199C1.48092 1.81738 1.47668 1.92318 1.47668 2.10938C1.47668 2.28711 1.47668 2.55371 1.47668 2.90918C1.47668 3.26465 1.47668 3.71322 1.47668 4.25488C1.47668 4.78809 1.47668 5.42285 1.47668 6.15918V10.3613L1.52747 10.4629C1.54439 10.4883 1.64172 10.6237 1.81946 10.8691C1.99719 11.1146 2.22148 11.4193 2.49231 11.7832C2.97473 12.418 3.26461 12.7946 3.36194 12.9131C3.45927 13.0316 3.54602 13.1077 3.62219 13.1416C3.65605 13.1585 3.8359 13.167 4.16174 13.167C4.48759 13.167 5.55188 13.1712 7.35461 13.1797C8.79342 13.1797 9.76672 13.1776 10.2745 13.1733C10.7823 13.1691 11.049 13.1628 11.0743 13.1543ZM3.68567 11.4023L3.24133 10.8184H11.5187L11.4806 10.8691C11.4637 10.8861 11.4129 10.9517 11.3282 11.0659C11.2436 11.1802 11.1463 11.3135 11.0363 11.4658L10.6427 11.999H4.13L3.68567 11.4023ZM2.65735 5.75293C2.65735 3.81478 2.65735 2.67855 2.65735 2.34424C2.65735 2.00993 2.66581 1.81738 2.68274 1.7666C2.69967 1.70736 2.72929 1.65234 2.77161 1.60156C2.81392 1.55078 2.86471 1.50423 2.92395 1.46191C3.00012 1.41113 3.17786 1.38151 3.45715 1.37305C3.73645 1.36458 5.04407 1.36035 7.38 1.36035C9.69902 1.36035 11.0003 1.36458 11.2838 1.37305C11.5673 1.38151 11.7514 1.41113 11.8361 1.46191C11.8953 1.50423 11.9461 1.55078 11.9884 1.60156C12.0307 1.65234 12.0646 1.71582 12.09 1.79199C12.0984 1.82585 12.1027 2.05436 12.1027 2.47754C12.1027 2.90072 12.1027 3.99251 12.1027 5.75293V9.6377H2.65735V5.75293ZM9.85559 8.43164C9.91484 8.42318 9.96985 8.40413 10.0206 8.37451C10.0714 8.34489 10.118 8.30892 10.1603 8.2666C10.2365 8.19043 10.2851 8.10579 10.3063 8.0127C10.3274 7.9196 10.3338 7.79264 10.3253 7.63184C10.2915 7.28483 10.2089 6.9611 10.0778 6.66064C9.94657 6.36019 9.76249 6.08724 9.52551 5.8418C9.12773 5.41862 8.64742 5.13721 8.08459 4.99756C7.52177 4.85791 6.96952 4.88119 6.42786 5.06738C5.9539 5.23665 5.54765 5.50326 5.20911 5.86719C4.87056 6.23112 4.64205 6.6543 4.52356 7.13672C4.48971 7.27214 4.46431 7.42236 4.44739 7.5874C4.43046 7.75244 4.42623 7.87305 4.43469 7.94922C4.46008 8.07617 4.5151 8.18408 4.59973 8.27295C4.68437 8.36182 4.79439 8.41895 4.92981 8.44434C5.01445 8.46126 5.10331 8.4528 5.19641 8.41895C5.28951 8.38509 5.36991 8.33431 5.43762 8.2666C5.4884 8.21582 5.52437 8.16292 5.54553 8.10791C5.56669 8.0529 5.5815 7.9873 5.58997 7.91113C5.61536 7.69108 5.64075 7.52604 5.66614 7.41602C5.69153 7.30599 5.72961 7.19596 5.7804 7.08594C5.83118 6.99284 5.88196 6.91032 5.93274 6.83838C5.98352 6.76644 6.05123 6.69238 6.13586 6.61621C6.25435 6.49772 6.37708 6.40039 6.50403 6.32422C6.63098 6.24805 6.77909 6.1888 6.94836 6.14648C7.02454 6.12109 7.0859 6.10628 7.13245 6.10205C7.179 6.09782 7.25728 6.0957 7.36731 6.0957C7.47734 6.0957 7.55562 6.09782 7.60217 6.10205C7.64872 6.10628 7.70162 6.11686 7.76086 6.13379C7.85396 6.15072 7.93225 6.17188 7.99573 6.19727C8.0592 6.22266 8.12903 6.25651 8.2052 6.29883C8.44218 6.42578 8.63896 6.59294 8.79553 6.80029C8.95211 7.00765 9.06002 7.24251 9.11926 7.50488C9.12773 7.53874 9.13407 7.58317 9.13831 7.63818C9.14254 7.6932 9.14889 7.75033 9.15735 7.80957C9.16581 7.9196 9.17851 8.00423 9.19543 8.06348C9.21236 8.12272 9.24198 8.17773 9.2843 8.22852C9.31816 8.27083 9.35624 8.3068 9.39856 8.33643C9.44088 8.36605 9.48743 8.38932 9.53821 8.40625C9.58053 8.42318 9.63342 8.43587 9.6969 8.44434C9.76038 8.4528 9.81327 8.44857 9.85559 8.43164Z" fill="#31CAAE"/>
</g>
<defs>
<clipPath id="clip0_9_5154">
<rect width="13" height="13" fill="white" transform="matrix(-1 0 0 1 13.88 0.179688)"/>
</clipPath>
</defs>
</svg>
