<svg width="13" height="13" viewBox="0 0 13 13" fill="none" xmlns="http://www.w3.org/2000/svg">
<g clip-path="url(#clip0_9_12280)">
<path d="M3.38086 5.63428L2.44336 6.57178L5.44336 9.57178L12.1113 2.90381L11.1738 1.96631L5.44336 7.69678L3.38086 5.63428ZM10.7754 11.564H1.44727V2.23584H8.11523V0.899902H1.44727C1.08008 0.899902 0.765625 1.03076 0.503906 1.29248C0.242188 1.5542 0.111328 1.86865 0.111328 2.23584V11.564C0.111328 11.9312 0.242188 12.2456 0.503906 12.5073C0.765625 12.769 1.08008 12.8999 1.44727 12.8999H10.7754C11.1426 12.8999 11.457 12.769 11.7188 12.5073C11.9805 12.2456 12.1113 11.9312 12.1113 11.564V6.23193H10.7754V11.564Z" fill="#E2E2E2"/>
</g>
<defs>
<clipPath id="clip0_9_12280">
<rect width="12" height="12" fill="white" transform="matrix(1 0 0 -1 0.111328 12.8999)"/>
</clipPath>
</defs>
</svg>
