<svg width="17" height="17" viewBox="0 0 17 17" fill="none" xmlns="http://www.w3.org/2000/svg">
<g clip-path="url(#clip0_9_12287)">
<path d="M1.0625 1.61361C0.989583 1.63444 0.921875 1.66048 0.859375 1.69173C0.796875 1.72298 0.739583 1.76986 0.6875 1.83236C0.59375 1.92611 0.541667 2.11881 0.53125 2.41048C0.520833 2.70215 0.520833 4.1084 0.53125 6.62923V11.1136L0.59375 11.223C0.625 11.2959 0.671875 11.3584 0.734375 11.4105C0.796875 11.4626 0.864583 11.5042 0.9375 11.5355C1 11.5563 1.0651 11.5693 1.13281 11.5745C1.20052 11.5798 1.34375 11.5824 1.5625 11.5824C1.69792 11.5824 1.8125 11.5824 1.90625 11.5824C2 11.5824 2.04688 11.5876 2.04688 11.598C2.04688 11.598 2.04167 11.6214 2.03125 11.6683C2.02083 11.7152 2 11.7699 1.96875 11.8324C1.875 12.1553 1.83854 12.4704 1.85938 12.7777C1.88021 13.085 1.96875 13.3844 2.125 13.6761C2.33333 14.0928 2.65104 14.4131 3.07812 14.637C3.50521 14.861 3.94792 14.9469 4.40625 14.8949C4.77083 14.8532 5.09896 14.7438 5.39062 14.5667C5.68229 14.3896 5.92708 14.1553 6.125 13.8636C6.23958 13.6865 6.32552 13.5042 6.38281 13.3167C6.4401 13.1292 6.47396 12.9209 6.48438 12.6917C6.49479 12.5251 6.48958 12.3792 6.46875 12.2542C6.44792 12.1292 6.41667 11.999 6.375 11.8636C6.35417 11.8115 6.33594 11.762 6.32031 11.7152C6.30469 11.6683 6.29688 11.6396 6.29688 11.6292C6.28646 11.6084 6.38802 11.5954 6.60156 11.5902C6.8151 11.585 7.44792 11.5824 8.5 11.5824C9.55208 11.5824 10.1849 11.585 10.3984 11.5902C10.612 11.5954 10.7135 11.6084 10.7031 11.6292C10.7031 11.6396 10.6953 11.6683 10.6797 11.7152C10.6641 11.762 10.6458 11.8115 10.625 11.8636C10.5833 11.999 10.5521 12.1292 10.5312 12.2542C10.5104 12.3792 10.5052 12.5251 10.5156 12.6917C10.526 12.9209 10.5599 13.1292 10.6172 13.3167C10.6745 13.5042 10.7604 13.6865 10.875 13.8636C10.9896 14.0303 11.1172 14.1787 11.2578 14.3089C11.3984 14.4391 11.5573 14.5511 11.7344 14.6449C11.8698 14.7074 11.9974 14.7594 12.1172 14.8011C12.237 14.8428 12.375 14.874 12.5312 14.8949C12.6458 14.9053 12.7344 14.9131 12.7969 14.9183C12.8594 14.9235 12.9375 14.9209 13.0312 14.9105C13.375 14.8688 13.6797 14.7751 13.9453 14.6292C14.2109 14.4834 14.4427 14.2907 14.6406 14.0511C14.7969 13.8532 14.9167 13.6423 15 13.4183C15.0833 13.1943 15.1302 12.9574 15.1406 12.7074C15.151 12.5511 15.1458 12.4053 15.125 12.2699C15.1042 12.1344 15.0677 11.9886 15.0156 11.8324C14.9948 11.7699 14.9792 11.7152 14.9688 11.6683C14.9583 11.6214 14.9531 11.598 14.9531 11.598C14.9531 11.5876 15.0026 11.5824 15.1016 11.5824C15.2005 11.5824 15.3177 11.5824 15.4531 11.5824H15.9688L16.0938 11.5199C16.1771 11.4782 16.2422 11.4365 16.2891 11.3949C16.3359 11.3532 16.375 11.2959 16.4062 11.223L16.4688 11.1136V9.28548C16.4688 8.46257 16.4688 7.94694 16.4688 7.73861C16.4688 7.53027 16.4583 7.40007 16.4375 7.34798C16.4271 7.30632 16.3516 7.21257 16.2109 7.06673C16.0703 6.9209 15.7708 6.61881 15.3125 6.16048C14.9271 5.76465 14.6406 5.47819 14.4531 5.30111C14.2656 5.12402 14.151 5.02506 14.1094 5.00423L14 4.94173L11.8125 4.92611V2.11361L11.7656 1.98861C11.724 1.92611 11.6745 1.86361 11.6172 1.80111C11.5599 1.73861 11.4948 1.69173 11.4219 1.66048L11.2969 1.61361L6.23438 1.59798C5.53646 1.59798 4.88021 1.59798 4.26562 1.59798C3.64062 1.59798 3.09375 1.60059 2.625 1.60579C2.15625 1.611 1.78646 1.61361 1.51562 1.61361C1.23438 1.61361 1.08333 1.61361 1.0625 1.61361ZM10.5 6.58236V10.2542H1.84375V2.92611H10.5V6.58236ZM14.3438 7.06673L15.1562 7.86361V10.2542H11.8438V6.25423H13.5469L14.3438 7.06673ZM4.42188 11.6136C4.78646 11.7074 5.02344 11.9365 5.13281 12.3011C5.24219 12.6657 5.16667 12.9834 4.90625 13.2542C4.78125 13.3896 4.63281 13.486 4.46094 13.5433C4.28906 13.6006 4.11979 13.6084 3.95312 13.5667C3.81771 13.5355 3.6849 13.4704 3.55469 13.3714C3.42448 13.2725 3.32812 13.1553 3.26562 13.0199C3.20312 12.8844 3.17448 12.7334 3.17969 12.5667C3.1849 12.4001 3.21875 12.2542 3.28125 12.1292C3.39583 11.9209 3.5599 11.7699 3.77344 11.6761C3.98698 11.5824 4.20312 11.5615 4.42188 11.6136ZM13.1719 11.6449C13.2656 11.6761 13.3542 11.7282 13.4375 11.8011C13.5208 11.874 13.5938 11.9521 13.6562 12.0355C13.7188 12.1188 13.7604 12.1943 13.7812 12.262C13.8021 12.3298 13.8125 12.4261 13.8125 12.5511C13.8229 12.6657 13.8177 12.7673 13.7969 12.8558C13.776 12.9443 13.7344 13.0355 13.6719 13.1292C13.4948 13.4105 13.2422 13.5641 12.9141 13.5902C12.5859 13.6162 12.3125 13.5042 12.0938 13.2542C11.875 13.0146 11.7917 12.7386 11.8438 12.4261C11.8958 12.1136 12.0625 11.874 12.3438 11.7074C12.4583 11.6449 12.5911 11.6084 12.7422 11.598C12.8932 11.5876 13.0365 11.6032 13.1719 11.6449Z" fill="#444444"/>
</g>
<defs>
<clipPath id="clip0_9_12287">
<rect width="16" height="16" fill="white" transform="matrix(1 0 0 -1 0.5 16.27)"/>
</clipPath>
</defs>
</svg>
