<svg width="14" height="14" viewBox="0 0 14 14" fill="none" xmlns="http://www.w3.org/2000/svg">
<g clip-path="url(#clip0_9_4811)">
<path d="M3.36572 0.255859C3.31494 0.264323 3.27051 0.279134 3.23242 0.300293C3.19434 0.321452 3.15837 0.348958 3.12451 0.382812C3.09912 0.408203 2.9891 0.552083 2.79443 0.814453C2.59131 1.07682 2.37337 1.36247 2.14062 1.67139C1.90788 1.98031 1.69417 2.26595 1.49951 2.52832C1.31331 2.79069 1.21175 2.93457 1.19482 2.95996L1.15674 3.04883V7.26367C1.15674 8.82943 1.15674 9.93604 1.15674 10.5835C1.15674 11.231 1.16097 11.5843 1.16943 11.6436C1.18636 11.8467 1.23926 12.0392 1.32812 12.2212C1.41699 12.4032 1.53337 12.5661 1.67725 12.71C1.8042 12.8369 1.93962 12.9385 2.0835 13.0146C2.22738 13.0908 2.39665 13.1501 2.59131 13.1924C2.64209 13.2093 2.88753 13.2199 3.32764 13.2241C3.76774 13.2284 4.98226 13.2305 6.97119 13.2305C7.72445 13.2305 8.37614 13.2305 8.92627 13.2305C9.46794 13.2305 9.91862 13.2305 10.2783 13.2305C10.638 13.2305 10.9067 13.2262 11.0845 13.2178C11.2622 13.2178 11.368 13.2178 11.4019 13.2178C11.4357 13.2093 11.4823 13.1987 11.5415 13.186C11.6007 13.1733 11.6515 13.1628 11.6938 13.1543C12.0493 13.0443 12.3392 12.8538 12.5635 12.583C12.7878 12.3122 12.9168 11.9906 12.9507 11.6182C12.9591 11.5928 12.9634 11.487 12.9634 11.3008C12.9634 11.123 12.9634 10.8564 12.9634 10.501C12.9634 10.1455 12.9634 9.69694 12.9634 9.15527C12.9634 8.62207 12.9634 7.9873 12.9634 7.25098V3.04883L12.9126 2.94727C12.8957 2.92188 12.7983 2.78646 12.6206 2.54102C12.4429 2.29557 12.2186 1.99089 11.9478 1.62695C11.4653 0.992188 11.1755 0.61556 11.0781 0.49707C10.9808 0.378581 10.894 0.302409 10.8179 0.268555C10.784 0.251628 10.6042 0.243164 10.2783 0.243164C9.95247 0.243164 8.88818 0.238933 7.08545 0.230469C5.64665 0.230469 4.67334 0.232585 4.16553 0.236816C3.65771 0.241048 3.39111 0.247396 3.36572 0.255859ZM10.7544 2.00781L11.1987 2.5918H2.92139L2.95947 2.54102C2.9764 2.52409 3.02718 2.4585 3.11182 2.34424C3.19645 2.22998 3.29378 2.09668 3.40381 1.94434L3.79736 1.41113H10.3101L10.7544 2.00781ZM11.7827 7.65723C11.7827 9.59538 11.7827 10.7316 11.7827 11.0659C11.7827 11.4002 11.7743 11.5928 11.7573 11.6436C11.7404 11.7028 11.7108 11.7578 11.6685 11.8086C11.6261 11.8594 11.5754 11.9059 11.5161 11.9482C11.4399 11.999 11.2622 12.0286 10.9829 12.0371C10.7036 12.0456 9.396 12.0498 7.06006 12.0498C4.74105 12.0498 3.43978 12.0456 3.15625 12.0371C2.87272 12.0286 2.68864 11.999 2.604 11.9482C2.54476 11.9059 2.49398 11.8594 2.45166 11.8086C2.40934 11.7578 2.37549 11.6943 2.3501 11.6182C2.34163 11.5843 2.3374 11.3558 2.3374 10.9326C2.3374 10.5094 2.3374 9.41764 2.3374 7.65723V3.77246H11.7827V7.65723ZM4.58447 4.97852C4.52523 4.98698 4.47021 5.00602 4.41943 5.03564C4.36865 5.06527 4.3221 5.10124 4.27979 5.14355C4.20361 5.21973 4.15495 5.30436 4.13379 5.39746C4.11263 5.49056 4.10628 5.61751 4.11475 5.77832C4.1486 6.12533 4.23112 6.44906 4.3623 6.74951C4.49349 7.04997 4.67757 7.32292 4.91455 7.56836C5.31234 7.99154 5.79264 8.27295 6.35547 8.4126C6.91829 8.55225 7.47054 8.52897 8.01221 8.34277C8.48617 8.1735 8.89242 7.9069 9.23096 7.54297C9.5695 7.17904 9.79801 6.75586 9.9165 6.27344C9.95036 6.13802 9.97575 5.98779 9.99268 5.82275C10.0096 5.65771 10.0138 5.53711 10.0054 5.46094C9.97998 5.33398 9.92497 5.22607 9.84033 5.13721C9.7557 5.04834 9.64567 4.99121 9.51025 4.96582C9.42562 4.94889 9.33675 4.95736 9.24365 4.99121C9.15055 5.02507 9.07015 5.07585 9.00244 5.14355C8.95166 5.19434 8.91569 5.24723 8.89453 5.30225C8.87337 5.35726 8.85856 5.42285 8.8501 5.49902C8.82471 5.71908 8.79932 5.88411 8.77393 5.99414C8.74854 6.10417 8.71045 6.21419 8.65967 6.32422C8.60889 6.41732 8.55811 6.49984 8.50732 6.57178C8.45654 6.64372 8.38883 6.71777 8.3042 6.79395C8.18571 6.91244 8.06299 7.00977 7.93604 7.08594C7.80908 7.16211 7.66097 7.22135 7.4917 7.26367C7.41553 7.28906 7.35417 7.30387 7.30762 7.30811C7.26107 7.31234 7.18278 7.31445 7.07275 7.31445C6.96273 7.31445 6.88444 7.31234 6.83789 7.30811C6.79134 7.30387 6.73844 7.29329 6.6792 7.27637C6.5861 7.25944 6.50781 7.23828 6.44434 7.21289C6.38086 7.1875 6.31104 7.15365 6.23486 7.11133C5.99788 6.98438 5.80111 6.81722 5.64453 6.60986C5.48796 6.40251 5.38005 6.16764 5.3208 5.90527C5.31234 5.87142 5.30599 5.82699 5.30176 5.77197C5.29753 5.71696 5.29118 5.65983 5.28271 5.60059C5.27425 5.49056 5.26156 5.40592 5.24463 5.34668C5.2277 5.28744 5.19808 5.23242 5.15576 5.18164C5.12191 5.13932 5.08382 5.10335 5.0415 5.07373C4.99919 5.04411 4.95264 5.02083 4.90186 5.00391C4.85954 4.98698 4.80664 4.97428 4.74316 4.96582C4.67969 4.95736 4.62679 4.96159 4.58447 4.97852Z" fill="#444444"/>
</g>
<defs>
<clipPath id="clip0_9_4811">
<rect width="13" height="13" fill="white" transform="matrix(1 0 0 -1 0.560059 13.2305)"/>
</clipPath>
</defs>
</svg>
