<svg width="13" height="13" viewBox="0 0 13 13" fill="none" xmlns="http://www.w3.org/2000/svg">
<g clip-path="url(#clip0_9_5268)">
<path d="M12.1297 5.93066C11.8797 5.39941 11.5555 4.8916 11.157 4.40723C10.7508 3.92285 10.2899 3.49512 9.77423 3.12402C9.25861 2.75293 8.69611 2.45801 8.08673 2.23926C7.47736 2.02051 6.84064 1.91113 6.17657 1.91113C5.42657 1.91113 4.73126 2.04395 4.09064 2.30957C3.45001 2.56738 2.87579 2.89551 2.36798 3.29395C1.86017 3.69238 1.42657 4.12598 1.0672 4.59473C0.700012 5.06348 0.418762 5.50879 0.22345 5.93066C0.1922 5.99316 0.176575 6.05957 0.176575 6.12988C0.176575 6.2002 0.1922 6.2666 0.22345 6.3291C0.47345 6.86035 0.797668 7.36816 1.19611 7.85254C1.60236 8.33691 2.06329 8.76465 2.57892 9.13574C3.09454 9.50684 3.65704 9.80176 4.26642 10.0205C4.87579 10.2393 5.51251 10.3486 6.17657 10.3486C6.92657 10.3486 7.62189 10.2158 8.26251 9.9502C8.90314 9.69238 9.47736 9.36426 9.98517 8.96582C10.493 8.56738 10.9266 8.13379 11.2859 7.66504C11.6531 7.19629 11.9344 6.75098 12.1297 6.3291C12.1609 6.2666 12.1766 6.2002 12.1766 6.12988C12.1766 6.05957 12.1609 5.99316 12.1297 5.93066ZM6.17657 9.41113C5.63751 9.41113 5.12189 9.3291 4.6297 9.16504C4.13751 8.99316 3.68048 8.76074 3.25861 8.46777C2.83673 8.1748 2.45001 7.8291 2.09845 7.43066C1.74689 7.02441 1.43829 6.59082 1.17267 6.12988C1.43829 5.66895 1.74689 5.23926 2.09845 4.84082C2.45001 4.43457 2.83673 4.08496 3.25861 3.79199C3.68048 3.49902 4.13751 3.27051 4.6297 3.10645C5.12189 2.93457 5.63751 2.84863 6.17657 2.84863C6.71564 2.84863 7.23126 2.93066 7.72345 3.09473C8.21564 3.2666 8.67267 3.49902 9.09454 3.79199C9.51642 4.08496 9.90314 4.43066 10.2547 4.8291C10.6063 5.23535 10.9149 5.66895 11.1805 6.12988C10.9149 6.59082 10.6063 7.02051 10.2547 7.41895C9.90314 7.8252 9.51642 8.1748 9.09454 8.46777C8.67267 8.76074 8.21564 8.98926 7.72345 9.15332C7.23126 9.3252 6.71564 9.41113 6.17657 9.41113ZM6.17657 3.78613C5.85626 3.78613 5.55157 3.84863 5.26251 3.97363C4.98126 4.09082 4.73322 4.25684 4.51837 4.47168C4.30353 4.68652 4.13751 4.93457 4.02032 5.21582C3.89532 5.50488 3.83282 5.80957 3.83282 6.12988C3.83282 6.4502 3.89532 6.75488 4.02032 7.04395C4.13751 7.3252 4.30353 7.57324 4.51837 7.78809C4.73322 8.00293 4.98126 8.16895 5.26251 8.28613C5.55157 8.41113 5.85626 8.47363 6.17657 8.47363C6.49689 8.47363 6.80157 8.41113 7.09064 8.28613C7.37189 8.16895 7.61993 8.00293 7.83478 7.78809C8.04962 7.57324 8.21564 7.3252 8.33282 7.04395C8.45782 6.75488 8.52032 6.4502 8.52032 6.12988C8.52032 5.80957 8.45782 5.50488 8.33282 5.21582C8.21564 4.93457 8.04962 4.68652 7.83478 4.47168C7.61993 4.25684 7.37189 4.09082 7.09064 3.97363C6.80157 3.84863 6.49689 3.78613 6.17657 3.78613ZM6.17657 7.53613C5.78595 7.53613 5.45392 7.39941 5.18048 7.12598C4.90704 6.85254 4.77032 6.52051 4.77032 6.12988C4.77032 5.73926 4.90704 5.40723 5.18048 5.13379C5.45392 4.86035 5.78595 4.72363 6.17657 4.72363C6.5672 4.72363 6.89923 4.86035 7.17267 5.13379C7.44611 5.40723 7.58282 5.73926 7.58282 6.12988C7.58282 6.52051 7.44611 6.85254 7.17267 7.12598C6.89923 7.39941 6.5672 7.53613 6.17657 7.53613Z" fill="#444444"/>
</g>
<defs>
<clipPath id="clip0_9_5268">
<rect width="12" height="12" fill="white" transform="matrix(1 0 0 -1 0.200012 12.1299)"/>
</clipPath>
</defs>
</svg>
