<svg width="13" height="14" viewBox="0 0 13 14" fill="none" xmlns="http://www.w3.org/2000/svg">
<g clip-path="url(#clip0_3_1942)">
<path d="M6.52539 9.09131C7.16862 9.09131 7.71875 8.86279 8.17578 8.40576C8.63281 7.94873 8.86133 7.3986 8.86133 6.75537V2.68018C8.86133 2.03695 8.63281 1.48682 8.17578 1.02979C7.71875 0.572754 7.16862 0.344238 6.52539 0.344238C5.88216 0.344238 5.33415 0.572754 4.88135 1.02979C4.42855 1.48682 4.20215 2.03695 4.20215 2.68018V6.75537C4.20215 7.3986 4.42855 7.94873 4.88135 8.40576C5.33415 8.86279 5.88216 9.09131 6.52539 9.09131ZM5.35742 2.68018C5.35742 2.35856 5.47168 2.0835 5.7002 1.85498C5.92871 1.62646 6.20378 1.51221 6.52539 1.51221C6.84701 1.51221 7.12207 1.62646 7.35059 1.85498C7.5791 2.0835 7.69336 2.35856 7.69336 2.68018V6.75537C7.69336 7.07699 7.5791 7.35205 7.35059 7.58057C7.12207 7.80908 6.84701 7.92334 6.52539 7.92334C6.20378 7.92334 5.92871 7.80908 5.7002 7.58057C5.47168 7.35205 5.35742 7.07699 5.35742 6.75537V2.68018ZM11.1973 6.75537H10.0293C10.0293 7.23779 9.9362 7.69059 9.75 8.11377C9.5638 8.54541 9.31413 8.91781 9.00098 9.23096C8.68783 9.54411 8.31543 9.79378 7.88379 9.97998C7.46061 10.1662 7.00781 10.2593 6.52539 10.2593C6.04297 10.2593 5.59017 10.1662 5.16699 9.97998C4.74382 9.79378 4.37354 9.54411 4.05615 9.23096C3.73877 8.91781 3.48698 8.54541 3.30078 8.11377C3.12305 7.69059 3.03418 7.23779 3.03418 6.75537H1.86621C1.86621 7.35628 1.97201 7.91911 2.18359 8.44385C2.38672 8.97705 2.67236 9.44889 3.04053 9.85938C3.40869 10.2699 3.84245 10.6063 4.3418 10.8687C4.83268 11.1395 5.36589 11.3088 5.94141 11.3765V12.0112H3.61816V13.1665H9.44531V12.0112H7.10938V11.3765C7.6849 11.3088 8.22233 11.1395 8.72168 10.8687C9.22103 10.6063 9.65267 10.2699 10.0166 9.85938C10.3805 9.44889 10.6683 8.97705 10.8799 8.44385C11.0915 7.91911 11.1973 7.35628 11.1973 6.75537Z" fill="#444444"/>
</g>
<defs>
<clipPath id="clip0_3_1942">
<rect width="13" height="13" fill="white" transform="matrix(1 0 0 -1 0 13.23)"/>
</clipPath>
</defs>
</svg>
