<svg width="10" height="10" viewBox="0 0 10 10" fill="none" xmlns="http://www.w3.org/2000/svg">
<g clip-path="url(#clip0_25_1890)">
<path d="M5.15137 5.08984L9.40527 0.835938C9.43457 0.806641 9.44922 0.772949 9.44922 0.734863C9.44922 0.696777 9.43457 0.663086 9.40527 0.633789C9.37598 0.604492 9.34229 0.589844 9.3042 0.589844C9.26611 0.589844 9.23242 0.604492 9.20312 0.633789L4.94922 4.8877L0.695312 0.633789C0.666016 0.604492 0.632324 0.589844 0.594238 0.589844C0.556152 0.589844 0.522461 0.604492 0.493164 0.633789C0.463867 0.663086 0.449219 0.696777 0.449219 0.734863C0.449219 0.772949 0.463867 0.806641 0.493164 0.835938L4.74707 5.08984L0.493164 9.34375C0.463867 9.36719 0.449219 9.39941 0.449219 9.44043C0.449219 9.48145 0.463867 9.5166 0.493164 9.5459C0.516602 9.5752 0.548828 9.58984 0.589844 9.58984C0.630859 9.58984 0.666016 9.5752 0.695312 9.5459L4.94922 5.29199L9.20312 9.5459C9.23242 9.5752 9.26611 9.58838 9.3042 9.58545C9.34229 9.58252 9.37598 9.56934 9.40527 9.5459C9.43457 9.5166 9.44922 9.48145 9.44922 9.44043C9.44922 9.39941 9.43457 9.36719 9.40527 9.34375L5.15137 5.08984Z" fill="#333333"/>
</g>
<defs>
<clipPath id="clip0_25_1890">
<rect width="9" height="9" fill="white" transform="matrix(1 0 0 -1 0.449219 9.58984)"/>
</clipPath>
</defs>
</svg>
