<svg width="15" height="14" viewBox="0 0 15 14" fill="none" xmlns="http://www.w3.org/2000/svg">
<g clip-path="url(#clip0_25_1865)">
<path d="M7.53027 0.75C6.63314 0.75 5.79102 0.919271 5.00391 1.25781C4.20833 1.59635 3.51644 2.05973 2.92822 2.64795C2.34001 3.23617 1.87663 3.92806 1.53809 4.72363C1.19954 5.51074 1.03027 6.35286 1.03027 7.25C1.03027 8.14714 1.19954 8.98926 1.53809 9.77637C1.87663 10.5719 2.34001 11.2638 2.92822 11.8521C3.51644 12.4403 4.20833 12.9036 5.00391 13.2422C5.79102 13.5807 6.63314 13.75 7.53027 13.75C8.42741 13.75 9.26953 13.5807 10.0566 13.2422C10.8522 12.9036 11.5441 12.4403 12.1323 11.8521C12.7205 11.2638 13.1839 10.5719 13.5225 9.77637C13.861 8.98926 14.0303 8.14714 14.0303 7.25C14.0303 6.35286 13.861 5.51074 13.5225 4.72363C13.1839 3.92806 12.7205 3.23617 12.1323 2.64795C11.5441 2.05973 10.8522 1.59635 10.0566 1.25781C9.26953 0.919271 8.42741 0.75 7.53027 0.75ZM7.53027 12.125C6.85319 12.125 6.22266 11.998 5.63867 11.7441C5.04622 11.4902 4.52783 11.1411 4.0835 10.6968C3.63916 10.2524 3.29004 9.73405 3.03613 9.1416C2.78223 8.55762 2.65527 7.92708 2.65527 7.25C2.65527 6.57292 2.78223 5.94238 3.03613 5.3584C3.29004 4.76595 3.63916 4.24756 4.0835 3.80322C4.52783 3.35889 5.04622 3.00977 5.63867 2.75586C6.22266 2.50195 6.85319 2.375 7.53027 2.375C8.20736 2.375 8.83789 2.50195 9.42188 2.75586C10.0143 3.00977 10.5327 3.35889 10.9771 3.80322C11.4214 4.24756 11.7705 4.76595 12.0244 5.3584C12.2783 5.94238 12.4053 6.57292 12.4053 7.25C12.4053 7.92708 12.2783 8.55762 12.0244 9.1416C11.7705 9.73405 11.4214 10.2524 10.9771 10.6968C10.5327 11.1411 10.0143 11.4902 9.42188 11.7441C8.83789 11.998 8.20736 12.125 7.53027 12.125Z" fill="#CCCCCC"/>
</g>
<defs>
<clipPath id="clip0_25_1865">
<rect width="14" height="13" fill="white" transform="matrix(1 0 0 -1 0.530273 13.75)"/>
</clipPath>
</defs>
</svg>
