<svg width="15" height="14" viewBox="0 0 15 14" fill="none" xmlns="http://www.w3.org/2000/svg">
<g clip-path="url(#clip0_25_1868)">
<path d="M13.627 3.50488L13.1953 3.08594C13.1276 3.01823 13.0514 2.96745 12.9668 2.93359C12.8822 2.89974 12.7891 2.88281 12.6875 2.88281C12.5944 2.88281 12.5055 2.89974 12.4209 2.93359C12.3363 2.96745 12.2601 3.01823 12.1924 3.08594L6.21289 9.06543L2.46777 5.33301C2.40007 5.2653 2.32389 5.2124 2.23926 5.17432C2.15462 5.13623 2.06152 5.11719 1.95996 5.11719C1.86686 5.11719 1.77799 5.13623 1.69336 5.17432C1.60872 5.2124 1.53255 5.2653 1.46484 5.33301L1.0332 5.75195C0.965495 5.81966 0.914714 5.89795 0.880859 5.98682C0.847005 6.07568 0.830078 6.16667 0.830078 6.25977C0.830078 6.35286 0.847005 6.44385 0.880859 6.53271C0.914714 6.62158 0.965495 6.69564 1.0332 6.75488L5.26074 10.9824C5.26074 10.9824 5.26286 10.9845 5.26709 10.9888C5.27132 10.993 5.27344 10.9993 5.27344 11.0078L5.70508 11.4268C5.77279 11.4945 5.84896 11.5431 5.93359 11.5728C6.01823 11.6024 6.11133 11.6172 6.21289 11.6172C6.30599 11.6172 6.39486 11.6024 6.47949 11.5728C6.56413 11.5431 6.6403 11.4945 6.70801 11.4268L7.13965 10.9951C7.13965 10.9951 7.14176 10.993 7.146 10.9888C7.15023 10.9845 7.15234 10.9824 7.15234 10.9824L13.627 4.52051C13.7624 4.37663 13.8301 4.20736 13.8301 4.0127C13.8301 3.81803 13.7624 3.64876 13.627 3.50488Z" fill="#31CAAE"/>
</g>
<defs>
<clipPath id="clip0_25_1868">
<rect width="14" height="13" fill="white" transform="matrix(1 0 0 -1 0.330078 13.75)"/>
</clipPath>
</defs>
</svg>
