<svg width="55" height="18" viewBox="0 0 55 18" fill="none" xmlns="http://www.w3.org/2000/svg">
<g clip-path="url(#clip0_25_1877)">
<path d="M27.4697 1.51025C26.5036 1.51025 25.5967 1.69255 24.749 2.05713C23.8923 2.42171 23.1471 2.92074 22.5137 3.5542C21.8802 4.18766 21.3812 4.93278 21.0166 5.78955C20.652 6.63721 20.4697 7.54411 20.4697 8.51025C20.4697 9.12093 20.5495 9.72249 20.709 10.3149C20.8685 10.9074 21.0986 11.4679 21.3994 11.9966L20.4971 14.7993C20.4606 14.8905 20.4561 14.9862 20.4834 15.0864C20.5107 15.1867 20.5609 15.2733 20.6338 15.3462C20.7067 15.4191 20.791 15.4692 20.8867 15.4966C20.9824 15.5239 21.0804 15.5194 21.1807 15.4829L23.9834 14.5806C24.512 14.8813 25.0726 15.1115 25.665 15.271C26.2575 15.4305 26.859 15.5103 27.4697 15.5103C28.4359 15.5103 29.3428 15.328 30.1904 14.9634C31.0472 14.5988 31.7923 14.0998 32.4258 13.4663C33.0592 12.8328 33.5583 12.0877 33.9229 11.231C34.2874 10.3833 34.4697 9.4764 34.4697 8.51025C34.4697 7.54411 34.2874 6.63721 33.9229 5.78955C33.5583 4.93278 33.0592 4.18766 32.4258 3.5542C31.7923 2.92074 31.0472 2.42171 30.1904 2.05713C29.3428 1.69255 28.4359 1.51025 27.4697 1.51025ZM27.4697 14.4165C26.9137 14.4165 26.3714 14.3413 25.8428 14.1909C25.3141 14.0405 24.8128 13.8195 24.3389 13.5278C24.2751 13.4823 24.2021 13.4549 24.1201 13.4458C24.0381 13.4367 23.9606 13.4412 23.8877 13.4595L21.8643 14.1157L22.5205 12.0923C22.5387 12.0194 22.5433 11.9419 22.5342 11.8599C22.5251 11.7778 22.4977 11.7049 22.4521 11.6411C22.1605 11.1672 21.9395 10.6659 21.7891 10.1372C21.6387 9.60856 21.5635 9.06624 21.5635 8.51025C21.5635 7.69906 21.7184 6.93343 22.0283 6.21338C22.3382 5.49333 22.7598 4.8667 23.293 4.3335C23.8262 3.80029 24.4528 3.37874 25.1729 3.06885C25.8929 2.75895 26.6585 2.604 27.4697 2.604C28.2809 2.604 29.0465 2.75895 29.7666 3.06885C30.4867 3.37874 31.1133 3.80029 31.6465 4.3335C32.1797 4.8667 32.6012 5.49333 32.9111 6.21338C33.221 6.93343 33.376 7.69906 33.376 8.51025C33.376 9.32145 33.221 10.0871 32.9111 10.8071C32.6012 11.5272 32.1797 12.1538 31.6465 12.687C31.1133 13.2202 30.4867 13.6418 29.7666 13.9517C29.0465 14.2616 28.2809 14.4165 27.4697 14.4165ZM28.1533 8.51025C28.1533 8.70166 28.0872 8.86344 27.9551 8.99561C27.8229 9.12777 27.6611 9.19385 27.4697 9.19385C27.2783 9.19385 27.1165 9.12777 26.9844 8.99561C26.8522 8.86344 26.7861 8.70166 26.7861 8.51025C26.7861 8.31885 26.8522 8.15706 26.9844 8.0249C27.1165 7.89274 27.2783 7.82666 27.4697 7.82666C27.6611 7.82666 27.8229 7.89274 27.9551 8.0249C28.0872 8.15706 28.1533 8.31885 28.1533 8.51025ZM30.8877 8.51025C30.8877 8.70166 30.8216 8.86344 30.6895 8.99561C30.5573 9.12777 30.3955 9.19385 30.2041 9.19385C30.0127 9.19385 29.8509 9.12777 29.7188 8.99561C29.5866 8.86344 29.5205 8.70166 29.5205 8.51025C29.5205 8.31885 29.5866 8.15706 29.7188 8.0249C29.8509 7.89274 30.0127 7.82666 30.2041 7.82666C30.3955 7.82666 30.5573 7.89274 30.6895 8.0249C30.8216 8.15706 30.8877 8.31885 30.8877 8.51025ZM25.4189 8.51025C25.4189 8.70166 25.3529 8.86344 25.2207 8.99561C25.0885 9.12777 24.9268 9.19385 24.7354 9.19385C24.5439 9.19385 24.3822 9.12777 24.25 8.99561C24.1178 8.86344 24.0518 8.70166 24.0518 8.51025C24.0518 8.31885 24.1178 8.15706 24.25 8.0249C24.3822 7.89274 24.5439 7.82666 24.7354 7.82666C24.9268 7.82666 25.0885 7.89274 25.2207 8.0249C25.3529 8.15706 25.4189 8.31885 25.4189 8.51025Z" fill="#444444"/>
</g>
<defs>
<clipPath id="clip0_25_1877">
<rect width="14" height="14" fill="white" transform="matrix(1 0 0 -1 20.4697 15.5103)"/>
</clipPath>
</defs>
</svg>
