<svg width="167" height="105" viewBox="0 0 167 105" fill="none" xmlns="http://www.w3.org/2000/svg">
<g clip-path="url(#clip0_9_12300)">
<path d="M70.9961 30.436C70.8242 30.4647 70.6738 30.5148 70.5449 30.5864C70.416 30.658 70.2943 30.7511 70.1797 30.8657C70.0938 30.9517 69.7214 31.4386 69.0625 32.3267C68.375 33.2147 67.6374 34.1815 66.8496 35.2271C66.0618 36.2726 65.3385 37.2394 64.6797 38.1274C64.0495 39.0155 63.7057 39.5024 63.6484 39.5884L63.5195 39.8892V54.1548C63.5195 59.4543 63.5195 63.1997 63.5195 65.3911C63.5195 67.5825 63.5339 68.7785 63.5625 68.979C63.6198 69.6665 63.7988 70.3182 64.0996 70.9341C64.4004 71.55 64.7943 72.1014 65.2812 72.5884C65.7109 73.0181 66.1693 73.3618 66.6562 73.6196C67.1432 73.8774 67.7161 74.078 68.375 74.2212C68.5469 74.2785 69.3776 74.3143 70.8672 74.3286C72.3568 74.3429 76.4674 74.3501 83.1992 74.3501C85.7487 74.3501 87.9544 74.3501 89.8164 74.3501C91.6497 74.3501 93.1751 74.3501 94.3926 74.3501C95.61 74.3501 96.5195 74.3358 97.1211 74.3071C97.7227 74.3071 98.0807 74.3071 98.1953 74.3071C98.3099 74.2785 98.4674 74.2427 98.668 74.1997C98.8685 74.1567 99.0404 74.1209 99.1836 74.0923C100.387 73.7199 101.368 73.0754 102.127 72.1587C102.886 71.242 103.323 70.1535 103.438 68.8931C103.466 68.8071 103.48 68.4491 103.48 67.8188C103.48 67.2173 103.48 66.3149 103.48 65.1118C103.48 63.9087 103.48 62.3905 103.48 60.5571C103.48 58.7524 103.48 56.604 103.48 54.1118V39.8892L103.309 39.5454C103.251 39.4595 102.922 39.0011 102.32 38.1704C101.719 37.3397 100.96 36.3084 100.043 35.0767C98.4102 32.9282 97.429 31.6535 97.0996 31.2524C96.7702 30.8514 96.4766 30.5936 96.2188 30.479C96.1042 30.4217 95.4954 30.3931 94.3926 30.3931C93.2897 30.3931 89.6875 30.3787 83.5859 30.3501C78.7161 30.3501 75.4219 30.3573 73.7031 30.3716C71.9844 30.3859 71.082 30.4074 70.9961 30.436ZM96.0039 36.3657L97.5078 38.3423H69.4922L69.6211 38.1704C69.6784 38.1131 69.8503 37.8911 70.1367 37.5044C70.4232 37.1177 70.7526 36.6665 71.125 36.1509L72.457 34.3462H94.5L96.0039 36.3657ZM99.4844 55.4868C99.4844 62.0467 99.4844 65.8924 99.4844 67.0239C99.4844 68.1554 99.4557 68.8071 99.3984 68.979C99.3411 69.1795 99.2409 69.3657 99.0977 69.5376C98.9544 69.7095 98.7826 69.867 98.582 70.0103C98.3242 70.1821 97.7227 70.2824 96.7773 70.311C95.832 70.3397 91.4062 70.354 83.5 70.354C75.651 70.354 71.2467 70.3397 70.2871 70.311C69.3275 70.2824 68.7044 70.1821 68.418 70.0103C68.2174 69.867 68.0456 69.7095 67.9023 69.5376C67.7591 69.3657 67.6445 69.1509 67.5586 68.8931C67.5299 68.7785 67.5156 68.005 67.5156 66.5728C67.5156 65.1405 67.5156 61.4452 67.5156 55.4868V42.3384H99.4844V55.4868ZM75.1211 46.4204C74.9206 46.4491 74.7344 46.5135 74.5625 46.6138C74.3906 46.714 74.2331 46.8358 74.0898 46.979C73.832 47.2368 73.6673 47.5233 73.5957 47.8384C73.5241 48.1535 73.5026 48.5832 73.5312 49.1274C73.6458 50.3019 73.9251 51.3976 74.3691 52.4146C74.8132 53.4315 75.4362 54.3553 76.2383 55.186C77.5846 56.6183 79.2103 57.5708 81.1152 58.0435C83.0202 58.5161 84.8893 58.4373 86.7227 57.8071C88.3268 57.2342 89.7018 56.3319 90.8477 55.1001C91.9935 53.8683 92.7669 52.436 93.168 50.8032C93.2826 50.3449 93.3685 49.8364 93.4258 49.2778C93.4831 48.7192 93.4974 48.311 93.4688 48.0532C93.3828 47.6235 93.1966 47.2583 92.9102 46.9575C92.6237 46.6567 92.2513 46.4634 91.793 46.3774C91.5065 46.3202 91.2057 46.3488 90.8906 46.4634C90.5755 46.578 90.3034 46.7498 90.0742 46.979C89.9023 47.1509 89.7806 47.3299 89.709 47.5161C89.6374 47.7023 89.5872 47.9243 89.5586 48.1821C89.4727 48.9269 89.3867 49.4855 89.3008 49.8579C89.2148 50.2303 89.0859 50.6027 88.9141 50.9751C88.7422 51.2902 88.5703 51.5695 88.3984 51.813C88.2266 52.0565 87.9974 52.3071 87.7109 52.5649C87.3099 52.966 86.8945 53.2954 86.4648 53.5532C86.0352 53.811 85.5339 54.0116 84.9609 54.1548C84.7031 54.2407 84.4954 54.2909 84.3379 54.3052C84.1803 54.3195 83.9154 54.3267 83.543 54.3267C83.1706 54.3267 82.9056 54.3195 82.748 54.3052C82.5905 54.2909 82.4115 54.255 82.2109 54.1978C81.8958 54.1405 81.6309 54.0688 81.416 53.9829C81.2012 53.897 80.9648 53.7824 80.707 53.6392C79.9049 53.2095 79.2389 52.6437 78.709 51.9419C78.179 51.2401 77.8138 50.4452 77.6133 49.5571C77.5846 49.4425 77.5632 49.2922 77.5488 49.106C77.5345 48.9198 77.513 48.7264 77.4844 48.5259C77.4557 48.1535 77.4128 47.867 77.3555 47.6665C77.2982 47.466 77.1979 47.2798 77.0547 47.1079C76.9401 46.9647 76.8112 46.8429 76.668 46.7427C76.5247 46.6424 76.3672 46.5636 76.1953 46.5063C76.0521 46.4491 75.873 46.4061 75.6582 46.3774C75.4434 46.3488 75.2643 46.3631 75.1211 46.4204Z" fill="black"/>
</g>
<defs>
<clipPath id="clip0_9_12300">
<rect width="44" height="44" fill="white" transform="matrix(1 0 0 -1 61.5 74.3501)"/>
</clipPath>
</defs>
</svg>
