<svg width="28" height="28" viewBox="0 0 28 28" fill="none" xmlns="http://www.w3.org/2000/svg">
<path d="M10.9717 13.144C10.9951 13.1206 11.0215 13.0942 11.0508 13.0649C11.0801 13.0356 11.1123 13.0151 11.1475 13.0034L15.4717 8.6792C15.6826 8.46826 15.9375 8.36279 16.2363 8.36279C16.5352 8.36279 16.79 8.46826 17.001 8.6792C17.2119 8.89014 17.3174 9.14502 17.3174 9.44385C17.3174 9.74268 17.2119 9.99756 17.001 10.2085L13.2744 13.9175L17.0186 17.6616C17.2295 17.8726 17.335 18.1274 17.335 18.4263C17.335 18.7251 17.2295 18.98 17.0186 19.1909C16.9131 19.2964 16.793 19.3755 16.6582 19.4282C16.5234 19.481 16.3916 19.5073 16.2627 19.5073C16.1221 19.5073 15.9844 19.481 15.8496 19.4282C15.7148 19.3755 15.5947 19.2964 15.4893 19.1909L11.1475 14.8491C11.1123 14.8257 11.0801 14.8022 11.0508 14.7788C11.0215 14.7554 10.9951 14.7319 10.9717 14.7085C10.8662 14.603 10.7871 14.4829 10.7344 14.3481C10.6816 14.2134 10.6553 14.0698 10.6553 13.9175C10.6553 13.7769 10.6816 13.6392 10.7344 13.5044C10.7871 13.3696 10.8662 13.2495 10.9717 13.144Z" fill="#333333"/>
</svg>
