<svg width="19" height="51" viewBox="0 0 19 51" fill="none" xmlns="http://www.w3.org/2000/svg">
<g clip-path="url(#clip0_25_2760)">
<path d="M18.5864 33.1841L15.0884 29.686C15.5806 29.0298 15.9673 28.3032 16.2485 27.5063C16.5298 26.7095 16.6704 25.8657 16.6704 24.9751C16.6704 23.8853 16.4653 22.8657 16.0552 21.9165C15.645 20.9556 15.0825 20.1177 14.3677 19.4028C13.6528 18.688 12.8149 18.1255 11.854 17.7153C10.9048 17.3052 9.88525 17.1001 8.79541 17.1001C7.70557 17.1001 6.68604 17.3052 5.73682 17.7153C4.77588 18.1255 3.93799 18.688 3.22314 19.4028C2.5083 20.1177 1.9458 20.9556 1.53564 21.9165C1.12549 22.8657 0.92041 23.8853 0.92041 24.9751C0.92041 26.0649 1.12549 27.0845 1.53564 28.0337C1.9458 28.9946 2.5083 29.8325 3.22314 30.5474C3.93799 31.2622 4.77588 31.8247 5.73682 32.2349C6.68604 32.645 7.70557 32.8501 8.79541 32.8501C9.68604 32.8501 10.5298 32.7095 11.3267 32.4282C12.1235 32.147 12.8501 31.7603 13.5063 31.2681L17.0044 34.7661C17.1099 34.8716 17.2241 34.9536 17.3472 35.0122C17.4702 35.0708 17.6196 35.1001 17.7954 35.1001C18.1118 35.1001 18.3784 34.9917 18.5952 34.7749C18.812 34.5581 18.9204 34.2915 18.9204 33.9751C18.9204 33.8462 18.8999 33.7173 18.8589 33.5884C18.8179 33.4595 18.7271 33.3247 18.5864 33.1841ZM3.17041 24.9751C3.17041 24.2017 3.31689 23.4692 3.60986 22.7778C3.90283 22.0981 4.3042 21.5034 4.81396 20.9937C5.32373 20.4839 5.91846 20.0825 6.59814 19.7896C7.28955 19.4966 8.02197 19.3501 8.79541 19.3501C9.56885 19.3501 10.3013 19.4966 10.9927 19.7896C11.6724 20.0825 12.2671 20.4839 12.7769 20.9937C13.2866 21.5034 13.688 22.0981 13.981 22.7778C14.2739 23.4692 14.4204 24.2017 14.4204 24.9751C14.4204 25.7485 14.2739 26.481 13.981 27.1724C13.688 27.8521 13.2866 28.4468 12.7769 28.9565C12.2671 29.4663 11.6724 29.8677 10.9927 30.1606C10.3013 30.4536 9.56885 30.6001 8.79541 30.6001C8.02197 30.6001 7.28955 30.4536 6.59814 30.1606C5.91846 29.8677 5.32373 29.4663 4.81396 28.9565C4.3042 28.4468 3.90283 27.8521 3.60986 27.1724C3.31689 26.481 3.17041 25.7485 3.17041 24.9751Z" fill="#444444"/>
</g>
<defs>
<clipPath id="clip0_25_2760">
<rect width="18" height="18" fill="white" transform="matrix(1 0 0 -1 0.92041 35.1001)"/>
</clipPath>
</defs>
</svg>
