<svg width="55" height="58" viewBox="0 0 55 58" fill="none" xmlns="http://www.w3.org/2000/svg">
<g clip-path="url(#clip0_9_7355)">
<path d="M27.4404 21.5395C26.4743 21.5395 25.5674 21.7218 24.7197 22.0864C23.863 22.451 23.1178 22.95 22.4844 23.5835C21.8509 24.217 21.3519 24.9621 20.9873 25.8188C20.6227 26.6665 20.4404 27.5734 20.4404 28.5396C20.4404 29.1502 20.5202 29.7518 20.6797 30.3442C20.8392 30.9367 21.0693 31.4972 21.3701 32.0259L20.4678 34.8286C20.4313 34.9198 20.4268 35.0155 20.4541 35.1157C20.4814 35.216 20.5316 35.3026 20.6045 35.3755C20.6774 35.4484 20.7617 35.4985 20.8574 35.5259C20.9531 35.5532 21.0511 35.5487 21.1514 35.5122L23.9541 34.6099C24.4827 34.9106 25.0433 35.1408 25.6357 35.3003C26.2282 35.4598 26.8298 35.5396 27.4404 35.5396C28.4066 35.5396 29.3135 35.3573 30.1611 34.9927C31.0179 34.6281 31.763 34.1291 32.3965 33.4956C33.0299 32.8621 33.529 32.117 33.8936 31.2603C34.2581 30.4126 34.4404 29.5057 34.4404 28.5396C34.4404 27.5734 34.2581 26.6665 33.8936 25.8188C33.529 24.9621 33.0299 24.217 32.3965 23.5835C31.763 22.95 31.0179 22.451 30.1611 22.0864C29.3135 21.7218 28.4066 21.5395 27.4404 21.5395ZM27.4404 34.4458C26.8844 34.4458 26.3421 34.3706 25.8135 34.2202C25.2848 34.0698 24.7835 33.8488 24.3096 33.5571C24.2458 33.5116 24.1729 33.4842 24.0908 33.4751C24.0088 33.466 23.9313 33.4705 23.8584 33.4888L21.835 34.145L22.4912 32.1216C22.5094 32.0487 22.514 31.9712 22.5049 31.8892C22.4958 31.8071 22.4684 31.7342 22.4229 31.6704C22.1312 31.1965 21.9102 30.6951 21.7598 30.1665C21.6094 29.6379 21.5342 29.0955 21.5342 28.5396C21.5342 27.7284 21.6891 26.9627 21.999 26.2427C22.3089 25.5226 22.7305 24.896 23.2637 24.3628C23.7969 23.8296 24.4235 23.408 25.1436 23.0981C25.8636 22.7882 26.6292 22.6333 27.4404 22.6333C28.2516 22.6333 29.0173 22.7882 29.7373 23.0981C30.4574 23.408 31.084 23.8296 31.6172 24.3628C32.1504 24.896 32.5719 25.5226 32.8818 26.2427C33.1917 26.9627 33.3467 27.7284 33.3467 28.5396C33.3467 29.3507 33.1917 30.1164 32.8818 30.8364C32.5719 31.5565 32.1504 32.1831 31.6172 32.7163C31.084 33.2495 30.4574 33.6711 29.7373 33.981C29.0173 34.2909 28.2516 34.4458 27.4404 34.4458ZM28.124 28.5396C28.124 28.731 28.0579 28.8927 27.9258 29.0249C27.7936 29.1571 27.6318 29.2231 27.4404 29.2231C27.249 29.2231 27.0872 29.1571 26.9551 29.0249C26.8229 28.8927 26.7568 28.731 26.7568 28.5396C26.7568 28.3481 26.8229 28.1864 26.9551 28.0542C27.0872 27.922 27.249 27.856 27.4404 27.856C27.6318 27.856 27.7936 27.922 27.9258 28.0542C28.0579 28.1864 28.124 28.3481 28.124 28.5396ZM30.8584 28.5396C30.8584 28.731 30.7923 28.8927 30.6602 29.0249C30.528 29.1571 30.3662 29.2231 30.1748 29.2231C29.9834 29.2231 29.8216 29.1571 29.6895 29.0249C29.5573 28.8927 29.4912 28.731 29.4912 28.5396C29.4912 28.3481 29.5573 28.1864 29.6895 28.0542C29.8216 27.922 29.9834 27.856 30.1748 27.856C30.3662 27.856 30.528 27.922 30.6602 28.0542C30.7923 28.1864 30.8584 28.3481 30.8584 28.5396ZM25.3896 28.5396C25.3896 28.731 25.3236 28.8927 25.1914 29.0249C25.0592 29.1571 24.8975 29.2231 24.7061 29.2231C24.5146 29.2231 24.3529 29.1571 24.2207 29.0249C24.0885 28.8927 24.0225 28.731 24.0225 28.5396C24.0225 28.3481 24.0885 28.1864 24.2207 28.0542C24.3529 27.922 24.5146 27.856 24.7061 27.856C24.8975 27.856 25.0592 27.922 25.1914 28.0542C25.3236 28.1864 25.3896 28.3481 25.3896 28.5396Z" fill="#444444"/>
</g>
<defs>
<clipPath id="clip0_9_7355">
<rect width="14" height="14" fill="white" transform="matrix(1 0 0 -1 20.4404 35.5396)"/>
</clipPath>
</defs>
</svg>
