<svg width="27" height="27" viewBox="0 0 27 27" fill="none" xmlns="http://www.w3.org/2000/svg">
<path d="M10.4414 12.7441C10.4648 12.7207 10.4912 12.6943 10.5205 12.665C10.5498 12.6357 10.582 12.6152 10.6172 12.6035L14.9414 8.2793C15.1523 8.06836 15.4072 7.96289 15.7061 7.96289C16.0049 7.96289 16.2598 8.06836 16.4707 8.2793C16.6816 8.49023 16.7871 8.74512 16.7871 9.04395C16.7871 9.34277 16.6816 9.59766 16.4707 9.80859L12.7441 13.5176L16.4883 17.2617C16.6992 17.4727 16.8047 17.7275 16.8047 18.0264C16.8047 18.3252 16.6992 18.5801 16.4883 18.791C16.3828 18.8965 16.2627 18.9756 16.1279 19.0283C15.9932 19.0811 15.8613 19.1074 15.7324 19.1074C15.5918 19.1074 15.4541 19.0811 15.3193 19.0283C15.1846 18.9756 15.0645 18.8965 14.959 18.791L10.6172 14.4492C10.582 14.4258 10.5498 14.4023 10.5205 14.3789C10.4912 14.3555 10.4648 14.332 10.4414 14.3086C10.3359 14.2031 10.2568 14.083 10.2041 13.9482C10.1514 13.8135 10.125 13.6699 10.125 13.5176C10.125 13.377 10.1514 13.2393 10.2041 13.1045C10.2568 12.9697 10.3359 12.8496 10.4414 12.7441Z" fill="#333333"/>
</svg>
