<svg width="57" height="34" viewBox="0 0 57 34" fill="none" xmlns="http://www.w3.org/2000/svg">
<g clip-path="url(#clip0_9_4814)">
<path d="M6.08102 10.256C5.52242 10.2983 4.98076 10.4062 4.45602 10.5797C3.93128 10.7532 3.43193 10.9923 2.95797 11.297C2.79716 11.407 2.65328 11.5128 2.52633 11.6144C2.39938 11.7159 2.2555 11.8387 2.09469 11.9825C1.66305 12.3719 1.29277 12.8183 0.983848 13.3219C0.674929 13.8255 0.435834 14.3693 0.266563 14.9532C0.156537 15.3341 0.082481 15.7361 0.044395 16.1593C0.00630911 16.5825 0.00842499 16.9972 0.0507427 17.4034C0.101524 17.8859 0.203086 18.3514 0.35543 18.7999C0.507774 19.2485 0.704551 19.6738 0.945762 20.0758C1.18697 20.4778 1.47262 20.8523 1.8027 21.1993C2.13277 21.5463 2.49671 21.851 2.89449 22.1134C3.08915 22.2488 3.27958 22.3652 3.46578 22.4625C3.65198 22.5598 3.85087 22.6508 4.06246 22.7355C4.44332 22.8878 4.83264 23.0063 5.23043 23.0909C5.62822 23.1671 6.02812 23.2073 6.43014 23.2115C6.83216 23.2158 7.23206 23.184 7.62984 23.1163C8.03609 23.0486 8.42542 22.9428 8.79781 22.7989C9.22945 22.6297 9.6357 22.4223 10.0166 22.1769C10.3974 21.923 10.7487 21.6394 11.0703 21.3263C11.3919 21.0131 11.6754 20.6661 11.9209 20.2853C12.1663 19.9044 12.3737 19.5024 12.5429 19.0792C12.6276 18.8507 12.6995 18.6222 12.7588 18.3937C12.818 18.1652 12.8688 17.9197 12.9111 17.6573C12.9534 17.4288 12.9767 17.1495 12.9809 16.8195C12.9852 16.4894 12.9703 16.1931 12.9365 15.9308C12.8603 15.3299 12.7037 14.7522 12.4668 14.1979C12.2298 13.6435 11.9293 13.1378 11.5654 12.6808C11.303 12.3592 11.0153 12.0629 10.7021 11.7921C10.389 11.5297 10.0568 11.2991 9.70553 11.1002C9.35429 10.9013 8.98824 10.7342 8.60738 10.5987C8.21806 10.4633 7.82027 10.3702 7.41402 10.3195C7.19397 10.2856 6.9718 10.2644 6.74752 10.256C6.52324 10.2475 6.30107 10.2475 6.08102 10.256ZM6.91891 11.4366C7.25745 11.462 7.58964 11.5213 7.91549 11.6144C8.24133 11.7075 8.56083 11.8302 8.87399 11.9825C9.2887 12.1941 9.66744 12.4523 10.0102 12.757C10.353 13.0616 10.6598 13.4129 10.9306 13.8107C11.1168 14.09 11.2776 14.3925 11.413 14.7184C11.5485 15.0442 11.6458 15.3764 11.705 15.715C11.7474 15.9012 11.7727 16.0598 11.7812 16.191C11.7897 16.3222 11.7939 16.5021 11.7939 16.7306C11.7939 16.9591 11.7897 17.1347 11.7812 17.2574C11.7727 17.3802 11.7516 17.5346 11.7177 17.7208C11.6416 18.1355 11.5104 18.5439 11.3242 18.9459C11.138 19.3479 10.9137 19.714 10.6513 20.0441L10.5498 20.1583L10.3086 19.9171C10.1393 19.7478 9.97636 19.604 9.81979 19.4855C9.66321 19.367 9.49182 19.257 9.30563 19.1554C9.23792 19.1131 9.14693 19.0644 9.03268 19.0094C8.91842 18.9544 8.8359 18.9184 8.78512 18.9015L8.73434 18.8888L8.8232 18.8126C8.88245 18.7618 8.95439 18.692 9.03902 18.6031C9.12366 18.5143 9.1956 18.4318 9.25484 18.3556C9.50875 18.034 9.70341 17.687 9.83883 17.3146C9.96578 16.9337 10.0314 16.5507 10.0356 16.1656C10.0398 15.7806 9.97848 15.3976 9.85152 15.0167C9.72457 14.6359 9.53414 14.2846 9.28024 13.963C9.00094 13.6075 8.6624 13.3134 8.26461 13.0807C7.86682 12.8479 7.43941 12.7019 6.98238 12.6427C6.84697 12.6173 6.67981 12.6067 6.48092 12.611C6.28203 12.6152 6.11487 12.6258 5.97945 12.6427C5.78479 12.6765 5.59648 12.7231 5.41451 12.7823C5.23255 12.8416 5.0527 12.9178 4.87496 13.0109C4.36715 13.2732 3.9482 13.635 3.61813 14.0963C3.28805 14.5576 3.08069 15.076 2.99606 15.6515C2.97913 15.77 2.97066 15.9329 2.97066 16.1403C2.97066 16.3476 2.97913 16.5105 2.99606 16.629C3.02991 16.8237 3.07434 17.0099 3.12936 17.1876C3.18437 17.3653 3.25419 17.5389 3.33883 17.7081C3.44039 17.9112 3.55465 18.0996 3.6816 18.2731C3.80856 18.4466 3.9482 18.601 4.10055 18.7364C4.14287 18.7703 4.17672 18.802 4.20211 18.8317C4.2275 18.8613 4.2402 18.8761 4.2402 18.8761C4.2402 18.8761 4.22538 18.8846 4.19576 18.9015C4.16614 18.9184 4.13017 18.9353 4.08785 18.9523C3.81702 19.0708 3.57158 19.2062 3.35152 19.3585C3.13147 19.5109 2.91142 19.6971 2.69137 19.9171L2.45016 20.1583L2.34859 20.0314C2.04391 19.6505 1.79846 19.2358 1.61227 18.7872C1.42607 18.3387 1.29912 17.8647 1.23141 17.3653C1.21448 17.2215 1.20602 17.0078 1.20602 16.7242C1.20602 16.4407 1.21448 16.2312 1.23141 16.0958C1.26526 15.8334 1.31181 15.5922 1.37106 15.3722C1.4303 15.1521 1.50647 14.9321 1.59957 14.712C1.75191 14.3312 1.94658 13.9757 2.18356 13.6456C2.42053 13.3155 2.68925 13.0172 2.98971 12.7506C3.29016 12.484 3.61813 12.2534 3.97359 12.0587C4.33753 11.864 4.71415 11.7159 5.10348 11.6144C5.25582 11.5721 5.42932 11.534 5.62399 11.5001C5.81865 11.4663 5.98792 11.4451 6.1318 11.4366C6.23336 11.4282 6.36666 11.4239 6.5317 11.4239C6.69674 11.4239 6.82581 11.4282 6.91891 11.4366ZM6.81734 13.8107C7.07125 13.8445 7.31035 13.9165 7.53463 14.0265C7.75891 14.1365 7.96415 14.2804 8.15035 14.4581C8.39579 14.6951 8.57776 14.9659 8.69625 15.2706C8.81474 15.5753 8.86552 15.8969 8.84859 16.2355C8.84013 16.5317 8.77877 16.811 8.66451 17.0734C8.55025 17.3357 8.38733 17.5769 8.17574 17.797C7.97262 18.0001 7.74833 18.1609 7.50289 18.2794C7.25745 18.3979 6.98662 18.4656 6.69039 18.4825C6.06409 18.5418 5.50761 18.3746 5.02096 17.9811C4.5343 17.5875 4.24866 17.0776 4.16402 16.4513C4.11324 16.0789 4.1471 15.7213 4.26559 15.3785C4.38408 15.0358 4.57874 14.729 4.84957 14.4581C5.11194 14.2042 5.41451 14.0201 5.75729 13.9059C6.10006 13.7916 6.45341 13.7599 6.81734 13.8107ZM6.95699 19.6886C7.50712 19.7309 7.99166 19.8431 8.41061 20.025C8.82955 20.207 9.19983 20.463 9.52145 20.7931C9.58915 20.8693 9.63147 20.9179 9.6484 20.9391C9.66533 20.9602 9.66956 20.975 9.66109 20.9835C9.64417 21.0089 9.54684 21.0766 9.3691 21.1866C9.19137 21.2967 9.04326 21.3813 8.92477 21.4405C8.51852 21.6521 8.1038 21.8066 7.68063 21.9039C7.25745 22.0013 6.82158 22.0457 6.37301 22.0372C6.026 22.0203 5.69804 21.9801 5.38912 21.9166C5.0802 21.8531 4.76917 21.7579 4.45602 21.631C4.30367 21.5633 4.11959 21.4702 3.90377 21.3517C3.68795 21.2332 3.51656 21.1274 3.38961 21.0343L3.31344 20.9708L3.4277 20.8566C3.72392 20.518 4.09208 20.2514 4.53219 20.0568C4.97229 19.8621 5.46318 19.7436 6.00484 19.7013C6.12333 19.6844 6.28203 19.6759 6.48092 19.6759C6.67981 19.6759 6.8385 19.6801 6.95699 19.6886Z" fill="#444444"/>
</g>
<defs>
<clipPath id="clip0_9_4814">
<rect width="13" height="13" fill="white" transform="matrix(1 0 0 -1 0 23.2305)"/>
</clipPath>
</defs>
</svg>
