<svg width="28" height="28" viewBox="0 0 28 28" fill="none" xmlns="http://www.w3.org/2000/svg">
<path d="M17.0283 13.144C17.0049 13.1206 16.9785 13.0942 16.9492 13.0649C16.9199 13.0356 16.8877 13.0151 16.8525 13.0034L12.5283 8.6792C12.3174 8.46826 12.0625 8.36279 11.7637 8.36279C11.4648 8.36279 11.21 8.46826 10.999 8.6792C10.7881 8.89014 10.6826 9.14502 10.6826 9.44385C10.6826 9.74268 10.7881 9.99756 10.999 10.2085L14.7256 13.9175L10.9814 17.6616C10.7705 17.8726 10.665 18.1274 10.665 18.4263C10.665 18.7251 10.7705 18.98 10.9814 19.1909C11.0869 19.2964 11.207 19.3755 11.3418 19.4282C11.4766 19.481 11.6084 19.5073 11.7373 19.5073C11.8779 19.5073 12.0156 19.481 12.1504 19.4282C12.2852 19.3755 12.4053 19.2964 12.5107 19.1909L16.8525 14.8491C16.8877 14.8257 16.9199 14.8022 16.9492 14.7788C16.9785 14.7554 17.0049 14.7319 17.0283 14.7085C17.1338 14.603 17.2129 14.4829 17.2656 14.3481C17.3184 14.2134 17.3447 14.0698 17.3447 13.9175C17.3447 13.7769 17.3184 13.6392 17.2656 13.5044C17.2129 13.3696 17.1338 13.2495 17.0283 13.144Z" fill="#333333"/>
</svg>
