<svg width="167" height="104" viewBox="0 0 167 104" fill="none" xmlns="http://www.w3.org/2000/svg">
<path d="M70.9961 30.0859C70.8242 30.1146 70.6738 30.1647 70.5449 30.2363C70.416 30.3079 70.2943 30.401 70.1797 30.5156C70.0938 30.6016 69.7214 31.0885 69.0625 31.9766C68.375 32.8646 67.6374 33.8314 66.8496 34.877C66.0618 35.9225 65.3385 36.8893 64.6797 37.7773C64.0495 38.6654 63.7057 39.1523 63.6484 39.2383L63.5195 39.5391V53.8047C63.5195 59.1042 63.5195 62.8496 63.5195 65.041C63.5195 67.2324 63.5339 68.4284 63.5625 68.6289C63.6198 69.3164 63.7988 69.9681 64.0996 70.584C64.4004 71.1999 64.7943 71.7513 65.2812 72.2383C65.7109 72.668 66.1693 73.0117 66.6562 73.2695C67.1432 73.5273 67.7161 73.7279 68.375 73.8711C68.5469 73.9284 69.3776 73.9642 70.8672 73.9785C72.3568 73.9928 76.4674 74 83.1992 74C85.7487 74 87.9544 74 89.8164 74C91.6497 74 93.1751 74 94.3926 74C95.61 74 96.5195 73.9857 97.1211 73.957C97.7227 73.957 98.0807 73.957 98.1953 73.957C98.3099 73.9284 98.4674 73.8926 98.668 73.8496C98.8685 73.8066 99.0404 73.7708 99.1836 73.7422C100.387 73.3698 101.368 72.7253 102.127 71.8086C102.886 70.8919 103.323 69.8034 103.438 68.543C103.466 68.457 103.48 68.099 103.48 67.4688C103.48 66.8672 103.48 65.9648 103.48 64.7617C103.48 63.5586 103.48 62.0404 103.48 60.207C103.48 58.4023 103.48 56.2539 103.48 53.7617V39.5391L103.309 39.1953C103.251 39.1094 102.922 38.651 102.32 37.8203C101.719 36.9896 100.96 35.9583 100.043 34.7266C98.4102 32.5781 97.429 31.3034 97.0996 30.9023C96.7702 30.5013 96.4766 30.2435 96.2188 30.1289C96.1042 30.0716 95.4954 30.043 94.3926 30.043C93.2897 30.043 89.6875 30.0286 83.5859 30C78.7161 30 75.4219 30.0072 73.7031 30.0215C71.9844 30.0358 71.082 30.0573 70.9961 30.0859ZM96.0039 36.0156L97.5078 37.9922H69.4922L69.6211 37.8203C69.6784 37.763 69.8503 37.541 70.1367 37.1543C70.4232 36.7676 70.7526 36.3164 71.125 35.8008L72.457 33.9961H94.5L96.0039 36.0156ZM99.4844 55.1367C99.4844 61.6966 99.4844 65.5423 99.4844 66.6738C99.4844 67.8053 99.4557 68.457 99.3984 68.6289C99.3411 68.8294 99.2409 69.0156 99.0977 69.1875C98.9544 69.3594 98.7826 69.5169 98.582 69.6602C98.3242 69.832 97.7227 69.9323 96.7773 69.9609C95.832 69.9896 91.4062 70.0039 83.5 70.0039C75.651 70.0039 71.2467 69.9896 70.2871 69.9609C69.3275 69.9323 68.7044 69.832 68.418 69.6602C68.2174 69.5169 68.0456 69.3594 67.9023 69.1875C67.7591 69.0156 67.6445 68.8008 67.5586 68.543C67.5299 68.4284 67.5156 67.6549 67.5156 66.2227C67.5156 64.7904 67.5156 61.0951 67.5156 55.1367V41.9883H99.4844V55.1367ZM75.1211 46.0703C74.9206 46.099 74.7344 46.1634 74.5625 46.2637C74.3906 46.3639 74.2331 46.4857 74.0898 46.6289C73.832 46.8867 73.6673 47.1732 73.5957 47.4883C73.5241 47.8034 73.5026 48.2331 73.5312 48.7773C73.6458 49.9518 73.9251 51.0475 74.3691 52.0645C74.8132 53.0814 75.4362 54.0052 76.2383 54.8359C77.5846 56.2682 79.2103 57.2207 81.1152 57.6934C83.0202 58.166 84.8893 58.0872 86.7227 57.457C88.3268 56.8841 89.7018 55.9818 90.8477 54.75C91.9935 53.5182 92.7669 52.0859 93.168 50.4531C93.2826 49.9948 93.3685 49.4863 93.4258 48.9277C93.4831 48.3691 93.4974 47.9609 93.4688 47.7031C93.3828 47.2734 93.1966 46.9082 92.9102 46.6074C92.6237 46.3066 92.2513 46.1133 91.793 46.0273C91.5065 45.9701 91.2057 45.9987 90.8906 46.1133C90.5755 46.2279 90.3034 46.3997 90.0742 46.6289C89.9023 46.8008 89.7806 46.9798 89.709 47.166C89.6374 47.3522 89.5872 47.5742 89.5586 47.832C89.4727 48.5768 89.3867 49.1354 89.3008 49.5078C89.2148 49.8802 89.0859 50.2526 88.9141 50.625C88.7422 50.9401 88.5703 51.2194 88.3984 51.4629C88.2266 51.7064 87.9974 51.957 87.7109 52.2148C87.3099 52.6159 86.8945 52.9453 86.4648 53.2031C86.0352 53.4609 85.5339 53.6615 84.9609 53.8047C84.7031 53.8906 84.4954 53.9408 84.3379 53.9551C84.1803 53.9694 83.9154 53.9766 83.543 53.9766C83.1706 53.9766 82.9056 53.9694 82.748 53.9551C82.5905 53.9408 82.4115 53.9049 82.2109 53.8477C81.8958 53.7904 81.6309 53.7188 81.416 53.6328C81.2012 53.5469 80.9648 53.4323 80.707 53.2891C79.9049 52.8594 79.2389 52.2936 78.709 51.5918C78.179 50.89 77.8138 50.0951 77.6133 49.207C77.5846 49.0924 77.5632 48.9421 77.5488 48.7559C77.5345 48.5697 77.513 48.3763 77.4844 48.1758C77.4557 47.8034 77.4128 47.5169 77.3555 47.3164C77.2982 47.1159 77.1979 46.9297 77.0547 46.7578C76.9401 46.6146 76.8112 46.4928 76.668 46.3926C76.5247 46.2923 76.3672 46.2135 76.1953 46.1562C76.0521 46.099 75.873 46.056 75.6582 46.0273C75.4434 45.9987 75.2643 46.013 75.1211 46.0703Z" fill="black"/>
</svg>
