<svg width="57" height="34" viewBox="0 0 57 34" fill="none" xmlns="http://www.w3.org/2000/svg">
<g clip-path="url(#clip0_25_1692)">
<path d="M6.08126 10.2555C5.52267 10.2978 4.981 10.4057 4.45626 10.5792C3.93152 10.7527 3.43217 10.9918 2.95821 11.2965C2.79741 11.4065 2.65353 11.5123 2.52657 11.6139C2.39962 11.7154 2.25574 11.8382 2.09493 11.982C1.66329 12.3714 1.29301 12.8178 0.984092 13.3214C0.675173 13.825 0.436078 14.3688 0.266807 14.9528C0.156781 15.3336 0.0827251 15.7356 0.0446392 16.1588C0.00655325 16.582 0.00866913 16.9967 0.0509868 17.4029C0.101768 17.8854 0.203331 18.3509 0.355674 18.7994C0.508018 19.248 0.704795 19.6733 0.946006 20.0753C1.18722 20.4773 1.47286 20.8518 1.80294 21.1988C2.13302 21.5459 2.49695 21.8505 2.89474 22.1129C3.0894 22.2483 3.27983 22.3647 3.46603 22.462C3.65222 22.5594 3.85112 22.6503 4.06271 22.735C4.44357 22.8873 4.83289 23.0058 5.23067 23.0904C5.62846 23.1666 6.02836 23.2068 6.43038 23.2111C6.8324 23.2153 7.2323 23.1835 7.63009 23.1158C8.03634 23.0481 8.42566 22.9423 8.79806 22.7985C9.2297 22.6292 9.63595 22.4218 10.0168 22.1764C10.3977 21.9225 10.7489 21.6389 11.0705 21.3258C11.3921 21.0126 11.6757 20.6656 11.9211 20.2848C12.1665 19.9039 12.3739 19.5019 12.5432 19.0787C12.6278 18.8502 12.6997 18.6217 12.759 18.3932C12.8182 18.1647 12.869 17.9192 12.9113 17.6569C12.9537 17.4283 12.9769 17.149 12.9812 16.819C12.9854 16.4889 12.9706 16.1927 12.9367 15.9303C12.8606 15.3294 12.704 14.7517 12.467 14.1974C12.23 13.643 11.9296 13.1373 11.5656 12.6803C11.3033 12.3587 11.0155 12.0625 10.7024 11.7916C10.3892 11.5292 10.057 11.2986 9.70577 11.0997C9.35454 10.9008 8.98849 10.7337 8.60763 10.5983C8.2183 10.4628 7.82052 10.3697 7.41427 10.319C7.19422 10.2851 6.97205 10.2639 6.74776 10.2555C6.52348 10.247 6.30131 10.247 6.08126 10.2555ZM6.91915 11.4361C7.25769 11.4615 7.58989 11.5208 7.91573 11.6139C8.24158 11.707 8.56108 11.8297 8.87423 11.982C9.28894 12.1936 9.66769 12.4518 10.0105 12.7565C10.3532 13.0611 10.66 13.4124 10.9309 13.8102C11.1171 14.0895 11.2779 14.392 11.4133 14.7179C11.5487 15.0437 11.646 15.3759 11.7053 15.7145C11.7476 15.9007 11.773 16.0594 11.7815 16.1905C11.7899 16.3217 11.7942 16.5016 11.7942 16.7301C11.7942 16.9586 11.7899 17.1342 11.7815 17.257C11.773 17.3797 11.7518 17.5341 11.718 17.7203C11.6418 18.135 11.5106 18.5434 11.3244 18.9454C11.1382 19.3474 10.9139 19.7135 10.6516 20.0436L10.55 20.1578L10.3088 19.9166C10.1395 19.7473 9.97661 19.6035 9.82003 19.485C9.66345 19.3665 9.49207 19.2565 9.30587 19.1549C9.23816 19.1126 9.14718 19.0639 9.03292 19.0089C8.91866 18.9539 8.83614 18.9179 8.78536 18.901L8.73458 18.8883L8.82345 18.8121C8.88269 18.7613 8.95463 18.6915 9.03927 18.6027C9.1239 18.5138 9.19584 18.4313 9.25509 18.3551C9.509 18.0335 9.70366 17.6865 9.83907 17.3141C9.96603 16.9332 10.0316 16.5502 10.0359 16.1652C10.0401 15.7801 9.97872 15.3971 9.85177 15.0162C9.72482 14.6354 9.53439 14.2841 9.28048 13.9625C9.00118 13.607 8.66264 13.3129 8.26485 13.0802C7.86707 12.8474 7.43966 12.7014 6.98263 12.6422C6.84721 12.6168 6.68006 12.6062 6.48116 12.6105C6.28227 12.6147 6.11511 12.6253 5.9797 12.6422C5.78504 12.6761 5.59672 12.7226 5.41476 12.7819C5.23279 12.8411 5.05294 12.9173 4.87521 13.0104C4.36739 13.2727 3.94845 13.6346 3.61837 14.0958C3.28829 14.5571 3.08093 15.0755 2.9963 15.651C2.97937 15.7695 2.97091 15.9324 2.97091 16.1398C2.97091 16.3471 2.97937 16.51 2.9963 16.6285C3.03015 16.8232 3.07459 17.0094 3.1296 17.1871C3.18461 17.3649 3.25444 17.5384 3.33907 17.7076C3.44064 17.9108 3.55489 18.0991 3.68185 18.2726C3.8088 18.4461 3.94845 18.6005 4.10079 18.736C4.14311 18.7698 4.17696 18.8015 4.20235 18.8312C4.22775 18.8608 4.24044 18.8756 4.24044 18.8756C4.24044 18.8756 4.22563 18.8841 4.19601 18.901C4.16638 18.9179 4.13041 18.9348 4.0881 18.9518C3.81726 19.0703 3.57182 19.2057 3.35177 19.358C3.13172 19.5104 2.91166 19.6966 2.69161 19.9166L2.4504 20.1578L2.34884 20.0309C2.04415 19.65 1.79871 19.2353 1.61251 18.7867C1.42631 18.3382 1.29936 17.8642 1.23165 17.3649C1.21472 17.221 1.20626 17.0073 1.20626 16.7237C1.20626 16.4402 1.21472 16.2307 1.23165 16.0953C1.26551 15.833 1.31205 15.5917 1.3713 15.3717C1.43054 15.1516 1.50672 14.9316 1.59981 14.7115C1.75216 14.3307 1.94682 13.9752 2.1838 13.6451C2.42078 13.3151 2.6895 13.0167 2.98995 12.7501C3.29041 12.4835 3.61837 12.2529 3.97384 12.0582C4.33777 11.8636 4.7144 11.7154 5.10372 11.6139C5.25607 11.5716 5.42957 11.5335 5.62423 11.4996C5.81889 11.4658 5.98816 11.4446 6.13204 11.4361C6.2336 11.4277 6.36691 11.4235 6.53194 11.4235C6.69698 11.4235 6.82605 11.4277 6.91915 11.4361ZM6.81759 13.8102C7.0715 13.844 7.31059 13.916 7.53487 14.026C7.75916 14.136 7.9644 14.2799 8.1506 14.4576C8.39604 14.6946 8.578 14.9654 8.6965 15.2701C8.81498 15.5748 8.86577 15.8964 8.84884 16.235C8.84037 16.5312 8.77901 16.8105 8.66476 17.0729C8.5505 17.3352 8.38758 17.5764 8.17599 17.7965C7.97286 17.9996 7.74858 18.1604 7.50314 18.2789C7.25769 18.3974 6.98686 18.4651 6.69064 18.482C6.06433 18.5413 5.50786 18.3741 5.0212 17.9806C4.53455 17.587 4.2489 17.0771 4.16427 16.4508C4.11349 16.0784 4.14734 15.7208 4.26583 15.378C4.38432 15.0353 4.57898 14.7285 4.84982 14.4576C5.11219 14.2037 5.41476 14.0196 5.75753 13.9054C6.1003 13.7911 6.45366 13.7594 6.81759 13.8102ZM6.95724 19.6881C7.50737 19.7304 7.99191 19.8426 8.41085 20.0245C8.8298 20.2065 9.20008 20.4625 9.52169 20.7926C9.5894 20.8688 9.63172 20.9174 9.64864 20.9386C9.66557 20.9598 9.6698 20.9746 9.66134 20.983C9.64441 21.0084 9.54708 21.0761 9.36935 21.1862C9.19161 21.2962 9.0435 21.3808 8.92501 21.4401C8.51876 21.6516 8.10405 21.8061 7.68087 21.9034C7.25769 22.0008 6.82182 22.0452 6.37325 22.0367C6.02625 22.0198 5.69829 21.9796 5.38937 21.9161C5.08045 21.8527 4.76941 21.7574 4.45626 21.6305C4.30392 21.5628 4.11983 21.4697 3.90401 21.3512C3.68819 21.2327 3.51681 21.1269 3.38985 21.0338L3.31368 20.9703L3.42794 20.8561C3.72416 20.5175 4.09233 20.2509 4.53243 20.0563C4.97254 19.8616 5.46342 19.7431 6.00509 19.7008C6.12358 19.6839 6.28227 19.6754 6.48116 19.6754C6.68006 19.6754 6.83875 19.6796 6.95724 19.6881Z" fill="#444444"/>
</g>
<defs>
<clipPath id="clip0_25_1692">
<rect width="13" height="13" fill="white" transform="matrix(1 0 0 -1 0 23.23)"/>
</clipPath>
</defs>
</svg>
