<svg width="28" height="27" viewBox="0 0 28 27" fill="none" xmlns="http://www.w3.org/2000/svg">
<path d="M17.498 12.7441C17.4746 12.7207 17.4482 12.6943 17.4189 12.665C17.3896 12.6357 17.3574 12.6152 17.3223 12.6035L12.998 8.2793C12.7871 8.06836 12.5322 7.96289 12.2334 7.96289C11.9346 7.96289 11.6797 8.06836 11.4688 8.2793C11.2578 8.49023 11.1523 8.74512 11.1523 9.04395C11.1523 9.34277 11.2578 9.59766 11.4688 9.80859L15.1953 13.5176L11.4512 17.2617C11.2402 17.4727 11.1348 17.7275 11.1348 18.0264C11.1348 18.3252 11.2402 18.5801 11.4512 18.791C11.5566 18.8965 11.6768 18.9756 11.8115 19.0283C11.9463 19.0811 12.0781 19.1074 12.207 19.1074C12.3477 19.1074 12.4854 19.0811 12.6201 19.0283C12.7549 18.9756 12.875 18.8965 12.9805 18.791L17.3223 14.4492C17.3574 14.4258 17.3896 14.4023 17.4189 14.3789C17.4482 14.3555 17.4746 14.332 17.498 14.3086C17.6035 14.2031 17.6826 14.083 17.7354 13.9482C17.7881 13.8135 17.8145 13.6699 17.8145 13.5176C17.8145 13.377 17.7881 13.2393 17.7354 13.1045C17.6826 12.9697 17.6035 12.8496 17.498 12.7441Z" fill="#333333"/>
</svg>
