<svg width="27" height="28" viewBox="0 0 27 28" fill="none" xmlns="http://www.w3.org/2000/svg">
<g clip-path="url(#clip0_17_52)">
<path d="M13.5 0.840027C11.6367 0.840027 9.8877 1.19159 8.25293 1.89471C6.61816 2.61542 5.18994 3.58661 3.96826 4.80829C2.74658 6.02997 1.77539 7.45819 1.05469 9.09296C0.351563 10.7277 0 12.4767 0 14.34C0 16.2033 0.351563 17.9523 1.05469 19.5871C1.77539 21.2219 2.74658 22.6501 3.96826 23.8718C5.18994 25.0934 6.61816 26.0646 8.25293 26.7853C9.8877 27.4885 11.6367 27.84 13.5 27.84C15.3633 27.84 17.1123 27.4885 18.7471 26.7853C20.3818 26.0646 21.8101 25.0934 23.0317 23.8718C24.2534 22.6501 25.2246 21.2219 25.9453 19.5871C26.6484 17.9523 27 16.2033 27 14.34C27 12.4767 26.6484 10.7277 25.9453 9.09296C25.2246 7.45819 24.2534 6.02997 23.0317 4.80829C21.8101 3.58661 20.3818 2.61542 18.7471 1.89471C17.1123 1.19159 15.3633 0.840027 13.5 0.840027ZM13.5 26.6535C11.7949 26.6535 10.1953 26.3371 8.70117 25.7043C7.20703 25.0539 5.90186 24.1706 4.78564 23.0544C3.66943 21.9382 2.78613 20.633 2.13574 19.1389C1.50293 17.6447 1.18652 16.0451 1.18652 14.34C1.18652 12.6349 1.50293 11.0353 2.13574 9.5412C2.78613 8.04706 3.66943 6.74188 4.78564 5.62567C5.90186 4.50946 7.20703 3.62616 8.70117 2.97577C10.1953 2.34296 11.7949 2.02655 13.5 2.02655C15.2051 2.02655 16.8047 2.34296 18.2988 2.97577C19.793 3.62616 21.0981 4.50946 22.2144 5.62567C23.3306 6.74188 24.2139 8.04706 24.8643 9.5412C25.4971 11.0353 25.8135 12.6349 25.8135 14.34C25.8135 16.0451 25.4971 17.6447 24.8643 19.1389C24.2139 20.633 23.3306 21.9382 22.2144 23.0544C21.0981 24.1706 19.793 25.0539 18.2988 25.7043C16.8047 26.3371 15.2051 26.6535 13.5 26.6535ZM19.1953 19.218L14.0801 14.1027V4.95331C14.0801 4.7951 14.0229 4.65887 13.9087 4.54462C13.7944 4.43036 13.6582 4.37323 13.5 4.37323C13.3418 4.37323 13.2056 4.43036 13.0913 4.54462C12.9771 4.65887 12.9199 4.7951 12.9199 4.95331V14.34C12.9199 14.4103 12.9331 14.485 12.9595 14.5641C12.9858 14.6432 13.0254 14.7092 13.0781 14.7619L18.3779 20.0353C18.4307 20.0881 18.4922 20.132 18.5625 20.1672C18.6328 20.2023 18.7031 20.2199 18.7734 20.2199C18.8613 20.2199 18.9404 20.2023 19.0107 20.1672C19.0811 20.132 19.1426 20.0881 19.1953 20.0353C19.3184 19.9299 19.3799 19.7936 19.3799 19.6266C19.3799 19.4597 19.3184 19.3234 19.1953 19.218Z" fill="#444444"/>
</g>
<defs>
<clipPath id="clip0_17_52">
<rect width="27" height="27" fill="white" transform="matrix(1 0 0 -1 0 27.84)"/>
</clipPath>
</defs>
</svg>
