<svg width="27" height="28" viewBox="0 0 27 28" fill="none" xmlns="http://www.w3.org/2000/svg">
<g clip-path="url(#clip0_3_1927)">
<path d="M13.5 15.5791C14.5195 15.5791 15.4688 15.3857 16.3477 14.999C17.2441 14.5947 18.0264 14.063 18.6943 13.4038C19.3623 12.7446 19.8896 11.9668 20.2764 11.0703C20.6631 10.1738 20.8564 9.21582 20.8564 8.19629C20.8564 7.19434 20.6631 6.24512 20.2764 5.34863C19.8896 4.45215 19.3623 3.66992 18.6943 3.00195C18.0264 2.33398 17.2441 1.80664 16.3477 1.41992C15.4688 1.0332 14.5195 0.839844 13.5 0.839844C12.4805 0.839844 11.5312 1.0332 10.6523 1.41992C9.75586 1.80664 8.97363 2.33398 8.30566 3.00195C7.6377 3.66992 7.11035 4.45215 6.72363 5.34863C6.33691 6.24512 6.14355 7.19434 6.14355 8.19629C6.14355 9.21582 6.33691 10.1738 6.72363 11.0703C7.11035 11.9668 7.6377 12.7446 8.30566 13.4038C8.97363 14.063 9.75586 14.5947 10.6523 14.999C11.5312 15.3857 12.4805 15.5791 13.5 15.5791ZM13.5 2.0791C14.3438 2.0791 15.1348 2.2373 15.873 2.55371C16.6289 2.87012 17.2837 3.30957 17.8374 3.87207C18.3911 4.43457 18.8262 5.08496 19.1426 5.82324C19.4766 6.56152 19.6436 7.35254 19.6436 8.19629C19.6436 9.04004 19.4766 9.83984 19.1426 10.5957C18.8262 11.334 18.3911 11.98 17.8374 12.5337C17.2837 13.0874 16.6289 13.5312 15.873 13.8652C15.1348 14.1816 14.3438 14.3398 13.5 14.3398C12.6562 14.3398 11.8652 14.1816 11.127 13.8652C10.3711 13.5312 9.71631 13.0874 9.1626 12.5337C8.60889 11.98 8.17383 11.334 7.85742 10.5957C7.52344 9.83984 7.35645 9.04004 7.35645 8.19629C7.35645 7.35254 7.52344 6.56152 7.85742 5.82324C8.17383 5.08496 8.60889 4.43457 9.1626 3.87207C9.71631 3.30957 10.3711 2.87012 11.127 2.55371C11.8652 2.2373 12.6562 2.0791 13.5 2.0791ZM19.0107 16.792H7.98926C6.88184 16.792 5.84473 17.0029 4.87793 17.4248C3.89355 17.8467 3.04102 18.418 2.32031 19.1387C1.59961 19.8594 1.03711 20.7031 0.632812 21.6699C0.210938 22.6367 0 23.6738 0 24.7812V27.8398H1.23926V24.7812C1.23926 23.832 1.41504 22.9531 1.7666 22.1445C2.11816 21.3184 2.59717 20.6021 3.20361 19.9956C3.81006 19.3892 4.52637 18.9102 5.35254 18.5586C6.16113 18.207 7.04004 18.0312 7.98926 18.0312H19.0107C19.96 18.0312 20.8389 18.207 21.6475 18.5586C22.4736 18.9102 23.1899 19.3892 23.7964 19.9956C24.4028 20.6021 24.8818 21.3184 25.2334 22.1445C25.585 22.9531 25.7607 23.832 25.7607 24.7812V27.8398H27V24.7812C27 23.6738 26.7891 22.6367 26.3672 21.6699C25.9629 20.7031 25.4004 19.8594 24.6797 19.1387C23.959 18.418 23.1064 17.8467 22.1221 17.4248C21.1553 17.0029 20.1182 16.792 19.0107 16.792Z" fill="#444444"/>
</g>
<defs>
<clipPath id="clip0_3_1927">
<rect width="27" height="27" fill="white" transform="matrix(1 0 0 -1 0 27.8398)"/>
</clipPath>
</defs>
</svg>
