<svg width="12" height="12" viewBox="0 0 12 12" fill="none" xmlns="http://www.w3.org/2000/svg">
<g clip-path="url(#clip0_9_5009)">
<path d="M6.41003 0.4375L0.910034 5.21777L1.46863 5.8623L1.98425 5.41113V9.63281C1.98425 9.99089 2.11137 10.2952 2.3656 10.5459C2.61983 10.7965 2.9224 10.9219 3.27332 10.9219H5.67957V6.71094H7.18347V10.9219H9.54675C9.89766 10.9219 10.2002 10.7965 10.4545 10.5459C10.7087 10.2952 10.8358 9.99089 10.8358 9.63281V5.41113L11.3514 5.8623L11.91 5.21777L6.41003 0.4375ZM9.97644 9.63281C9.97644 9.75456 9.93347 9.85661 9.84753 9.93896C9.7616 10.0213 9.66134 10.0625 9.54675 10.0625H8.04285V5.85156H4.82019V10.0625H3.27332C3.15873 10.0625 3.05847 10.0213 2.97253 9.93896C2.8866 9.85661 2.84363 9.75456 2.84363 9.63281V4.66992L6.41003 1.57617L9.97644 4.66992V9.63281Z" fill="#999999"/>
</g>
<defs>
<clipPath id="clip0_9_5009">
<rect width="11" height="11" fill="white" transform="matrix(1 0 0 -1 0.910034 11.1797)"/>
</clipPath>
</defs>
</svg>
