<svg width="11" height="21" viewBox="0 0 11 21" fill="none" xmlns="http://www.w3.org/2000/svg">
<g clip-path="url(#clip0_25_1906)">
<path d="M5.5 5.43799L0 10.2183L0.558594 10.8628L1.07422 10.4116V14.6333C1.07422 14.9914 1.20133 15.2957 1.45557 15.5464C1.7098 15.797 2.01237 15.9224 2.36328 15.9224H4.76953V11.7114H6.27344V15.9224H8.63672C8.98763 15.9224 9.2902 15.797 9.54443 15.5464C9.79867 15.2957 9.92578 14.9914 9.92578 14.6333V10.4116L10.4414 10.8628L11 10.2183L5.5 5.43799ZM9.06641 14.6333C9.06641 14.755 9.02344 14.8571 8.9375 14.9395C8.85156 15.0218 8.7513 15.063 8.63672 15.063H7.13281V10.8521H3.91016V15.063H2.36328C2.2487 15.063 2.14844 15.0218 2.0625 14.9395C1.97656 14.8571 1.93359 14.755 1.93359 14.6333V9.67041L5.5 6.57666L9.06641 9.67041V14.6333Z" fill="#999999"/>
</g>
<defs>
<clipPath id="clip0_25_1906">
<rect width="11" height="11" fill="white" transform="matrix(1 0 0 -1 0 16.1802)"/>
</clipPath>
</defs>
</svg>
