<svg width="18" height="18" viewBox="0 0 18 18" fill="none" xmlns="http://www.w3.org/2000/svg">
<path d="M17.666 16.084L14.168 12.5859C14.6602 11.9297 15.0469 11.2031 15.3281 10.4062C15.6094 9.60938 15.75 8.76562 15.75 7.875C15.75 6.78516 15.5449 5.76562 15.1348 4.81641C14.7246 3.85547 14.1621 3.01758 13.4473 2.30273C12.7324 1.58789 11.8945 1.02539 10.9336 0.615234C9.98438 0.205078 8.96484 0 7.875 0C6.78516 0 5.76562 0.205078 4.81641 0.615234C3.85547 1.02539 3.01758 1.58789 2.30273 2.30273C1.58789 3.01758 1.02539 3.85547 0.615234 4.81641C0.205078 5.76562 0 6.78516 0 7.875C0 8.96484 0.205078 9.98438 0.615234 10.9336C1.02539 11.8945 1.58789 12.7324 2.30273 13.4473C3.01758 14.1621 3.85547 14.7246 4.81641 15.1348C5.76562 15.5449 6.78516 15.75 7.875 15.75C8.76562 15.75 9.60938 15.6094 10.4062 15.3281C11.2031 15.0469 11.9297 14.6602 12.5859 14.168L16.084 17.666C16.1895 17.7715 16.3037 17.8535 16.4268 17.9121C16.5498 17.9707 16.6992 18 16.875 18C17.1914 18 17.458 17.8916 17.6748 17.6748C17.8916 17.458 18 17.1914 18 16.875C18 16.7461 17.9795 16.6172 17.9385 16.4883C17.8975 16.3594 17.8066 16.2246 17.666 16.084ZM2.25 7.875C2.25 7.10156 2.39648 6.36914 2.68945 5.67773C2.98242 4.99805 3.38379 4.40332 3.89355 3.89355C4.40332 3.38379 4.99805 2.98242 5.67773 2.68945C6.36914 2.39648 7.10156 2.25 7.875 2.25C8.64844 2.25 9.38086 2.39648 10.0723 2.68945C10.752 2.98242 11.3467 3.38379 11.8564 3.89355C12.3662 4.40332 12.7676 4.99805 13.0605 5.67773C13.3535 6.36914 13.5 7.10156 13.5 7.875C13.5 8.64844 13.3535 9.38086 13.0605 10.0723C12.7676 10.752 12.3662 11.3467 11.8564 11.8564C11.3467 12.3662 10.752 12.7676 10.0723 13.0605C9.38086 13.3535 8.64844 13.5 7.875 13.5C7.10156 13.5 6.36914 13.3535 5.67773 13.0605C4.99805 12.7676 4.40332 12.3662 3.89355 11.8564C3.38379 11.3467 2.98242 10.752 2.68945 10.0723C2.39648 9.38086 2.25 8.64844 2.25 7.875Z" fill="#444444"/>
</svg>
